<?xml version="1.0" encoding="utf-8"?>
<!-- Generator: Adobe Illustrator 21.0.0, SVG Export Plug-In . SVG Version: 6.00 Build 0)  -->
<svg version="1.1" id="Layer_1" xmlns="http://www.w3.org/2000/svg" xmlns:xlink="http://www.w3.org/1999/xlink" x="0px" y="0px"
	 viewBox="0 0 323.6 278.1" style="enable-background:new 0 0 323.6 278.1;" xml:space="preserve">
<style type="text/css">
	.st0{fill:#FFFFFF;}
	.st1{fill:#4385F4;}
	.st2{fill:none;stroke:#4385F4;stroke-width:2;stroke-miterlimit:10;stroke-dasharray:3,3;}
	.st3{fill:#FF7058;}
	.st4{fill:#FFD15C;}
	.st5{clip-path:url(#SVGID_2_);}
	.st6{fill:#F1543F;}
	.st7{fill:#F8B64C;}
	.st8{clip-path:url(#SVGID_4_);}
	.st9{fill:#FFC952;}
	.st10{fill:none;}
	.st11{opacity:0.5;fill:#4385F4;enable-background:new    ;}
	.st12{opacity:0.5;}
	.st13{fill:#2C72C6;}
	.st14{fill:#3D597A;}
	.st15{fill:#FFA829;}
	.st16{enable-background:new    ;}
</style>
<title>Asset 32</title>
<g id="Layer_2">
	<g id="Layer_1-2">
		<path class="st0" d="M162.1,275.1c-75.1,0-136.3-61-136.3-136.1S87,3,162.1,3s136.3,61,136.3,136.1S237.3,275.1,162.1,275.1z"/>
		<path class="st1" d="M162.1,6c73.5,0,133.1,59.7,133.1,133.2c0,73.5-59.7,133.1-133.2,133.1c-73.5,0-133.1-59.7-133.1-133.2
			c0-35.3,14.1-69.1,39-94.1C92.9,19.9,126.8,5.9,162.1,6 M162.1,0C85.2,0,22.9,62.3,22.9,139.1s62.3,139.1,139.3,139.1
			s139.3-62.3,139.3-139.1S239.1,0,162.1,0z"/>
		<path class="st2" d="M162,268c71.2,0,129-57.7,129-128.8S233.2,10.4,162,10.4S33,68.1,33,139.2S90.8,268,162,268"/>
		<polygon class="st3" points="172.3,140.4 156.5,140.4 159.2,134.6 161.5,129.2 167.3,129.2 169.6,134.6 		"/>
		<path class="st4" d="M182.3,140.4h-35.9c-2,0-3.6,1.6-3.6,3.6v11.7h42.9v-11.7c0.1-1.8-1.3-3.4-3.1-3.6
			C182.6,140.4,182.5,140.4,182.3,140.4"/>
		<g>
			<defs>
				<path id="SVGID_1_" d="M169.6,134.6c-1.4,0.7-2.8,1.4-4.3,2l-0.9,0.2l-0.9-0.4c-1.5-0.6-2.9-1.3-4.3-2l2.3-5.4h5.6L169.6,134.6z
					"/>
			</defs>
			<clipPath id="SVGID_2_">
				<use xlink:href="#SVGID_1_"  style="overflow:visible;"/>
			</clipPath>
			<g class="st5">
				<rect x="154.2" y="124.1" class="st6" width="20.4" height="17.7"/>
			</g>
		</g>
		<path class="st7" d="M192.4,69.6h-56c-1.2,0-2.1,1-2.1,2.2c0,1.2,0.9,2.2,2.1,2.3h56c1.2,0,2.1-1,2.2-2.2
			C194.6,70.6,193.6,69.6,192.4,69.6C192.4,69.6,192.4,69.6,192.4,69.6z M121.3,79.4v7.3c0.1,17.4,10.6,33.1,26.8,39.8
			c10.5,4.3,22.2,4.3,32.7,0c16.1-6.6,26.7-22.3,26.8-39.8v-7.3H121.3z M200.3,86.8c0,8.3-2.9,16.4-8.3,22.8
			c-6.8,8.2-17,13-27.6,13.1c-10.7,0-20.9-4.8-27.6-13.1c-5.3-6.4-8.2-14.4-8.3-22.8v-0.2h71.6v0.2H200.3z"/>
		<path class="st4" d="M192.4,74v19.4c0,18-11.2,34.2-28,40.7c-16.9-6.6-28-22.8-28-40.9V74H192.4z"/>
		<g>
			<defs>
				<rect id="SVGID_3_" x="136.4" y="74" width="55.8" height="2.7"/>
			</defs>
			<clipPath id="SVGID_4_">
				<use xlink:href="#SVGID_3_"  style="overflow:visible;"/>
			</clipPath>
			<g class="st8">
				<rect x="131.4" y="69" class="st9" width="65.8" height="12.7"/>
			</g>
		</g>
		<path class="st0" d="M161.9,94.4c0,0-1.6-0.2-1.6,1.3v6.3h10.6v1.9c0,0.5-0.4,0.9-0.9,0.9c0,0-0.1,0-0.1,0h-9.6v8.2h11.6
			c0,0,7-1.1,7.1-8.2V94.4H161.9z M178.4,84.2h-20.7c-7.5,1.8-7.6,8-7.6,8v20.9h7.9V94c0-0.9,0.7-1.7,1.6-1.9h18.8L178.4,84.2z"/>
		<path class="st10" d="M229.6,239l0.1-0.1C229.7,238.9,229.6,238.9,229.6,239z M244,225.9L244,225.9
			C244.1,225.8,244,225.8,244,225.9z M257.1,210.2L257.1,210.2C257.2,210.1,257.1,210.1,257.1,210.2L257.1,210.2z M272.9,177.4
			L272.9,177.4L272.9,177.4L272.9,177.4z M276.8,160.4L276.8,160.4C276.8,160.4,276.8,160.3,276.8,160.4L276.8,160.4z M276.8,142.1
			C276.8,142,276.8,142,276.8,142.1L276.8,142.1L276.8,142.1z M275.5,125.1C275.5,125,275.5,124.9,275.5,125.1
			C275.5,125,275.5,125,275.5,125.1L275.5,125.1z M271.5,109.3L271.5,109.3C271.5,109.3,271.5,109.2,271.5,109.3L271.5,109.3z
			 M266.3,92.3L266.3,92.3z M160,243.7c-9.9,0.4-19.8-0.7-29.3-3.5c3.4-4.4-2.2-8.8-7.6-13c-5.7-4.2-11.3-8.4-11.3-8.4
			s6.7,6.8,6,12.7c-0.2,1.3-0.2,2.7,0.1,4c-1.5-0.7-3.1-1.4-4.6-2.2c4-3.8-0.5-9.2-4.8-14.3c-4.6-5.2-9.2-10.3-9.2-10.3
			s5.1,7.9,3.4,13.7c-0.4,1.3-0.7,2.6-0.6,4c-1.3-1-2.6-2-3.9-3c4.5-3.1,1.2-9.3-2-15.1c-3.4-5.9-6.9-11.6-6.9-11.6
			s3.4,8.6,0.7,14.1c-0.7,1.2-1.1,2.5-1.3,3.9c-1.1-1.2-2.2-2.4-3.2-3.6c4.8-2.4,2.9-9.1,0.9-15.3c-2.2-6.4-4.7-12.3-4.6-12.4
			s1.8,8.9-1.8,14c-0.8,1.1-1.4,2.4-1.9,3.7c-0.9-1.3-1.7-2.7-2.5-4c5.1-1.8,4.4-8.6,3.5-15c-1.1-6.6-2.4-12.7-2.4-12.8
			s0.3,9-4.1,13.5c-1,1-1.9,2.1-2.6,3.4c-0.4-0.9-0.8-1.8-1.2-2.8c-0.3-0.7-0.6-1.4-0.8-2.1c5.1-1,5.6-7.4,5.7-13.5
			c0-6.2-0.4-12.1-0.4-12.2s-1,8.4-5.8,12c-1.1,0.8-2.1,1.7-2.9,2.8c-0.5-1.9-1-3.9-1.3-5.8c5.1-0.1,6.4-6.1,7.4-11.7
			s1.3-11.2,1.3-11.3s-2.1,7.6-7.1,10.3c-1.2,0.6-2.3,1.4-3.2,2.3c-0.2-2.2-0.4-4.4-0.5-6.6c4.9,0.6,6.9-4.7,8.6-9.9
			c1-3.4,1.9-6.8,2.6-10.3c-0.1,0-2.8,6.8-7.9,8.7c-1.2,0.4-2.4,1-3.4,1.8c0.1-2,0.2-3.9,0.3-5.9c0-0.5,0.1-0.9,0.1-1.4
			c4.4,1.2,7.1-3.5,9.2-8c1.3-3,2.5-6.2,3.5-9.3c-0.1,0-3.4,6-8.3,7.1c-1.2,0.2-2.3,0.6-3.3,1.2c0.4-2.6,0.9-5.1,1.5-7.7
			c3.9,1.6,6.9-2.4,9.3-6.4c1.6-2.8,3.1-5.6,4.4-8.5c0,0-3.8,5.4-8.5,5.7c-1,0-2,0.2-3,0.6c0.8-2.7,1.6-5.3,2.6-7.9
			c3.3,1.7,6.4-1.6,9-5c1.8-2.5,3.5-5.1,5-7.7c0,0-4.1,4.8-8.4,4.5c-0.8-0.1-1.6,0-2.4,0.1c1.1-2.6,2.2-5.1,3.4-7.7l0.2-0.5
			c2.7,1.7,5.8-1,8.5-4c2-2.3,3.9-4.6,5.6-7.1c-0.1,0-4.4,4.4-8.3,3.6c-0.8-0.2-1.6-0.2-2.5-0.1c2.7-5.7,5.7-11.2,9-16.6
			c-3.7,5.5-7.1,10.9-10.1,16.3c-0.3-1-0.8-1.9-1.5-2.7c-1.2-1.7-1.3-4.3-0.8-6.6c0.3-1.4,0.7-2.8,1.3-4.2c-2,3.2-3.6,6.7-4.8,10.3
			c-1.5,5.1-1.5,9.9,2,10.5c-1.4,2.8-2.7,5.6-3.8,8.4c-0.5-0.8-1.1-1.5-1.8-2.1c-1.6-1.5-2-4.2-1.9-6.6c0.1-1.5,0.3-2.9,0.7-4.3
			c-1.6,3.4-2.8,7.1-3.5,10.8c-0.9,5.1-0.2,9.9,3.4,10.3c-0.9,2.6-1.7,5.2-2.5,7.7c-0.6-0.7-1.3-1.2-2-1.7c-3.8-2.5-3.1-10.2-3-10.8
			c-1.2,3.7-2,7.5-2.2,11.4c-0.2,5.3,1.1,10.1,4.8,10.2v0.1c-0.5,2.4-1,4.7-1.3,7.1c-0.7-0.6-1.5-1.1-2.3-1.5
			c-4.4-2.1-4.7-10.1-4.6-10.7c-0.8,4-1.1,8-0.8,12.1c0.5,5.5,2.5,10.4,6.5,9.9c-0.2,2.2-0.3,4.4-0.4,6.7c-0.8-0.5-1.7-0.9-2.7-1.2
			c-4.8-1.5-6.2-9.4-6.3-10.4c-0.3,4.3,0,8.5,0.9,12.7c1.2,5.7,4.2,10.7,8.3,9.5c0.1,2,0.3,4.1,0.5,6.1c-1-0.5-2.1-0.8-3.1-1
			c-5.3-0.9-7.9-9.3-8-10.1c0.3,4.5,1.2,9,2.7,13.3c2.1,5.9,6.1,10.9,10.2,8.7c0.4,1.9,0.8,3.7,1.3,5.6c-1.2-0.4-2.4-0.6-3.7-0.6
			c-5.8-0.2-9.8-9-9.9-9.5c1,4.8,2.6,9.4,4.9,13.7c3.2,6.1,8.3,10.9,12.3,7.6c0.6,1.6,1.3,3.3,2,4.9c-1.3-0.3-2.7-0.3-4.1-0.2
			c-6.2,0.7-11.8-8.3-11.9-8.6c1.7,4.9,4.2,9.6,7.3,13.8c4.4,6,10.7,10.3,14.3,6.1c0.8,1.3,1.6,2.7,2.5,4c-1.4-0.1-2.8,0-4.1,0.4
			c-6.2,1.6-13.4-6.9-13.3-7c2.5,4.7,5.8,9,9.6,12.7c5.5,5.4,12.5,8.8,15.4,4c1.1,1.2,2.1,2.4,3.3,3.6c-1.4,0.1-2.8,0.5-4.1,1
			c-5.6,2.3-13.8-4.2-14.5-4.9c3.3,4.3,7.3,8.1,11.8,11.3c6.6,4.5,14.2,6.6,16.3,1.6c1.3,1,2.7,2.1,4,3.1c-1.4,0.3-2.8,0.9-4,1.6
			c-5.3,3.1-14.6-2-15.6-2.6c4.2,3.7,8.9,6.8,14,9.1c7.5,3.4,15.7,4.1,16.9-1c1.5,0.8,3.1,1.6,4.6,2.3c-1.3,0.5-2.6,1.3-3.7,2.2
			c-4.8,3.9-15.2,0.5-16.3,0c5,3,10.3,5.2,15.9,6.6c8.3,2,16.7,1.3,17.1-3.9c9.6,2.8,19.7,4,29.7,3.5L160,243.7z"/>
		<path class="st11" d="M97.1,238.4l-0.1-0.1C97,238.3,97,238.4,97.1,238.4z M81.7,225.9L81.7,225.9
			C81.6,225.8,81.6,225.9,81.7,225.9z M69.2,211.2L69.2,211.2C69.1,211.1,69.1,211.1,69.2,211.2z M52.8,177.5L52.8,177.5
			C52.8,177.5,52.8,177.5,52.8,177.5z M49.6,160.2L49.6,160.2C49.6,160.2,49.6,160.1,49.6,160.2L49.6,160.2z M49,142.7L49,142.7
			C49,142.7,49,142.7,49,142.7z M50.6,125.5C50.6,125.4,50.6,125.4,50.6,125.5C50.6,125.4,50.6,125.4,50.6,125.5L50.6,125.5z
			 M54.2,108.5L54.2,108.5C54.2,108.5,54.2,108.4,54.2,108.5L54.2,108.5z M59.8,91.9L59.8,91.9z"/>
		<g class="st12">
			<path class="st1" d="M159.6,242.9c-9.8,0.4-19.7-0.7-29.1-3.5c3.4-4.4-2.2-8.7-7.6-12.9c-5.6-4.2-11.2-8.4-11.2-8.4
				s6.6,6.8,6,12.6c-0.2,1.3-0.2,2.7,0.1,4c-1.5-0.7-3-1.4-4.5-2.2c3.9-3.8-0.5-9.2-4.8-14.3c-4.5-5.2-9.1-10.2-9.1-10.3
				s5,7.9,3.3,13.6c-0.4,1.3-0.7,2.6-0.6,4c-1.3-1-2.6-2-3.9-3c4.4-3.1,1.2-9.3-1.9-15.1c-3.4-5.9-6.9-11.6-6.9-11.6
				s3.4,8.6,0.7,14.1c-0.7,1.2-1.1,2.6-1.3,3.9c-1.1-1.2-2.2-2.4-3.2-3.6c4.7-2.4,2.9-9,0.9-15.3c-2.2-6.3-4.6-12.3-4.6-12.4
				s1.8,8.9-1.8,14c-0.9,1.1-1.5,2.3-2,3.7c-0.9-1.3-1.7-2.7-2.5-4c5-1.8,4.4-8.5,3.5-14.9c-1.1-6.5-2.4-12.7-2.4-12.8
				s0.3,9-4.1,13.5c-1,1-1.9,2.1-2.5,3.3c-0.4-0.9-0.8-1.8-1.2-2.7c-0.3-0.7-0.6-1.4-0.8-2.1c5.1-0.9,5.5-7.4,5.7-13.4
				c0-6.2-0.4-12.1-0.4-12.1s-1,8.3-5.8,11.9c-1.1,0.8-2.1,1.7-2.9,2.8c-0.5-1.9-0.9-3.9-1.3-5.8c5-0.1,6.4-6,7.4-11.7
				s1.3-11.2,1.3-11.3s-2,7.6-7,10.3c-1.2,0.6-2.3,1.4-3.2,2.3c-0.2-2.2-0.4-4.4-0.5-6.6c4.8,0.6,6.9-4.7,8.5-9.8
				c1-3.4,1.9-6.8,2.5-10.3c-0.1,0-2.8,6.8-7.8,8.6c-1.2,0.4-2.3,1-3.3,1.8c0.1-2,0.2-3.9,0.3-5.8c0-0.5,0.1-0.9,0.1-1.4
				c4.4,1.2,7.1-3.5,9.1-8c1.3-3,2.5-6.2,3.6-9.3c-0.1,0-3.4,6-8.3,7.1c-1.1,0.2-2.3,0.6-3.3,1.2c0.4-2.6,0.9-5.1,1.4-7.6
				c3.8,1.6,6.8-2.4,9.2-6.3c1.6-2.7,3-5.6,4.3-8.4c0,0-3.8,5.3-8.4,5.7c-1,0-2,0.2-2.9,0.6c0.8-2.6,1.6-5.3,2.5-7.9
				c3.2,1.7,6.4-1.6,8.9-5c1.8-2.5,3.4-5,4.9-7.7c0,0-4.1,4.8-8.4,4.5c-0.8-0.1-1.6,0-2.4,0.1c1.1-2.5,2.2-5.1,3.4-7.7l0.2-0.5
				c2.7,1.7,5.8-1,8.5-4c2-2.3,3.8-4.7,5.6-7.1c-0.1,0-4.4,4.4-8.2,3.6c-0.8-0.2-1.6-0.2-2.4-0.1c2.7-5.7,5.7-11.2,9-16.5
				c-3.7,5.5-7.1,10.9-10,16.3c-0.3-1-0.8-1.9-1.4-2.7c-1.2-1.7-1.3-4.3-0.8-6.6c0.3-1.4,0.7-2.8,1.2-4.2c-2,3.2-3.6,6.6-4.8,10.2
				c-1.5,5.1-1.5,9.8,2,10.4c-1.4,2.8-2.7,5.6-3.8,8.4c-0.5-0.8-1.1-1.5-1.7-2.1c-1.6-1.5-2-4.2-1.9-6.5c0.1-1.4,0.3-2.9,0.7-4.3
				c-1.6,3.4-2.8,7.1-3.5,10.8c-0.8,5.1-0.2,9.9,3.3,10.3c-0.9,2.6-1.7,5.1-2.5,7.7c-0.6-0.6-1.3-1.2-2-1.7
				c-3.8-2.5-3.1-10.2-2.9-10.7c-1.2,3.7-1.9,7.5-2.2,11.4c-0.2,5.3,1.1,10.1,4.8,10.1v0.1c-0.5,2.4-1,4.7-1.4,7.1
				c-0.7-0.6-1.5-1.1-2.3-1.4c-4.4-2.1-4.6-10-4.5-10.6c-0.8,4-1.1,8-0.8,12.1c0.5,5.5,2.5,10.4,6.4,9.9c-0.2,2.2-0.3,4.4-0.4,6.7
				c-0.8-0.5-1.7-0.9-2.7-1.2c-4.8-1.5-6.2-9.4-6.2-10.4c-0.3,4.2,0,8.5,0.8,12.7c1.2,5.7,4.2,10.7,8.2,9.4c0.1,2,0.3,4.1,0.5,6.1
				c-1-0.5-2-0.8-3.1-1c-5.3-0.9-7.8-9.2-8-10c0.3,4.5,1.2,9,2.7,13.3c2.1,5.9,6.1,10.9,10.2,8.7c0.4,1.9,0.8,3.7,1.3,5.6
				c-1.2-0.4-2.4-0.6-3.6-0.6c-5.8-0.1-9.7-8.9-9.8-9.5c0.9,4.8,2.6,9.4,4.8,13.7c3.2,6.1,8.2,10.8,12.2,7.6c0.6,1.6,1.3,3.3,2,4.9
				c-1.3-0.3-2.7-0.3-4.1-0.2c-6.2,0.7-11.8-8.3-11.8-8.6c1.7,4.9,4.2,9.5,7.3,13.7c4.4,6,10.6,10.3,14.2,6.1c0.8,1.3,1.6,2.7,2.5,4
				c-1.4-0.1-2.7,0-4.1,0.4c-6.1,1.6-13.3-6.9-13.2-6.9c2.5,4.7,5.7,9,9.6,12.7c5.4,5.4,12.4,8.7,15.3,4c1,1.2,2.1,2.4,3.2,3.6
				c-1.4,0.1-2.7,0.5-4,1c-5.6,2.3-13.7-4.1-14.4-4.9c3.3,4.3,7.3,8,11.7,11.1c6.5,4.5,14.1,6.6,16.2,1.6c1.3,1,2.6,2,4,3
				c-1.4,0.3-2.7,0.9-3.9,1.6c-5.2,3.1-14.5-2-15.4-2.6c4.1,3.7,8.8,6.8,13.9,9.1c7.4,3.4,15.5,4.1,16.8-1c1.5,0.8,3,1.6,4.6,2.3
				c-1.3,0.5-2.6,1.3-3.7,2.2c-4.8,3.9-15,0.5-16.2,0c4.9,3,10.2,5.2,15.8,6.6c8.2,2,16.6,1.3,17-3.9c9.6,2.8,19.5,4,29.5,3.5
				L159.6,242.9z"/>
		</g>
		<path class="st10" d="M166.6,242.9c9.8,0.4,19.7-0.7,29.1-3.5c-3.4-4.4,2.2-8.7,7.6-12.9c5.6-4.2,11.2-8.4,11.2-8.4
			s-6.6,6.8-6,12.6c0.2,1.3,0.2,2.7-0.1,4c1.5-0.7,3-1.4,4.5-2.2c-3.9-3.8,0.5-9.2,4.8-14.3c4.5-5.2,9.1-10.2,9.1-10.3
			s-5,7.9-3.3,13.6c0.4,1.3,0.7,2.6,0.6,4c1.3-1,2.6-2,3.9-3c-4.4-3.1-1.2-9.3,1.9-15.1c3.4-5.9,6.8-11.6,6.8-11.6
			s-3.4,8.6-0.7,14.1c0.7,1.2,1.1,2.5,1.3,3.9c1.1-1.2,2.2-2.4,3.2-3.6c-4.7-2.4-2.9-9-0.9-15.3c2.2-6.3,4.6-12.3,4.6-12.4
			s-1.8,8.9,1.8,14c0.9,1.1,1.5,2.3,2,3.7c0.9-1.3,1.7-2.7,2.5-4c-5-1.8-4.4-8.5-3.5-14.9c1.1-6.5,2.4-12.7,2.4-12.8
			s-0.3,9,4.1,13.5c1,1,1.9,2.1,2.5,3.3c0.4-0.9,0.8-1.8,1.1-2.7c0.3-0.7,0.6-1.4,0.8-2.1c-5.1-0.9-5.5-7.4-5.7-13.4
			c0-6.2,0.4-12.1,0.4-12.1s1,8.3,5.8,11.9c1.1,0.8,2.1,1.7,2.9,2.8c0.5-1.9,0.9-3.8,1.3-5.8c-5-0.1-6.4-6-7.4-11.7
			s-1.3-11.2-1.3-11.3s2,7.6,7,10.3c1.2,0.6,2.3,1.4,3.2,2.3c0.2-2.2,0.4-4.4,0.5-6.6c-4.8,0.6-6.9-4.7-8.5-9.8
			c-1-3.4-1.9-6.8-2.6-10.3c0.1,0,2.8,6.8,7.9,8.6c1.2,0.4,2.4,1,3.4,1.7c-0.1-2-0.2-3.9-0.3-5.8c0-0.5-0.1-0.9-0.1-1.4
			c-4.4,1.2-7.1-3.5-9.1-8c-1.3-3-2.5-6.2-3.6-9.3c0.1,0,3.4,6,8.3,7.1c1.1,0.2,2.3,0.6,3.3,1.2c-0.4-2.6-0.9-5.1-1.5-7.6
			c-3.8,1.6-6.8-2.4-9.2-6.3c-1.6-2.7-3-5.6-4.3-8.4c0,0,3.8,5.3,8.4,5.7c1,0,2,0.2,2.9,0.6c-0.8-2.6-1.6-5.3-2.5-7.9
			c-3.2,1.7-6.4-1.6-8.9-5c-1.8-2.5-3.4-5-4.9-7.7c0,0,4.1,4.8,8.4,4.5c0.8-0.1,1.6,0,2.4,0.1c-1.1-2.5-2.2-5.1-3.4-7.7l-0.2-0.5
			c-2.7,1.7-5.8-1-8.5-4c-2-2.3-3.8-4.7-5.6-7.1c0.1,0,4.4,4.4,8.2,3.6c0.8-0.2,1.6-0.2,2.4-0.1c-2.7-5.7-5.7-11.2-9-16.5
			c3.7,5.5,7.1,10.9,10,16.3c0.3-1,0.8-1.9,1.4-2.7c1.2-1.7,1.3-4.3,0.8-6.6c-0.3-1.4-0.7-2.8-1.2-4.2c2,3.2,3.6,6.6,4.7,10.2
			c1.5,5.1,1.5,9.8-2,10.4c1.4,2.8,2.7,5.6,3.8,8.4c0.5-0.8,1.1-1.5,1.7-2.1c1.6-1.5,2-4.2,1.9-6.5c-0.1-1.4-0.3-2.9-0.7-4.3
			c1.6,3.4,2.8,7.1,3.5,10.8c0.9,5.1,0.2,9.9-3.3,10.3c0.9,2.6,1.7,5.1,2.5,7.7c0.6-0.6,1.3-1.2,2-1.7c3.8-2.5,3.1-10.2,2.9-10.7
			c1.2,3.7,1.9,7.5,2.2,11.4c0.2,5.3-1.1,10.1-4.8,10.1v0.1c0.5,2.4,1,4.7,1.3,7.1c0.7-0.6,1.5-1.1,2.3-1.4c4.4-2.1,4.6-10,4.5-10.6
			c0.8,4,1.1,8,0.8,12.1c-0.5,5.5-2.5,10.4-6.4,9.9c0.2,2.2,0.3,4.4,0.4,6.7c0.8-0.5,1.7-0.9,2.7-1.2c4.8-1.5,6.1-9.4,6.2-10.4
			c0.3,4.2,0,8.5-0.8,12.7c-1.2,5.7-4.2,10.7-8.2,9.4c-0.1,2-0.3,4.1-0.5,6.1c1-0.5,2-0.8,3.1-1c5.3-0.9,7.8-9.2,8-10
			c-0.3,4.5-1.1,9-2.6,13.2c-2.1,5.9-6.1,10.9-10.1,8.7c-0.4,1.9-0.8,3.7-1.3,5.6c1.2-0.4,2.4-0.6,3.6-0.6c5.8-0.1,9.7-8.9,9.9-9.5
			c-0.9,4.8-2.6,9.4-4.8,13.7c-3.2,6.1-8.2,10.8-12.2,7.6c-0.6,1.6-1.3,3.3-2,4.9c1.3-0.3,2.7-0.3,4.1-0.2
			c6.1,0.7,11.8-8.3,11.8-8.6c-1.7,4.9-4.2,9.5-7.3,13.7c-4.4,6-10.6,10.3-14.2,6.1c-0.8,1.3-1.6,2.7-2.5,4c1.4-0.1,2.7,0,4.1,0.4
			c6.1,1.6,13.3-6.9,13.2-6.9c-2.5,4.7-5.7,9-9.6,12.7c-5.4,5.4-12.4,8.7-15.3,4c-1,1.2-2.1,2.4-3.2,3.6c1.4,0.1,2.7,0.5,4,1
			c5.6,2.3,13.7-4.1,14.4-4.9c-3.3,4.3-7.3,8-11.7,11.1c-6.5,4.5-14.1,6.6-16.2,1.6c-1.3,1-2.6,2-4,3c1.4,0.3,2.7,0.9,3.9,1.6
			c5.2,3.1,14.5-2,15.4-2.6c-4.2,3.7-8.8,6.8-13.9,9.1c-7.4,3.4-15.5,4.1-16.8-1c-1.5,0.8-3,1.6-4.6,2.3c1.3,0.5,2.6,1.3,3.7,2.2
			c4.8,3.9,15,0.5,16.2,0c-4.9,3-10.2,5.2-15.8,6.6c-8.2,2-16.6,1.3-17-3.9c-9.6,2.8-19.5,4-29.5,3.5L166.6,242.9L166.6,242.9z"/>
		<path d="M200.9,219.2c0.3-0.3,0.4-0.7,0.4-1.2c0-0.1,0-0.2,0-0.5c0-0.2,0-0.4,0-0.5c0-0.4-0.1-0.8-0.4-1.2c-0.3-0.3-0.6-0.4-1-0.4
			c-0.4,0-0.7,0.1-1,0.4c-0.3,0.3-0.4,0.7-0.4,1.2v0.9c0,0.4,0.1,0.8,0.4,1.2c0.3,0.3,0.6,0.4,1,0.4
			C200.3,219.6,200.6,219.5,200.9,219.2z M197.7,220.1c-0.5-0.5-0.8-1.2-0.8-2V217c0-0.8,0.3-1.5,0.8-2c1.3-1,3-1,4.3,0
			c0.5,0.5,0.8,1.2,0.8,2c0,0.1,0,0.3,0,0.5s0,0.4,0,0.5c0,0.8-0.3,1.5-0.8,2C200.8,221,199,221,197.7,220.1L197.7,220.1z
			 M190.9,220.1c-0.5-0.5-0.8-1.2-0.8-2v-1c0-0.8,0.3-1.5,0.8-2c0.6-0.5,1.3-0.8,2.1-0.7c0.6,0,1.1,0.1,1.6,0.3
			c0.4,0.2,0.7,0.5,1,0.8c0.2,0.3,0.3,0.6,0.3,0.9c0,0.1,0,0.2-0.1,0.2c-0.1,0.1-0.1,0.1-0.2,0.1h-1.1c-0.1,0-0.1,0-0.2-0.1
			c-0.1-0.1-0.1-0.1-0.1-0.2c-0.1-0.3-0.3-0.5-0.5-0.7c-0.2-0.1-0.5-0.2-0.8-0.2c-0.4,0-0.7,0.1-1,0.4c-0.3,0.3-0.4,0.8-0.4,1.2v0.8
			c0,1,0.5,1.6,1.3,1.6c0.3,0,0.5-0.1,0.8-0.2c0.2-0.2,0.4-0.4,0.5-0.7c0-0.1,0.1-0.1,0.1-0.2c0.1,0,0.1-0.1,0.2-0.1h1.1
			c0.1,0,0.2,0,0.2,0.1c0.1,0,0.1,0.1,0.1,0.2c0,0.3-0.2,0.6-0.3,0.9c-0.3,0.4-0.6,0.6-1,0.8c-0.5,0.2-1.1,0.4-1.6,0.4
			C192.2,220.8,191.4,220.6,190.9,220.1L190.9,220.1z M187.2,220.6c-0.1-0.1-0.1-0.1-0.1-0.2v-1.2c0-0.2,0.1-0.3,0.3-0.3h1.2
			c0.2,0,0.3,0.1,0.3,0.3v1.2c0,0.1,0,0.1-0.1,0.2c-0.1,0.1-0.1,0.1-0.2,0.1h-1.2C187.3,220.7,187.3,220.6,187.2,220.6L187.2,220.6z
			 M181.6,220.5c-0.3-0.1-0.7-0.4-0.9-0.6c-0.2-0.2-0.3-0.4-0.3-0.6c0-0.1,0-0.1,0.1-0.2c0.1,0,0.1-0.1,0.2-0.1h1
			c0.1,0,0.1,0,0.2,0.1l0.3,0.2c0.1,0.1,0.3,0.2,0.5,0.3c0.2,0.1,0.4,0.1,0.6,0.1c0.3,0,0.5-0.1,0.8-0.2c0.2-0.1,0.3-0.3,0.3-0.5
			c0-0.1,0-0.3-0.1-0.4c-0.1-0.1-0.3-0.2-0.5-0.3c-0.3-0.1-0.7-0.2-1.1-0.3c-0.6-0.1-1.1-0.3-1.5-0.7c-0.3-0.3-0.5-0.7-0.5-1.2
			c0-0.3,0.1-0.6,0.3-0.9c0.2-0.3,0.5-0.5,0.9-0.7c0.4-0.2,0.9-0.3,1.4-0.3c0.5,0,1,0.1,1.4,0.3c0.3,0.1,0.6,0.3,0.9,0.6
			c0.2,0.2,0.3,0.4,0.3,0.6c0,0.1-0.1,0.3-0.3,0.3h-0.9c-0.1,0-0.2,0-0.2-0.1l-0.3-0.2c-0.1-0.1-0.3-0.2-0.4-0.3
			c-0.2-0.1-0.4-0.1-0.6-0.1c-0.2,0-0.5,0.1-0.7,0.2c-0.2,0.1-0.2,0.3-0.2,0.5c0,0.1,0,0.3,0.1,0.4c0.1,0.1,0.3,0.2,0.5,0.3
			c0.3,0.1,0.7,0.2,1,0.3c1.4,0.3,2.2,0.9,2.2,1.9c0,0.6-0.3,1.1-0.7,1.4c-0.6,0.4-1.3,0.6-2.1,0.5
			C182.6,220.8,182.1,220.7,181.6,220.5L181.6,220.5z M170,220.6c-0.1-0.1-0.1-0.1-0.1-0.2v-5.7c0-0.1,0-0.2,0.1-0.2
			c0.1-0.1,0.1-0.1,0.2-0.1h0.9c0.1,0,0.3,0.1,0.3,0.2c0,0,0,0,0,0v0.4c0.4-0.5,1.1-0.8,1.7-0.8c0.8-0.1,1.5,0.4,1.9,1.1
			c0.2-0.3,0.5-0.6,0.8-0.8c0.3-0.2,0.7-0.3,1.1-0.3c0.6,0,1.2,0.2,1.6,0.7c0.5,0.6,0.7,1.3,0.6,2v3.4c0,0.1,0,0.1-0.1,0.2
			c-0.1,0.1-0.1,0.1-0.2,0.1h-1c-0.2,0-0.3-0.1-0.3-0.3V217c0-0.4-0.1-0.8-0.3-1.1c-0.2-0.2-0.5-0.3-0.8-0.3c-0.3,0-0.6,0.1-0.8,0.3
			c-0.2,0.3-0.4,0.7-0.3,1.1v3.4c0,0.1,0,0.1-0.1,0.2c-0.1,0.1-0.1,0.1-0.2,0.1h-1c-0.2,0-0.3-0.1-0.3-0.3V217
			c0-0.4-0.1-0.8-0.3-1.1c-0.2-0.2-0.5-0.4-0.8-0.3c-0.3,0-0.6,0.1-0.8,0.3c-0.2,0.3-0.4,0.7-0.3,1.1v3.4c0,0.1,0,0.1-0.1,0.2
			c-0.1,0.1-0.1,0.1-0.2,0.1h-1C170.2,220.7,170.1,220.6,170,220.6L170,220.6z M165,220.6c-0.1-0.1-0.1-0.1-0.1-0.2v-5.6
			c0-0.1,0-0.2,0.1-0.2c0.1-0.1,0.1-0.1,0.2-0.1h1c0.2,0,0.3,0.1,0.3,0.3c0,0,0,0,0,0v0.5c0.4-0.5,1.1-0.8,1.7-0.8h0.5
			c0.1,0,0.3,0.1,0.3,0.2c0,0,0,0,0,0v0.9c0,0.1,0,0.1-0.1,0.2c-0.1,0.1-0.1,0.1-0.2,0.1h-0.9c-0.6-0.1-1.2,0.4-1.2,1
			c0,0.1,0,0.1,0,0.2v3.3c0,0.2-0.1,0.3-0.3,0.3h-1.1C165.2,220.7,165.1,220.7,165,220.6L165,220.6z M158.3,220.6
			c-0.1-0.1-0.1-0.1-0.1-0.2v-4.7h-1c-0.2,0-0.3-0.1-0.3-0.3v-0.7c0-0.2,0.1-0.3,0.3-0.3h1V214c0-0.6,0.2-1.2,0.6-1.6
			c0.5-0.4,1.1-0.6,1.8-0.5h2.5c0.1,0,0.3,0.1,0.3,0.2c0,0,0,0,0,0v0.7c0,0.2-0.1,0.3-0.3,0.3h-2.4c-0.2,0-0.5,0.1-0.7,0.2
			c-0.1,0.2-0.2,0.5-0.2,0.7v0.4h3.3c0.1,0,0.3,0.1,0.3,0.2c0,0,0,0,0,0v5.7c0,0.1,0,0.1-0.1,0.2c-0.1,0.1-0.1,0.1-0.2,0.1h-1
			c-0.2,0-0.3-0.1-0.3-0.3v-4.7h-2v4.7c0,0.1,0,0.1-0.1,0.2c-0.1,0.1-0.1,0.1-0.2,0.1h-1C158.4,220.7,158.4,220.7,158.3,220.6
			L158.3,220.6z M154,219.1c0.2-0.3,0.4-0.7,0.4-1.1c0-0.1,0-0.2,0-0.5c0-0.2,0-0.4,0-0.5c0-0.4-0.1-0.7-0.4-1
			c-0.3-0.3-0.6-0.4-1-0.4c-0.9,0-1.3,0.5-1.4,1.6v0.7c0.1,1.1,0.5,1.6,1.4,1.6C153.4,219.5,153.8,219.4,154,219.1z M150.7,220.1
			c-0.5-0.6-0.7-1.3-0.7-2.1v-0.8c0-0.7,0.2-1.5,0.7-2.1c1-1,2.6-1.1,3.6-0.1c0,0,0,0,0.1,0.1v-2.7c0-0.1,0-0.2,0.1-0.2
			c0.1-0.1,0.1-0.1,0.2-0.1h1c0.1,0,0.3,0.1,0.3,0.2c0,0,0,0,0,0v7.9c0,0.1,0,0.1-0.1,0.2c-0.1,0.1-0.1,0.1-0.2,0.1h-1
			c-0.2,0-0.3-0.1-0.3-0.3V220C153.4,221,151.8,221.1,150.7,220.1C150.7,220.1,150.6,220.1,150.7,220.1L150.7,220.1z M146.8,219.2
			c0.3-0.3,0.4-0.7,0.4-1.2c0-0.1,0-0.2,0-0.5s0-0.4,0-0.5c0-0.4-0.1-0.8-0.4-1.2c-0.3-0.3-0.6-0.4-1-0.4c-0.4,0-0.7,0.1-1,0.4
			c-0.3,0.3-0.4,0.7-0.4,1.2v0.9c0,0.4,0.1,0.8,0.4,1.2c0.3,0.3,0.6,0.4,1,0.4C146.2,219.6,146.6,219.4,146.8,219.2L146.8,219.2z
			 M143.7,220.1c-0.5-0.5-0.8-1.2-0.8-2V217c0-0.8,0.3-1.5,0.8-2c1.3-1,3-1,4.3,0c0.5,0.5,0.8,1.2,0.8,2c0,0.1,0,0.3,0,0.5
			s0,0.4,0,0.5c0,0.8-0.3,1.5-0.8,2C146.7,221,145,221,143.7,220.1L143.7,220.1z M139.7,219.2c0.3-0.3,0.4-0.7,0.4-1.2
			c0-0.1,0-0.2,0-0.5s0-0.4,0-0.5c0-0.4-0.1-0.8-0.4-1.2c-0.3-0.3-0.6-0.4-1-0.4c-0.4,0-0.7,0.1-1,0.4c-0.3,0.3-0.4,0.7-0.4,1.2v0.9
			c0,0.4,0.1,0.8,0.4,1.2c0.3,0.3,0.6,0.4,1,0.4C139.1,219.6,139.4,219.5,139.7,219.2L139.7,219.2z M136.5,220.1
			c-0.5-0.5-0.8-1.2-0.8-2V217c0-0.8,0.3-1.5,0.8-2c1.3-1,3-1,4.3,0c0.5,0.5,0.8,1.2,0.8,2c0,0.1,0,0.3,0,0.5s0,0.4,0,0.5
			c0,0.8-0.3,1.5-0.8,2C139.6,221,137.8,221,136.5,220.1L136.5,220.1z M132.3,219c0.2-0.3,0.4-0.7,0.4-1.1c0-0.1,0-0.2,0-0.4
			c0-0.2,0-0.3,0-0.4c0-0.4-0.1-0.8-0.4-1.1c-0.2-0.3-0.6-0.5-1-0.4c-0.9,0-1.3,0.5-1.4,1.6v0.3c0,1.2,0.5,1.9,1.4,1.9
			C131.7,219.4,132.1,219.2,132.3,219L132.3,219z M129.6,223c-0.4-0.2-0.7-0.5-0.9-0.8c-0.2-0.2-0.3-0.5-0.3-0.8
			c0-0.1,0-0.1,0.1-0.2c0.1-0.1,0.1-0.1,0.2-0.1h1.1c0.1,0,0.1,0,0.2,0.1c0.1,0.1,0.1,0.1,0.1,0.2c0.1,0.2,0.2,0.4,0.4,0.5
			c0.2,0.2,0.5,0.2,0.8,0.2c0.7,0.1,1.3-0.3,1.4-1c0-0.2,0-0.3,0-0.5v-0.8c-0.5,0.5-1.1,0.8-1.8,0.8c-0.7,0.1-1.4-0.2-1.9-0.8
			c-0.5-0.6-0.7-1.3-0.7-2.1v-0.6c0-0.7,0.2-1.5,0.7-2.1c0.5-0.5,1.2-0.8,1.9-0.8c0.4,0,0.8,0.1,1.1,0.2c0.3,0.2,0.6,0.4,0.8,0.6
			v-0.5c0-0.1,0-0.2,0.1-0.2c0.1-0.1,0.1-0.1,0.2-0.1h1c0.1,0,0.1,0,0.2,0.1c0.1,0.1,0.1,0.1,0.1,0.2v5.8c0,0.8-0.2,1.5-0.7,2.1
			c-0.6,0.5-1.4,0.8-2.2,0.7C130.8,223.3,130.2,223.2,129.6,223L129.6,223z"/>
		<path class="st13" d="M323.6,165.4h-36.4V221h36.4l-11.7-26.1L323.6,165.4z M0,165.4h36.4V221H0l11.7-26.1L0,165.4z"/>
		<path class="st14" d="M305.6,146.3l-18.4,19v55.6l18.4-18.3V146.3z M18.4,146.3l18.5,19.8V221l-18.5-18.5L18.4,146.3z"/>
		<polygon class="st1" points="18,202.4 305.6,202.4 305.6,146.1 18,146.1 		"/>
		<path class="st11" d="M165.3,243.7c9.9,0.4,19.8-0.7,29.3-3.5c-3.4-4.4,2.2-8.8,7.6-13c5.6-4.2,11.3-8.4,11.3-8.4s-6.6,6.8-6,12.7
			c0.2,1.3,0.2,2.7-0.1,4c1.5-0.7,3.1-1.4,4.6-2.2c-4-3.8,0.5-9.2,4.8-14.3c4.6-5.2,9.2-10.3,9.2-10.3s-5.1,7.9-3.4,13.7
			c0.4,1.3,0.7,2.6,0.6,4c1.3-1,2.6-2,3.9-3c-4.5-3.1-1.2-9.3,2-15.1c3.4-5.9,6.9-11.6,6.9-11.6s-3.4,8.6-0.7,14.1
			c0.7,1.2,1.1,2.5,1.3,3.9c1.1-1.2,2.2-2.4,3.2-3.6c-4.8-2.4-2.9-9.1-0.9-15.3c2.2-6.4,4.7-12.3,4.6-12.4s-1.8,8.9,1.8,14
			c0.9,1.1,1.5,2.3,2,3.7c0.9-1.3,1.7-2.7,2.5-4c-5.1-1.8-4.4-8.6-3.5-15c1.1-6.6,2.4-12.7,2.4-12.8s-0.3,9,4.1,13.5
			c1,1,1.9,2.1,2.6,3.4c0.4-0.9,0.8-1.8,1.2-2.8c0.3-0.7,0.6-1.4,0.8-2.1c-5.1-1-5.6-7.4-5.7-13.5c0-6.2,0.4-12.1,0.4-12.2
			s1,8.4,5.8,12c1.1,0.8,2.1,1.7,2.9,2.8c0.5-1.9,1-3.9,1.4-5.8c-5.1-0.1-6.4-6.1-7.4-11.7s-1.3-11.2-1.3-11.3s2.1,7.6,7.1,10.3
			c1.2,0.6,2.3,1.4,3.2,2.3c0.2-2.2,0.4-4.4,0.5-6.6c-4.9,0.6-6.9-4.7-8.6-9.9c-1-3.4-1.9-6.8-2.6-10.3c0.1,0,2.8,6.8,7.9,8.7
			c1.2,0.4,2.4,1,3.4,1.8c-0.1-2-0.2-3.9-0.3-5.9c0-0.5-0.1-0.9-0.1-1.4c-4.4,1.2-7.1-3.5-9.2-8c-1.4-3.1-2.5-6.2-3.6-9.3
			c0.1,0,3.4,6,8.4,7.1c1.2,0.2,2.3,0.6,3.3,1.2c-0.4-2.6-0.9-5.1-1.5-7.7c-3.9,1.6-6.9-2.4-9.3-6.4c-1.6-2.7-3.1-5.6-4.4-8.5
			c0,0,3.8,5.4,8.5,5.7c1,0,2,0.2,3,0.6c-0.8-2.7-1.6-5.3-2.5-7.9c-3.3,1.7-6.4-1.6-9-5c-1.8-2.5-3.5-5.1-5-7.7c0,0,4.1,4.8,8.4,4.5
			c0.8-0.1,1.6,0,2.4,0.1c-1.1-2.6-2.2-5.1-3.4-7.7l-0.2-0.5c-2.7,1.7-5.9-1-8.5-4c-2-2.3-3.9-4.6-5.6-7.1c0.1,0,4.4,4.4,8.3,3.6
			c0.8-0.2,1.6-0.2,2.5-0.1c-2.7-5.7-5.7-11.2-9-16.6c3.8,5.5,7.1,10.9,10.1,16.3c0.3-1,0.8-1.9,1.5-2.7c1.2-1.7,1.3-4.3,0.8-6.6
			c-0.3-1.4-0.7-2.8-1.3-4.2c2,3.2,3.6,6.7,4.8,10.3c1.5,5.1,1.5,9.9-2,10.5c1.4,2.8,2.7,5.6,3.9,8.4c0.5-0.8,1.1-1.5,1.8-2.1
			c1.6-1.5,2-4.2,1.9-6.6c-0.1-1.5-0.3-2.9-0.7-4.3c1.6,3.4,2.8,7.1,3.5,10.8c0.9,5.1,0.2,9.9-3.4,10.3c0.9,2.6,1.7,5.2,2.5,7.7
			c0.6-0.7,1.3-1.2,2-1.7c3.9-2.5,3.1-10.2,3-10.8c1.2,3.7,2,7.5,2.2,11.4c0.2,5.3-1.1,10.1-4.8,10.2v0.1c0.5,2.4,1,4.7,1.3,7.1
			c0.7-0.6,1.5-1.1,2.3-1.5c4.4-2.1,4.7-10.1,4.6-10.7c0.8,4,1.1,8,0.8,12.1c-0.5,5.5-2.5,10.4-6.5,9.9c0.2,2.2,0.3,4.4,0.4,6.7
			c0.8-0.5,1.7-0.9,2.7-1.2c4.8-1.5,6.2-9.4,6.3-10.4c0.3,4.3,0,8.5-0.8,12.7c-1.2,5.7-4.2,10.7-8.3,9.5c-0.1,2-0.3,4.1-0.5,6.1
			c1-0.5,2.1-0.8,3.1-1c5.3-0.9,7.9-9.3,8-10.1c-0.3,4.5-1.2,9-2.7,13.3c-2.1,5.9-6.1,10.9-10.2,8.7c-0.4,1.9-0.8,3.7-1.3,5.6
			c1.2-0.4,2.4-0.6,3.6-0.6c5.8-0.2,9.8-9,9.9-9.5c-1,4.8-2.6,9.4-4.9,13.7c-3.2,6.1-8.3,10.9-12.3,7.6c-0.6,1.6-1.3,3.3-2,4.9
			c1.3-0.3,2.7-0.3,4.1-0.2c6.2,0.7,11.9-8.3,11.9-8.6c-1.7,4.9-4.2,9.6-7.3,13.8c-4.4,6-10.7,10.3-14.3,6.1c-0.8,1.3-1.6,2.7-2.5,4
			c1.4-0.1,2.8,0,4.1,0.4c6.2,1.6,13.4-6.9,13.3-7c-2.5,4.7-5.8,9-9.6,12.7c-5.5,5.4-12.5,8.8-15.4,4c-1.1,1.2-2.1,2.4-3.3,3.6
			c1.4,0.1,2.8,0.5,4.1,1c5.6,2.3,13.8-4.2,14.5-4.9c-3.4,4.3-7.4,8.1-11.9,11.3c-6.6,4.5-14.2,6.6-16.3,1.6c-1.3,1-2.7,2.1-4,3.1
			c1.4,0.3,2.8,0.9,4,1.6c5.3,3.1,14.6-2,15.6-2.6c-4.2,3.7-8.9,6.8-14,9.1c-7.5,3.4-15.7,4.1-16.9-1c-1.5,0.8-3.1,1.6-4.6,2.3
			c1.3,0.5,2.6,1.3,3.7,2.2c4.8,3.9,15.2,0.5,16.3,0c-5,3-10.3,5.2-15.9,6.6c-8.3,2-16.7,1.3-17.1-3.9c-9.6,2.8-19.7,4-29.7,3.5
			L165.3,243.7z"/>
		<path class="st15" d="M163.6,17l5.9,11.9l13.2,1.9l-9.5,9.3l2.2,13.1L163.6,47l-11.8,6.2l2.2-13.1l-9.5-9.3l13.2-1.9L163.6,17z"/>
		<polygon class="st7" points="127,40.2 123.5,33.1 120,40.2 112.1,41.4 117.8,46.9 116.4,54.8 123.5,51.1 130.6,54.8 129.2,46.9 
			134.9,41.4 		"/>
		<polygon class="st7" points="215.2,41.4 207.2,40.2 203.7,33.1 200.2,40.2 192.3,41.4 198,46.9 196.6,54.8 203.7,51.1 210.8,54.8 
			209.4,46.9 		"/>
		<polygon class="st4" points="107.4,58.9 105.2,54.6 103.1,58.9 98.4,59.6 101.8,62.9 101,67.7 105.2,65.4 109.5,67.7 108.7,62.9 
			112.1,59.6 		"/>
		<polygon class="st4" points="228.8,59.6 224.1,58.9 222,54.6 219.9,58.9 215.1,59.6 218.5,62.9 217.7,67.7 222,65.4 226.2,67.7 
			225.4,62.9 		"/>
		<g class="st16">
			<path class="st0" d="M46.4,180.3v-9.9h-3.5v-2.1h9.5v2.1h-3.5v9.9H46.4z"/>
		</g>
		<g class="st16">
			<path class="st0" d="M64.3,174.3c0,3.8-2.2,6.2-5.8,6.2c-3.6,0-5.8-2.4-5.8-6.2c0-3.8,2.2-6.2,5.8-6.2
				C62.1,168.1,64.3,170.5,64.3,174.3z M55.3,174.3c0,2.5,1.3,4.1,3.2,4.1c2,0,3.2-1.6,3.2-4.1c0-2.5-1.3-4.1-3.2-4.1
				S55.3,171.8,55.3,174.3z"/>
			<path class="st0" d="M70.9,168.3c2.5,0,4.2,1.6,4.2,4.1c0,2.5-1.8,4.1-4.3,4.1h-2.4v3.8h-2.5v-12H70.9z M68.4,174.5h1.8
				c1.4,0,2.3-0.8,2.3-2.1c0-1.4-0.8-2.1-2.3-2.1h-1.8V174.5z"/>
			<path class="st0" d="M80.2,180.3v-12h5.3c2.2,0,3.7,1.2,3.7,3c0,1.3-1,2.4-2.2,2.6v0.1c1.6,0.1,2.8,1.3,2.8,2.9
				c0,2.1-1.6,3.4-4.1,3.4H80.2z M82.7,173.3h1.9c1.3,0,2.1-0.6,2.1-1.6c0-1-0.7-1.5-1.8-1.5h-2.1V173.3z M85,178.4
				c1.4,0,2.2-0.6,2.2-1.8c0-1.1-0.8-1.7-2.3-1.7h-2.2v3.5H85z"/>
		</g>
		<g class="st16">
			<path class="st0" d="M98.9,180.3h-7.7v-12h2.5v9.9h5.2V180.3z"/>
		</g>
		<g class="st16">
			<path class="st0" d="M111.1,174.3c0,3.8-2.2,6.2-5.8,6.2c-3.6,0-5.8-2.4-5.8-6.2c0-3.8,2.2-6.2,5.8-6.2
				C108.8,168.1,111.1,170.5,111.1,174.3z M102.1,174.3c0,2.5,1.3,4.1,3.2,4.1c2,0,3.2-1.6,3.2-4.1c0-2.5-1.3-4.1-3.2-4.1
				S102.1,171.8,102.1,174.3z"/>
			<path class="st0" d="M112.3,174.3c0-3.9,2.2-6.2,5.7-6.2c2.9,0,5.1,1.8,5.3,4.5h-2.4c-0.2-1.5-1.4-2.4-2.8-2.4
				c-1.9,0-3.1,1.6-3.1,4.1c0,2.6,1.2,4.1,3.1,4.1c1.5,0,2.6-0.9,2.8-2.3h2.4c-0.3,2.7-2.3,4.4-5.3,4.4
				C114.5,180.5,112.3,178.1,112.3,174.3z"/>
		</g>
		<g class="st16">
			<path class="st0" d="M124.8,180.3v-12h2.5v5.5h0.1l4.5-5.5h2.8l-4.4,5.3l4.7,6.7h-3l-3.6-5l-1.1,1.3v3.7H124.8z"/>
		</g>
		<g class="st16">
			<path class="st0" d="M135.2,174.3c0-3.9,2.2-6.2,5.7-6.2c2.9,0,5.1,1.8,5.3,4.5h-2.4c-0.2-1.5-1.4-2.4-2.8-2.4
				c-1.9,0-3.1,1.6-3.1,4.1c0,2.6,1.2,4.1,3.1,4.1c1.5,0,2.6-0.9,2.8-2.3h2.4c-0.3,2.7-2.3,4.4-5.3,4.4
				C137.3,180.5,135.2,178.1,135.2,174.3z"/>
			<path class="st0" d="M155.5,180.3v-5h-5.4v5h-2.5v-12h2.5v4.9h5.4v-4.9h2.5v12H155.5z"/>
			<path class="st0" d="M167,177.4h-4.2l-0.9,2.9h-2.6l4.2-12h2.9l4.2,12h-2.7L167,177.4z M163.3,175.5h3.1l-1.5-4.9h-0.1
				L163.3,175.5z"/>
			<path class="st0" d="M171.8,180.3v-12h2.5v12H171.8z"/>
			<path class="st0" d="M176.3,180.3v-12h2.1l5.6,7.8h0.1v-7.8h2.4v12h-2.1l-5.6-7.8h-0.1v7.8H176.3z"/>
			<path class="st0" d="M197.1,168.3c2.5,0,4.2,1.6,4.2,4.1c0,2.5-1.8,4.1-4.3,4.1h-2.4v3.8h-2.5v-12H197.1z M194.6,174.5h1.8
				c1.4,0,2.3-0.8,2.3-2.1c0-1.4-0.8-2.1-2.3-2.1h-1.8V174.5z"/>
			<path class="st0" d="M210.4,180.3h-7.7v-12h2.5v9.9h5.2V180.3z"/>
		</g>
		<g class="st16">
			<path class="st0" d="M218.8,177.4h-4.2l-0.9,2.9h-2.6l4.2-12h2.9l4.2,12h-2.7L218.8,177.4z M215.2,175.5h3.1l-1.5-4.9h-0.1
				L215.2,175.5z"/>
		</g>
		<g class="st16">
			<path class="st0" d="M224.9,180.3v-9.9h-3.5v-2.1h9.5v2.1h-3.5v9.9H224.9z"/>
			<path class="st0" d="M232.3,180.3v-12h7.8v2.1h-5.3v3.2h4.9v2h-4.9v4.7H232.3z"/>
			<path class="st0" d="M252.8,174.3c0,3.8-2.2,6.2-5.8,6.2c-3.6,0-5.8-2.4-5.8-6.2c0-3.8,2.2-6.2,5.8-6.2
				C250.6,168.1,252.8,170.5,252.8,174.3z M243.8,174.3c0,2.5,1.3,4.1,3.2,4.1c2,0,3.2-1.6,3.2-4.1c0-2.5-1.3-4.1-3.2-4.1
				S243.8,171.8,243.8,174.3z"/>
			<path class="st0" d="M257,180.3h-2.5v-12h4.9c2.8,0,4.3,1.5,4.3,3.8c0,1.5-0.8,2.9-2.2,3.4l2.5,4.8h-2.8l-2.2-4.4H257V180.3z
				 M257,174.1h2.2c1.3,0,2-0.7,2-1.9c0-1.2-0.8-1.9-2-1.9H257V174.1z"/>
			<path class="st0" d="M278.1,180.3h-2.2v-8.1h-0.1l-3.3,8h-1.6l-3.3-8h-0.1v8.1h-2.2v-12h2.9l3.4,8.5h0.1l3.4-8.5h2.9V180.3z"/>
		</g>
	</g>
</g>
</svg>
