<svg xmlns="http://www.w3.org/2000/svg" xmlns:xlink="http://www.w3.org/1999/xlink" xmlns:lucid="lucid" width="1620" height="360"><g transform="translate(240 20)" lucid:page-tab-id="0cy59~n1.cMb"><path d="M160 160c0 22.1-17.9 40-40 40s-40-17.9-40-40 17.9-40 40-40 40 17.9 40 40zM380 160c0 22.1-17.9 40-40 40s-40-17.9-40-40 17.9-40 40-40 40 17.9 40 40z" stroke="#000" stroke-opacity="0" stroke-width="2" fill="#d56c3a"/><path d="M162.5 160h135" fill="none"/><path d="M165 160c0 1.38-1.12 2.5-2.5 2.5s-2.5-1.12-2.5-2.5 1.12-2.5 2.5-2.5 2.5 1.12 2.5 2.5zm10.4 0c0 1.38-1.13 2.5-2.5 2.5-1.4 0-2.5-1.12-2.5-2.5s1.1-2.5 2.5-2.5c1.37 0 2.5 1.12 2.5 2.5zm10.37 0c0 1.38-1.12 2.5-2.5 2.5s-2.5-1.12-2.5-2.5 1.12-2.5 2.5-2.5 2.5 1.12 2.5 2.5zm10.4 0c0 1.38-1.13 2.5-2.5 2.5-1.4 0-2.5-1.12-2.5-2.5s1.1-2.5 2.5-2.5c1.37 0 2.5 1.12 2.5 2.5zm10.37 0c0 1.38-1.12 2.5-2.5 2.5s-2.5-1.12-2.5-2.5 1.12-2.5 2.5-2.5 2.5 1.12 2.5 2.5zm10.38 0c0 1.38-1.1 2.5-2.5 2.5-1.38 0-2.5-1.12-2.5-2.5s1.12-2.5 2.5-2.5c1.4 0 2.5 1.12 2.5 2.5zm10.4 0c0 1.38-1.13 2.5-2.5 2.5-1.4 0-2.5-1.12-2.5-2.5s1.1-2.5 2.5-2.5c1.37 0 2.5 1.12 2.5 2.5zm10.37 0c0 1.38-1.13 2.5-2.5 2.5-1.4 0-2.5-1.12-2.5-2.5s1.1-2.5 2.5-2.5c1.37 0 2.5 1.12 2.5 2.5zm10.38 0c0 1.38-1.12 2.5-2.5 2.5s-2.5-1.12-2.5-2.5 1.12-2.5 2.5-2.5 2.5 1.12 2.5 2.5zm10.38 0c0 1.38-1.12 2.5-2.5 2.5s-2.5-1.12-2.5-2.5 1.12-2.5 2.5-2.5 2.5 1.12 2.5 2.5zm10.4 0c0 1.38-1.13 2.5-2.5 2.5-1.4 0-2.5-1.12-2.5-2.5s1.1-2.5 2.5-2.5c1.37 0 2.5 1.12 2.5 2.5zm10.37 0c0 1.38-1.12 2.5-2.5 2.5s-2.5-1.12-2.5-2.5 1.12-2.5 2.5-2.5 2.5 1.12 2.5 2.5zm10.4 0c0 1.38-1.13 2.5-2.5 2.5-1.4 0-2.5-1.12-2.5-2.5s1.1-2.5 2.5-2.5c1.37 0 2.5 1.12 2.5 2.5z" fill="#d56c3a"/><path d="M162.57 162.5h-2.73l.16-2.5-.1-2.5h2.67zM300 160l.1 2.5h-2.66v-5h2.72z" fill="#d56c3a"/><path d="M-220 120H60v80h-280z" stroke="#000" stroke-opacity="0" stroke-width="2" fill="#fff" fill-opacity="0"/><use xlink:href="#a" transform="matrix(1,0,0,1,-215,125) translate(15.546875 28.989583333333332)"/><use xlink:href="#b" transform="matrix(1,0,0,1,-215,125) translate(55.8984375 28.989583333333332)"/><use xlink:href="#c" transform="matrix(1,0,0,1,-215,125) translate(123.73697916666667 28.989583333333332)"/><use xlink:href="#d" transform="matrix(1,0,0,1,-215,125) translate(140.71614583333334 28.989583333333332)"/><use xlink:href="#e" transform="matrix(1,0,0,1,-215,125) translate(239.15364583333334 28.989583333333332)"/><use xlink:href="#f" transform="matrix(1,0,0,1,-215,125) translate(14.407552083333329 60.239583333333336)"/><use xlink:href="#g" transform="matrix(1,0,0,1,-215,125) translate(90.59244791666667 60.239583333333336)"/><path d="M200 0h280v80H200z" stroke="#000" stroke-opacity="0" stroke-width="2" fill="#fff" fill-opacity="0"/><use xlink:href="#h" transform="matrix(1,0,0,1,205,5) translate(10.904947916666657 28.989583333333332)"/><use xlink:href="#b" transform="matrix(1,0,0,1,205,5) translate(51.25651041666666 28.989583333333332)"/><use xlink:href="#c" transform="matrix(1,0,0,1,205,5) translate(119.09505208333333 28.989583333333332)"/><use xlink:href="#i" transform="matrix(1,0,0,1,205,5) translate(136.07421875 28.989583333333332)"/><use xlink:href="#j" transform="matrix(1,0,0,1,205,5) translate(72.91015625 60.239583333333336)"/><path d="M600 160c0 22.1-17.9 40-40 40s-40-17.9-40-40 17.9-40 40-40 40 17.9 40 40z" stroke="#000" stroke-opacity="0" stroke-width="2" fill="#d56c3a"/><path d="M340.06 202.5l.1 1.7.18 1.65.2 1.4.24 1.24.25 1.06.27.95.27.86.3.77.27.68.3.64.3.57.3.53.3.5.3.43.33.4.32.4.3.36.34.33.33.32.35.3.35.27.36.26.37.25.38.23.4.22.4.2.44.2.45.18.47.16.5.15.53.13.56.1.6.12.64.08.7.05.74.03h.83l.9-.02 1-.1 1.1-.13 1.24-.2 1.42-.3 1.62-.43 1.9-.57 2.22-.78 2.68-1.06 3.3-1.46 4.12-2.06 5.4-2.97 7.4-4.48 11-7.36 20.2-14.75 80.5-61.76 11.03-7.36 7.4-4.5 5.4-2.96 4.12-2.06 3.28-1.47 2.68-1.07 2.23-.78 1.88-.57 1.63-.42 1.43-.3 1.24-.2 1.1-.15 1-.08.9-.03h.82l.74.02.7.05.63.08.6.1.56.12.53.14.5.16.47.16.45.18.43.2.42.2.4.22.38.23.37.25.36.26.35.28.35.3.33.3.33.34.3.36.33.4.32.4.3.44.3.5.3.5.3.58.3.63.3.67.28.77.27.85.27.94.25 1.07.23 1.24.2 1.4.18 1.65.1 1.7" fill="none"/><path d="M342.56 202.5c0 1.38-1.12 2.5-2.5 2.5s-2.5-1.12-2.5-2.5 1.12-2.5 2.5-2.5 2.5 1.12 2.5 2.5zm1.86 9.78c0 1.38-1.12 2.5-2.5 2.5s-2.5-1.12-2.5-2.5 1.12-2.5 2.5-2.5 2.5 1.12 2.5 2.5zm6.7 7.03c0 1.4-1.13 2.5-2.5 2.5-1.4 0-2.5-1.1-2.5-2.5 0-1.37 1.1-2.5 2.5-2.5 1.37 0 2.5 1.13 2.5 2.5zm9.85.46c0 1.38-1.12 2.5-2.5 2.5s-2.5-1.12-2.5-2.5 1.12-2.5 2.5-2.5 2.5 1.12 2.5 2.5zm9.52-2.98c0 1.38-1.13 2.5-2.5 2.5-1.4 0-2.5-1.12-2.5-2.5 0-1.4 1.1-2.5 2.5-2.5 1.37 0 2.5 1.1 2.5 2.5zm9-4.34c0 1.38-1.12 2.5-2.5 2.5s-2.5-1.12-2.5-2.5 1.12-2.5 2.5-2.5 2.5 1.12 2.5 2.5zm8.65-5c0 1.37-1.12 2.5-2.5 2.5-1.4 0-2.5-1.13-2.5-2.5 0-1.4 1.1-2.5 2.5-2.5 1.38 0 2.5 1.1 2.5 2.5zm8.4-5.43c0 1.4-1.13 2.5-2.5 2.5-1.4 0-2.5-1.1-2.5-2.5 0-1.37 1.1-2.5 2.5-2.5 1.37 0 2.5 1.13 2.5 2.5zm8.23-5.66c0 1.4-1.12 2.5-2.5 2.5s-2.5-1.1-2.5-2.5c0-1.38 1.12-2.5 2.5-2.5s2.5 1.12 2.5 2.5zm8.07-5.9c0 1.4-1.12 2.5-2.5 2.5s-2.5-1.1-2.5-2.5c0-1.38 1.12-2.5 2.5-2.5s2.5 1.12 2.5 2.5zm8.07-5.9c0 1.4-1.12 2.5-2.5 2.5s-2.5-1.1-2.5-2.5c0-1.38 1.12-2.5 2.5-2.5s2.5 1.12 2.5 2.5zm7.96-6.05c0 1.37-1.12 2.5-2.5 2.5s-2.5-1.13-2.5-2.5c0-1.4 1.12-2.5 2.5-2.5s2.5 1.1 2.5 2.5zm7.93-6.1c0 1.4-1.1 2.5-2.5 2.5-1.37 0-2.5-1.1-2.5-2.5 0-1.38 1.13-2.5 2.5-2.5 1.4 0 2.5 1.12 2.5 2.5zm7.94-6.08c0 1.38-1.12 2.5-2.5 2.5s-2.5-1.12-2.5-2.5 1.12-2.5 2.5-2.5 2.5 1.12 2.5 2.5zm7.94-6.1c0 1.4-1.12 2.5-2.5 2.5-1.4 0-2.5-1.1-2.5-2.5 0-1.37 1.1-2.5 2.5-2.5 1.38 0 2.5 1.13 2.5 2.5zm7.93-6.07c0 1.38-1.1 2.5-2.5 2.5-1.37 0-2.5-1.12-2.5-2.5 0-1.4 1.13-2.5 2.5-2.5 1.4 0 2.5 1.1 2.5 2.5zm7.94-6.1c0 1.4-1.12 2.5-2.5 2.5s-2.5-1.1-2.5-2.5c0-1.37 1.12-2.5 2.5-2.5s2.5 1.13 2.5 2.5zm7.93-6.08c0 1.38-1.12 2.5-2.5 2.5s-2.5-1.12-2.5-2.5 1.12-2.5 2.5-2.5 2.5 1.12 2.5 2.5zm7.93-6.08c0 1.37-1.12 2.5-2.5 2.5s-2.5-1.13-2.5-2.5c0-1.4 1.12-2.5 2.5-2.5s2.5 1.1 2.5 2.5zm7.94-6.1c0 1.38-1.12 2.5-2.5 2.5-1.4 0-2.5-1.12-2.5-2.5s1.1-2.5 2.5-2.5c1.38 0 2.5 1.12 2.5 2.5zm7.93-6.1c0 1.4-1.12 2.5-2.5 2.5s-2.5-1.1-2.5-2.5c0-1.37 1.12-2.5 2.5-2.5s2.5 1.13 2.5 2.5zm8.2-5.7c0 1.37-1.13 2.5-2.5 2.5-1.4 0-2.5-1.13-2.5-2.5 0-1.4 1.1-2.5 2.5-2.5 1.37 0 2.5 1.1 2.5 2.5zm8.4-5.43c0 1.38-1.13 2.5-2.5 2.5-1.4 0-2.5-1.12-2.5-2.5s1.1-2.5 2.5-2.5c1.37 0 2.5 1.12 2.5 2.5zm8.63-5.02c0 1.4-1.1 2.5-2.5 2.5-1.38 0-2.5-1.1-2.5-2.5 0-1.38 1.12-2.5 2.5-2.5 1.4 0 2.5 1.12 2.5 2.5zm9-4.33c0 1.38-1.1 2.5-2.5 2.5-1.37 0-2.5-1.12-2.5-2.5s1.13-2.5 2.5-2.5c1.4 0 2.5 1.12 2.5 2.5zm9.53-2.98c0 1.38-1.1 2.5-2.5 2.5-1.38 0-2.5-1.12-2.5-2.5s1.12-2.5 2.5-2.5c1.4 0 2.5 1.12 2.5 2.5zm9.86.45c0 1.37-1.12 2.5-2.5 2.5-1.4 0-2.5-1.13-2.5-2.5 0-1.4 1.1-2.5 2.5-2.5 1.38 0 2.5 1.1 2.5 2.5zm6.68 7.02c0 1.4-1.12 2.5-2.5 2.5s-2.5-1.1-2.5-2.5c0-1.38 1.12-2.5 2.5-2.5s2.5 1.12 2.5 2.5zm1.86 9.78c0 1.38-1.12 2.5-2.5 2.5s-2.5-1.12-2.5-2.5 1.12-2.5 2.5-2.5 2.5 1.12 2.5 2.5z" fill="#d56c3a"/><path d="M340 200l2.5-.1.05 2.62-5 .1-.05-2.78zM562.5 120.16L560 120l-2.5.1v-2.66h5z" fill="#d56c3a"/><path d="M500 0h280v80H500z" stroke="#000" stroke-opacity="0" stroke-width="2" fill="#fff" fill-opacity="0"/><use xlink:href="#k" transform="matrix(1,0,0,1,505,5) translate(3.111979166666657 28.989583333333332)"/><use xlink:href="#b" transform="matrix(1,0,0,1,505,5) translate(43.46354166666666 28.989583333333332)"/><use xlink:href="#c" transform="matrix(1,0,0,1,505,5) translate(111.30208333333333 28.989583333333332)"/><use xlink:href="#l" transform="matrix(1,0,0,1,505,5) translate(128.28125 28.989583333333332)"/><use xlink:href="#m" transform="matrix(1,0,0,1,505,5) translate(64.98046875 60.239583333333336)"/><path d="M440 240h280v80H440z" stroke="#000" stroke-opacity="0" stroke-width="2" fill="#fff" fill-opacity="0"/><g><use xlink:href="#k" transform="matrix(1,0,0,1,445,245) translate(2.1484375 28.989583333333332)"/><use xlink:href="#b" transform="matrix(1,0,0,1,445,245) translate(42.5 28.989583333333332)"/><use xlink:href="#c" transform="matrix(1,0,0,1,445,245) translate(110.33854166666667 28.989583333333332)"/><use xlink:href="#n" transform="matrix(1,0,0,1,445,245) translate(127.31770833333334 28.989583333333332)"/><use xlink:href="#o" transform="matrix(1,0,0,1,445,245) translate(73.19661458333334 60.239583333333336)"/></g><path d="M820 160c0 22.1-17.9 40-40 40s-40-17.9-40-40 17.9-40 40-40 40 17.9 40 40z" stroke="#000" stroke-opacity="0" stroke-width="2" fill="#d56c3a"/><path d="M1060 108.13h300v103.75h-300z" stroke="#000" stroke-opacity="0" stroke-width="2" fill="#fff" fill-opacity="0"/><g><use xlink:href="#p" transform="matrix(1,0,0,1,1065,113.125) translate(4.010416666666657 40.48958333333333)"/><use xlink:href="#b" transform="matrix(1,0,0,1,1065,113.125) translate(44.36197916666666 40.48958333333333)"/><use xlink:href="#c" transform="matrix(1,0,0,1,1065,113.125) translate(112.20052083333333 40.48958333333333)"/><use xlink:href="#q" transform="matrix(1,0,0,1,1065,113.125) translate(129.1796875 40.48958333333333)"/><use xlink:href="#r" transform="matrix(1,0,0,1,1065,113.125) translate(36.23697916666666 71.73958333333334)"/><use xlink:href="#s" transform="matrix(1,0,0,1,1065,113.125) translate(154.20572916666669 71.73958333333334)"/></g><path d="M1040 160c0 22.1-17.9 40-40 40s-40-17.9-40-40 17.9-40 40-40 40 17.9 40 40z" stroke="#000" stroke-opacity="0" stroke-width="2" fill="#d56c3a"/><path d="M737.5 160.05l-.62.02-3.38.2-3.67.4-4.04.6-4.5.85-5.04 1.2-5.74 1.6-6.66 2.16-7.93 2.96-9.84 4.15-13.27 6.25-25.36 13.4-37.1 20.03-8.44 4-5.57 2.34-4.1 1.53-3.22 1.04-2.6.72-2.17.5-1.85.37-1.6.22-1.4.15-1.24.08-1.1.03-1.02-.03-.9-.05-.85-.1-.77-.1-.72-.14-.66-.16-.63-.18-.58-.2-.57-.2-.53-.22-.52-.24-.5-.26-.46-.27-.46-.3-.44-.3-.43-.33-.4-.34-.4-.37-.4-.4-.4-.42-.4-.44-.37-.48-.37-.52-.37-.55-.37-.62-.37-.65-.35-.72-.35-.78-.34-.88-.33-.98-.33-1.1-.32-1.23-.3-1.4-.27-1.63-.24-1.9-.17-2.2-.07-1.7" fill="none"/><path d="M740 160.05c0 1.38-1.12 2.5-2.5 2.5s-2.5-1.12-2.5-2.5 1.12-2.5 2.5-2.5 2.5 1.12 2.5 2.5zm-9.78.93c0 1.38-1.12 2.5-2.5 2.5s-2.5-1.12-2.5-2.5 1.12-2.5 2.5-2.5 2.5 1.12 2.5 2.5zm-9.63 1.9c0 1.38-1.13 2.5-2.5 2.5-1.4 0-2.5-1.12-2.5-2.5s1.1-2.5 2.5-2.5c1.37 0 2.5 1.12 2.5 2.5zm-9.47 2.65c0 1.38-1.12 2.5-2.5 2.5s-2.5-1.12-2.5-2.5 1.12-2.5 2.5-2.5 2.5 1.12 2.5 2.5zm-9.28 3.23c0 1.4-1.12 2.5-2.5 2.5s-2.5-1.1-2.5-2.5c0-1.38 1.12-2.5 2.5-2.5s2.5 1.12 2.5 2.5zm-9.1 3.68c0 1.38-1.13 2.5-2.5 2.5-1.4 0-2.5-1.12-2.5-2.5s1.1-2.5 2.5-2.5c1.37 0 2.5 1.12 2.5 2.5zm-8.97 4.02c0 1.38-1.12 2.5-2.5 2.5s-2.5-1.12-2.5-2.5 1.12-2.5 2.5-2.5 2.5 1.12 2.5 2.5zm-8.88 4.22c0 1.38-1.12 2.5-2.5 2.5s-2.5-1.12-2.5-2.5c0-1.4 1.12-2.5 2.5-2.5s2.5 1.1 2.5 2.5zm-8.7 4.58c0 1.38-1.1 2.5-2.5 2.5-1.37 0-2.5-1.12-2.5-2.5s1.13-2.5 2.5-2.5c1.4 0 2.5 1.12 2.5 2.5zm-8.68 4.6c0 1.37-1.12 2.5-2.5 2.5s-2.5-1.13-2.5-2.5c0-1.4 1.12-2.5 2.5-2.5s2.5 1.1 2.5 2.5zm-8.68 4.6c0 1.37-1.12 2.5-2.5 2.5s-2.5-1.13-2.5-2.5c0-1.4 1.12-2.5 2.5-2.5s2.5 1.1 2.5 2.5zm-8.65 4.66c0 1.38-1.13 2.5-2.5 2.5-1.4 0-2.5-1.12-2.5-2.5s1.1-2.5 2.5-2.5c1.37 0 2.5 1.12 2.5 2.5zm-8.65 4.67c0 1.37-1.12 2.5-2.5 2.5-1.4 0-2.5-1.13-2.5-2.5 0-1.4 1.1-2.5 2.5-2.5 1.38 0 2.5 1.1 2.5 2.5zm-8.65 4.66c0 1.38-1.12 2.5-2.5 2.5s-2.5-1.12-2.5-2.5 1.12-2.5 2.5-2.5 2.5 1.12 2.5 2.5zm-8.65 4.67c0 1.38-1.12 2.5-2.5 2.5s-2.5-1.12-2.5-2.5 1.12-2.5 2.5-2.5 2.5 1.12 2.5 2.5zm-8.84 4.27c0 1.38-1.1 2.5-2.5 2.5-1.37 0-2.5-1.12-2.5-2.5s1.13-2.5 2.5-2.5c1.4 0 2.5 1.12 2.5 2.5zm-9.07 3.76c0 1.38-1.12 2.5-2.5 2.5s-2.5-1.12-2.5-2.5 1.12-2.5 2.5-2.5 2.5 1.12 2.5 2.5zm-9.4 2.84c0 1.38-1.12 2.5-2.5 2.5s-2.5-1.12-2.5-2.5c0-1.4 1.12-2.5 2.5-2.5s2.5 1.1 2.5 2.5zm-9.75.75c0 1.38-1.12 2.5-2.5 2.5s-2.5-1.12-2.5-2.5 1.12-2.5 2.5-2.5 2.5 1.12 2.5 2.5zm-8.8-3.95c0 1.38-1.1 2.5-2.5 2.5-1.37 0-2.5-1.12-2.5-2.5s1.13-2.5 2.5-2.5c1.4 0 2.5 1.12 2.5 2.5zm-4.53-8.58c0 1.38-1.12 2.5-2.5 2.5s-2.5-1.12-2.5-2.5 1.12-2.5 2.5-2.5 2.5 1.12 2.5 2.5zm-1.3-9.72c0 1.38-1.1 2.5-2.5 2.5-1.37 0-2.5-1.12-2.5-2.5s1.13-2.5 2.5-2.5c1.4 0 2.5 1.12 2.5 2.5z" fill="#d56c3a"/><path d="M740 160l.1 2.5-2.6.05-.12-5 2.78-.05zM560 200l2.5-.1.03 2.64-5 .05-.03-2.76z" fill="#d56c3a"/><path d="M780.07 117.5l.1-1.8.22-2.04.3-2 .36-1.97.46-1.94.53-1.9.6-1.87.7-1.86.76-1.83.87-1.82.96-1.82 1.05-1.82 1.15-1.82 1.27-1.82 1.4-1.84 1.52-1.84 1.68-1.86 1.84-1.88 2.02-1.9 2.22-1.92 2.45-1.93 2.7-1.96 2.97-1.98 3.3-2 3.62-2 4.02-2 4.45-1.97 4.9-1.94 5.4-1.9 5.93-1.77 6.47-1.66 7.02-1.5 7.52-1.26 7.97-1 8.34-.7 8.55-.36h8.63l8.55.36 8.33.7 7.98 1 7.52 1.28 7 1.5 6.5 1.65 5.92 1.8 5.4 1.87 4.9 1.94 4.45 1.98 4 2 3.65 2 3.3 1.98 2.96 1.97 2.7 1.96 2.45 1.94 2.22 1.92 2.02 1.88 1.84 1.88 1.68 1.86 1.53 1.85 1.4 1.83 1.27 1.83 1.16 1.82 1.05 1.8.95 1.83.86 1.83.76 1.85.7 1.85.6 1.87.52 1.9.46 1.92.37 1.96.3 2 .22 2.06.1 1.78" fill="none"/><path d="M782.57 117.5c0 1.38-1.12 2.5-2.5 2.5s-2.5-1.12-2.5-2.5 1.12-2.5 2.5-2.5 2.5 1.12 2.5 2.5zm1.47-9.8c0 1.37-1.12 2.5-2.5 2.5s-2.5-1.13-2.5-2.5c0-1.4 1.12-2.5 2.5-2.5s2.5 1.1 2.5 2.5zm3.48-9.3c0 1.38-1.12 2.5-2.5 2.5s-2.5-1.12-2.5-2.5c0-1.4 1.12-2.5 2.5-2.5s2.5 1.1 2.5 2.5zm5.3-8.4c0 1.38-1.13 2.5-2.5 2.5-1.4 0-2.5-1.12-2.5-2.5s1.1-2.5 2.5-2.5c1.37 0 2.5 1.12 2.5 2.5zm6.7-7.33c0 1.4-1.13 2.5-2.5 2.5-1.4 0-2.5-1.1-2.5-2.5 0-1.38 1.1-2.5 2.5-2.5 1.37 0 2.5 1.12 2.5 2.5zm7.7-6.24c0 1.38-1.1 2.5-2.5 2.5-1.37 0-2.5-1.12-2.5-2.5 0-1.4 1.13-2.5 2.5-2.5 1.4 0 2.5 1.1 2.5 2.5zm8.45-5.25c0 1.38-1.12 2.5-2.5 2.5s-2.5-1.12-2.5-2.5 1.12-2.5 2.5-2.5 2.5 1.12 2.5 2.5zm8.92-4.38c0 1.38-1.13 2.5-2.5 2.5-1.4 0-2.5-1.12-2.5-2.5s1.1-2.5 2.5-2.5c1.37 0 2.5 1.12 2.5 2.5zm9.25-3.6c0 1.38-1.12 2.5-2.5 2.5s-2.5-1.12-2.5-2.5 1.12-2.5 2.5-2.5 2.5 1.12 2.5 2.5zm9.5-2.93c0 1.38-1.13 2.5-2.5 2.5-1.4 0-2.5-1.12-2.5-2.5s1.1-2.5 2.5-2.5c1.37 0 2.5 1.12 2.5 2.5zm9.66-2.3c0 1.38-1.1 2.5-2.5 2.5-1.37 0-2.5-1.12-2.5-2.5s1.13-2.5 2.5-2.5c1.4 0 2.5 1.12 2.5 2.5zm9.8-1.77c0 1.38-1.13 2.5-2.5 2.5-1.4 0-2.5-1.12-2.5-2.5s1.1-2.5 2.5-2.5c1.37 0 2.5 1.12 2.5 2.5zm9.85-1.2c0 1.37-1.12 2.5-2.5 2.5s-2.5-1.13-2.5-2.5c0-1.4 1.12-2.5 2.5-2.5s2.5 1.1 2.5 2.5zm9.92-.72c0 1.38-1.12 2.5-2.5 2.5s-2.5-1.12-2.5-2.5 1.12-2.5 2.5-2.5 2.5 1.12 2.5 2.5zm9.93-.23c0 1.38-1.12 2.5-2.5 2.5s-2.5-1.12-2.5-2.5c0-1.4 1.12-2.5 2.5-2.5s2.5 1.1 2.5 2.5zm9.94.23c0 1.38-1.12 2.5-2.5 2.5s-2.5-1.12-2.5-2.5 1.12-2.5 2.5-2.5 2.5 1.12 2.5 2.5zm9.9.7c0 1.4-1.1 2.5-2.5 2.5-1.37 0-2.5-1.1-2.5-2.5 0-1.37 1.13-2.5 2.5-2.5 1.4 0 2.5 1.13 2.5 2.5zm9.87 1.22c0 1.38-1.1 2.5-2.5 2.5-1.37 0-2.5-1.12-2.5-2.5s1.13-2.5 2.5-2.5c1.4 0 2.5 1.12 2.5 2.5zm9.8 1.77c0 1.38-1.13 2.5-2.5 2.5-1.4 0-2.5-1.12-2.5-2.5s1.1-2.5 2.5-2.5c1.37 0 2.5 1.12 2.5 2.5zm9.66 2.3c0 1.38-1.12 2.5-2.5 2.5s-2.5-1.12-2.5-2.5 1.12-2.5 2.5-2.5 2.5 1.12 2.5 2.5zm9.5 2.93c0 1.38-1.12 2.5-2.5 2.5-1.4 0-2.5-1.12-2.5-2.5s1.1-2.5 2.5-2.5c1.38 0 2.5 1.12 2.5 2.5zm9.26 3.6c0 1.38-1.12 2.5-2.5 2.5s-2.5-1.12-2.5-2.5 1.12-2.5 2.5-2.5 2.5 1.12 2.5 2.5zm8.92 4.38c0 1.38-1.12 2.5-2.5 2.5-1.4 0-2.5-1.12-2.5-2.5s1.1-2.5 2.5-2.5c1.38 0 2.5 1.12 2.5 2.5zm8.43 5.25c0 1.38-1.12 2.5-2.5 2.5s-2.5-1.12-2.5-2.5 1.12-2.5 2.5-2.5 2.5 1.12 2.5 2.5zm7.72 6.25c0 1.38-1.13 2.5-2.5 2.5-1.4 0-2.5-1.12-2.5-2.5s1.1-2.5 2.5-2.5c1.37 0 2.5 1.12 2.5 2.5zm6.7 7.32c0 1.38-1.13 2.5-2.5 2.5-1.4 0-2.5-1.12-2.5-2.5s1.1-2.5 2.5-2.5c1.37 0 2.5 1.12 2.5 2.5zm5.28 8.4c0 1.38-1.12 2.5-2.5 2.5s-2.5-1.12-2.5-2.5 1.12-2.5 2.5-2.5 2.5 1.12 2.5 2.5zm3.48 9.3c0 1.37-1.12 2.5-2.5 2.5s-2.5-1.13-2.5-2.5c0-1.4 1.12-2.5 2.5-2.5s2.5 1.1 2.5 2.5zm1.47 9.8c0 1.38-1.1 2.5-2.5 2.5-1.38 0-2.5-1.12-2.5-2.5s1.12-2.5 2.5-2.5c1.4 0 2.5 1.12 2.5 2.5z" fill="#d56c3a"/><path d="M782.55 117.5l-.05 2.66-2.5-.16-2.5.1.05-2.72zM1002.5 120.16l-2.5-.16-2.5.1-.05-2.6 5-.12z" fill="#d56c3a"/><defs><path fill="#2d5c8a" d="M1324-760c8 308-83 532-249 661l242 190-191 169L816 11C500 58 268-97 163-316c-104-218-106-599-1-822 92-196 273-338 542-338 408 0 609 298 620 716zM938-344c111-153 110-617 0-765-57-77-133-119-234-119s-177 41-233 118c-64 88-83 240-83 415 0 149 27 264 82 346s133 123 236 123c101 0 176-40 232-118" id="t"/><path fill="#2d5c8a" d="M801 0H512v-1114l-345 107v-235l603-216h31V0" id="u"/><g id="a"><use transform="matrix(0.013020833333333334,0,0,0.013020833333333334,0,0)" xlink:href="#t"/><use transform="matrix(0.013020833333333334,0,0,0.013020833333333334,18.411458333333336,0)" xlink:href="#u"/></g><path fill="#2d5c8a" d="M576-1476c284-5 474 140 474 413 0 72-17 146-56 220-110 211-361 428-523 610h626V0H99v-198l471-502c65-71 110-134 144-185 92-140 43-358-143-358-134 0-213 107-211 245H70c11-295 206-473 506-478" id="v"/><path fill="#2d5c8a" d="M586-1476c342 0 491 246 493 606v268c2 370-143 622-491 622C246 20 97-227 95-587v-268c-2-372 145-621 491-621zm204 926c0-199 18-488-50-610-58-105-243-107-304-4-71 121-52 402-52 600 0 119 19 205 48 264 54 112 254 115 309 4 28-57 49-140 49-254" id="w"/><path fill="#2d5c8a" d="M575-1476c362 0 493 296 493 695 0 496-265 806-765 795v-241c288 6 451-111 472-355-75 74-163 111-264 111-268 1-432-210-425-490 8-302 187-515 489-515zM374-964c0 145 68 272 208 272 96 0 164-60 197-123v-119c2-168-60-309-206-309-127 0-199 140-199 279" id="x"/><g id="b"><use transform="matrix(0.013020833333333334,0,0,0.013020833333333334,0,0)" xlink:href="#v"/><use transform="matrix(0.013020833333333334,0,0,0.013020833333333334,15.299479166666668,0)" xlink:href="#w"/><use transform="matrix(0.013020833333333334,0,0,0.013020833333333334,30.598958333333336,0)" xlink:href="#u"/><use transform="matrix(0.013020833333333334,0,0,0.013020833333333334,45.8984375,0)" xlink:href="#x"/></g><path fill="#2d5c8a" d="M673-507H110v-233h563v233" id="y"/><use transform="matrix(0.013020833333333334,0,0,0.013020833333333334,0,0)" xlink:href="#y" id="c"/><path fill="#2d5c8a" d="M668-361l330-1095h334L825 0H512L7-1456h333" id="z"/><path fill="#2d5c8a" d="M1031-175C952-60 797 20 609 20 287 20 60-206 72-543c12-330 180-559 505-559 309 0 482 214 477 537v118H365c15 134 115 234 263 234 111 0 198-40 261-121zM770-644c5-139-62-226-194-224-130 1-191 97-208 224h402" id="A"/><path fill="#2d5c8a" d="M719-811c-143-24-279 1-319 103V0H111v-1082h273l8 129c74-124 180-175 331-136" id="B"/><path fill="#2d5c8a" d="M529-185c94 0 168-33 168-114 0-35-18-63-53-83s-91-39-168-55C219-491 90-600 90-765c0-208 203-337 432-337 246 0 451 124 453 349H686c-2-91-62-143-165-143-86 0-151 41-153 117 0 32 16 57 46 77 63 43 257 69 335 100 151 60 229 153 229 291C978-13 554 93 282-28 162-81 60-190 56-344h274c5 106 86 159 199 159" id="C"/><path fill="#2d5c8a" d="M416 0H126v-1082h290V0zM271-1212c-92 0-162-61-162-150s68-149 162-149c93 0 162 60 162 149s-70 150-162 150" id="D"/><path fill="#2d5c8a" d="M579 20C257 20 58-214 66-551c8-331 182-551 511-551 324 0 514 231 514 572 0 319-198 550-512 550zm-2-888c-169 0-222 141-222 338 0 181 61 317 224 317 170 0 223-137 223-338 0-178-64-317-225-317" id="E"/><path fill="#2d5c8a" d="M750-692c-1-124-48-174-173-175-81 0-142 35-183 104V0H105v-1082h272l9 125c77-97 181-145 311-145 244 0 342 151 342 403V0H750v-692" id="F"/><g id="d"><use transform="matrix(0.013020833333333334,0,0,0.013020833333333334,0,0)" xlink:href="#z"/><use transform="matrix(0.013020833333333334,0,0,0.013020833333333334,16.861979166666668,0)" xlink:href="#A"/><use transform="matrix(0.013020833333333334,0,0,0.013020833333333334,31.276041666666668,0)" xlink:href="#B"/><use transform="matrix(0.013020833333333334,0,0,0.013020833333333334,41.00260416666667,0)" xlink:href="#C"/><use transform="matrix(0.013020833333333334,0,0,0.013020833333333334,54.71354166666667,0)" xlink:href="#D"/><use transform="matrix(0.013020833333333334,0,0,0.013020833333333334,61.78385416666667,0)" xlink:href="#E"/><use transform="matrix(0.013020833333333334,0,0,0.013020833333333334,76.86197916666667,0)" xlink:href="#F"/></g><use transform="matrix(0.013020833333333334,0,0,0.013020833333333334,0,0)" xlink:href="#u" id="e"/><path fill="#2d5c8a" d="M687-225c189-1 272-84 286-260h300c-19 311-251 505-586 505C296 20 86-277 86-686c0-466 174-782 605-790 340-6 557 198 584 514H975c-15-183-92-268-284-268-100 0-173 38-225 108-63 84-76 264-76 443 0 157 24 272 72 345s122 109 225 109" id="G"/><path fill="#2d5c8a" d="M416 0H126v-1536h290V0" id="H"/><path fill="#2d5c8a" d="M463 20c-241-1-359-147-359-393v-709h289v699c0 113 51 169 154 169 98 0 165-34 202-102v-766h290V0H767l-8-110C688-23 589 20 463 20" id="I"/><path fill="#2d5c8a" d="M488 20C204 20 66-234 66-549c0-305 140-551 424-553 105 0 192 39 261 118v-552h290V0H780l-14-115C694-25 601 20 488 20zM355-528c0 176 51 314 207 314 89 0 152-38 189-113v-427c-36-75-98-113-187-113-139 0-209 113-209 339" id="J"/><g id="f"><use transform="matrix(0.013020833333333334,0,0,0.013020833333333334,0,0)" xlink:href="#G"/><use transform="matrix(0.013020833333333334,0,0,0.013020833333333334,17.447916666666668,0)" xlink:href="#H"/><use transform="matrix(0.013020833333333334,0,0,0.013020833333333334,24.518229166666668,0)" xlink:href="#E"/><use transform="matrix(0.013020833333333334,0,0,0.013020833333333334,39.59635416666667,0)" xlink:href="#I"/><use transform="matrix(0.013020833333333334,0,0,0.013020833333333334,54.51822916666667,0)" xlink:href="#J"/></g><path fill="#2d5c8a" d="M449 0H149v-1456h300V0" id="K"/><path fill="#2d5c8a" d="M190-1174c-11-296 244-440 544-363l-3 224c-24-6-53-9-88-9-109 0-163 51-163 153v87h215v212H480V0H190v-870H29v-212h161v-92" id="L"/><path fill="#2d5c8a" d="M552-1102c254-4 435 134 435 383v469c1 103 15 180 43 233V0H738c-13-26-23-58-29-97C639-19 548 20 436 20 238 20 64-113 68-304c5-258 212-357 496-357h133c11-137-29-227-160-227-90 0-156 45-156 131H92c15-231 213-342 460-345zM357-325c0 76 61 124 142 124 88 0 168-45 198-105v-186H589c-152 2-232 51-232 167" id="M"/><path fill="#2d5c8a" d="M457-330c2 83 25 111 111 112 32 0 60-2 85-7V-6c-57 17-115 26-175 26-203 0-310-102-310-307v-583H10v-212h158v-266h289v266h185v212H457v540" id="N"/><path fill="#2d5c8a" d="M355-556c-2 203 30 338 206 343 102 3 181-63 182-161h271C1001-128 821 17 566 20 242 24 66-212 66-554c0-320 184-548 498-548 262 0 451 167 450 423H743c-1-108-75-193-184-189-162 6-202 123-204 312" id="O"/><g id="g"><use transform="matrix(0.013020833333333334,0,0,0.013020833333333334,0,0)" xlink:href="#K"/><use transform="matrix(0.013020833333333334,0,0,0.013020833333333334,7.7734375,0)" xlink:href="#F"/><use transform="matrix(0.013020833333333334,0,0,0.013020833333333334,22.708333333333336,0)" xlink:href="#L"/><use transform="matrix(0.013020833333333334,0,0,0.013020833333333334,32.265625,0)" xlink:href="#B"/><use transform="matrix(0.013020833333333334,0,0,0.013020833333333334,41.6015625,0)" xlink:href="#M"/><use transform="matrix(0.013020833333333334,0,0,0.013020833333333334,55.8984375,0)" xlink:href="#C"/><use transform="matrix(0.013020833333333334,0,0,0.013020833333333334,69.609375,0)" xlink:href="#N"/><use transform="matrix(0.013020833333333334,0,0,0.013020833333333334,78.61979166666667,0)" xlink:href="#B"/><use transform="matrix(0.013020833333333334,0,0,0.013020833333333334,88.34635416666667,0)" xlink:href="#I"/><use transform="matrix(0.013020833333333334,0,0,0.013020833333333334,103.26822916666667,0)" xlink:href="#O"/><use transform="matrix(0.013020833333333334,0,0,0.013020833333333334,117.17447916666667,0)" xlink:href="#N"/><use transform="matrix(0.013020833333333334,0,0,0.013020833333333334,126.18489583333334,0)" xlink:href="#I"/><use transform="matrix(0.013020833333333334,0,0,0.013020833333333334,141.10677083333334,0)" xlink:href="#B"/><use transform="matrix(0.013020833333333334,0,0,0.013020833333333334,150.5859375,0)" xlink:href="#A"/></g><g id="h"><use transform="matrix(0.013020833333333334,0,0,0.013020833333333334,0,0)" xlink:href="#t"/><use transform="matrix(0.013020833333333334,0,0,0.013020833333333334,18.411458333333336,0)" xlink:href="#v"/></g><path fill="#2d5c8a" d="M1006-631H430v390h676V0H130v-1456h974v243H430v347h576v235" id="P"/><path fill="#2d5c8a" d="M663-1102c295 0 422 250 422 571 0 300-141 549-420 551-109 0-198-38-265-114v510H111v-1498h268l10 106c70-84 161-126 274-126zm133 550c0-175-53-315-209-315-91 0-153 35-187 104v443c35 71 98 107 189 107 138 0 207-113 207-339" id="Q"/><g id="i"><use transform="matrix(0.013020833333333334,0,0,0.013020833333333334,0,0)" xlink:href="#P"/><use transform="matrix(0.013020833333333334,0,0,0.013020833333333334,15,0)" xlink:href="#F"/><use transform="matrix(0.013020833333333334,0,0,0.013020833333333334,29.934895833333336,0)" xlink:href="#N"/><use transform="matrix(0.013020833333333334,0,0,0.013020833333333334,38.9453125,0)" xlink:href="#A"/><use transform="matrix(0.013020833333333334,0,0,0.013020833333333334,53.359375,0)" xlink:href="#B"/><use transform="matrix(0.013020833333333334,0,0,0.013020833333333334,63.0859375,0)" xlink:href="#Q"/><use transform="matrix(0.013020833333333334,0,0,0.013020833333333334,78.09895833333333,0)" xlink:href="#B"/><use transform="matrix(0.013020833333333334,0,0,0.013020833333333334,87.82552083333333,0)" xlink:href="#D"/><use transform="matrix(0.013020833333333334,0,0,0.013020833333333334,94.89583333333333,0)" xlink:href="#C"/><use transform="matrix(0.013020833333333334,0,0,0.013020833333333334,108.60677083333334,0)" xlink:href="#A"/></g><path fill="#2d5c8a" d="M952-300H426L326 0H7l542-1456h278L1372 0h-319zM507-543h364l-183-545" id="R"/><g id="j"><use transform="matrix(0.013020833333333334,0,0,0.013020833333333334,0,0)" xlink:href="#R"/><use transform="matrix(0.013020833333333334,0,0,0.013020833333333334,17.942708333333336,0)" xlink:href="#J"/><use transform="matrix(0.013020833333333334,0,0,0.013020833333333334,32.96875,0)" xlink:href="#J"/><use transform="matrix(0.013020833333333334,0,0,0.013020833333333334,47.99479166666667,0)" xlink:href="#E"/><use transform="matrix(0.013020833333333334,0,0,0.013020833333333334,63.07291666666667,0)" xlink:href="#Q"/><use transform="matrix(0.013020833333333334,0,0,0.013020833333333334,78.0859375,0)" xlink:href="#N"/><use transform="matrix(0.013020833333333334,0,0,0.013020833333333334,87.09635416666667,0)" xlink:href="#D"/><use transform="matrix(0.013020833333333334,0,0,0.013020833333333334,94.16666666666667,0)" xlink:href="#E"/><use transform="matrix(0.013020833333333334,0,0,0.013020833333333334,109.24479166666667,0)" xlink:href="#F"/></g><path fill="#2d5c8a" d="M566-213c130 0 220-75 220-199 0-145-80-218-240-218H393v-226h154c138 3 214-73 216-201 1-118-78-186-197-186-103 0-197 64-195 164H82c11-259 212-391 477-397 286-6 493 142 493 415 0 151-107 263-221 313 147 51 242 159 244 340 3 272-230 428-516 428C289 20 61-138 64-399h289c-3 111 100 186 213 186" id="S"/><g id="k"><use transform="matrix(0.013020833333333334,0,0,0.013020833333333334,0,0)" xlink:href="#t"/><use transform="matrix(0.013020833333333334,0,0,0.013020833333333334,18.411458333333336,0)" xlink:href="#S"/></g><path fill="#2d5c8a" d="M658-217c127 0 227-49 227-165 0-57-21-98-60-130-79-64-370-142-463-196-162-95-248-210-248-361 0-280 246-403 537-407 213-3 383 84 467 216 45 69 68 147 68 234H886c0-139-96-211-240-211-129 0-232 55-232 169 0 47 24 87 72 119s117 62 210 90c171 51 295 115 373 191s117 171 117 284c-2 272-237 411-528 404C331 13 78-135 69-458h301c0 161 96 241 288 241" id="T"/><path fill="#2d5c8a" d="M516-353l201-729h302L654 0H378L13-1082h302" id="U"/><g id="l"><use transform="matrix(0.013020833333333334,0,0,0.013020833333333334,0,0)" xlink:href="#T"/><use transform="matrix(0.013020833333333334,0,0,0.013020833333333334,16.393229166666668,0)" xlink:href="#A"/><use transform="matrix(0.013020833333333334,0,0,0.013020833333333334,30.807291666666668,0)" xlink:href="#H"/><use transform="matrix(0.013020833333333334,0,0,0.013020833333333334,37.87760416666667,0)" xlink:href="#L"/><use transform="matrix(0.013020833333333334,0,0,0.013020833333333334,47.43489583333334,0)" xlink:href="#y"/><use transform="matrix(0.013020833333333334,0,0,0.013020833333333334,57.773437500000014,0)" xlink:href="#C"/><use transform="matrix(0.013020833333333334,0,0,0.013020833333333334,71.48437500000001,0)" xlink:href="#A"/><use transform="matrix(0.013020833333333334,0,0,0.013020833333333334,85.89843750000001,0)" xlink:href="#B"/><use transform="matrix(0.013020833333333334,0,0,0.013020833333333334,95.85937500000001,0)" xlink:href="#U"/><use transform="matrix(0.013020833333333334,0,0,0.013020833333333334,109.1666666666667,0)" xlink:href="#A"/><use transform="matrix(0.013020833333333334,0,0,0.013020833333333334,123.5807291666667,0)" xlink:href="#J"/></g><path fill="#2d5c8a" d="M741-689c-2-124-40-177-163-178-82 0-141 34-178 102V0H111v-1082h271l9 121c77-94 180-141 311-141 139 0 235 55 287 165 76-110 184-165 325-165 249 0 348 151 348 411V0h-290v-690c-2-123-39-176-163-177-87 0-147 41-180 124l1 743H741v-689" id="V"/><g id="m"><use transform="matrix(0.013020833333333334,0,0,0.013020833333333334,0,0)" xlink:href="#R"/><use transform="matrix(0.013020833333333334,0,0,0.013020833333333334,17.942708333333336,0)" xlink:href="#I"/><use transform="matrix(0.013020833333333334,0,0,0.013020833333333334,32.864583333333336,0)" xlink:href="#N"/><use transform="matrix(0.013020833333333334,0,0,0.013020833333333334,41.484375,0)" xlink:href="#E"/><use transform="matrix(0.013020833333333334,0,0,0.013020833333333334,56.5625,0)" xlink:href="#V"/><use transform="matrix(0.013020833333333334,0,0,0.013020833333333334,79.6484375,0)" xlink:href="#M"/><use transform="matrix(0.013020833333333334,0,0,0.013020833333333334,93.9453125,0)" xlink:href="#N"/><use transform="matrix(0.013020833333333334,0,0,0.013020833333333334,102.95572916666667,0)" xlink:href="#D"/><use transform="matrix(0.013020833333333334,0,0,0.013020833333333334,110.02604166666667,0)" xlink:href="#E"/><use transform="matrix(0.013020833333333334,0,0,0.013020833333333334,125.10416666666667,0)" xlink:href="#F"/></g><path fill="#2d5c8a" d="M1245-974c0 302-233 466-552 461H430V0H130v-1456h568c323 5 547 167 547 482zm-303 2c1-143-93-241-237-241H430v457h268c151 1 244-71 244-216" id="W"/><path fill="#2d5c8a" d="M750-685c-1-124-48-182-173-182-85 0-146 33-184 98V0H104v-1536h289v572c77-92 173-138 289-138 235 0 357 136 357 409V0H750v-685" id="X"/><g id="n"><use transform="matrix(0.013020833333333334,0,0,0.013020833333333334,0,0)" xlink:href="#W"/><use transform="matrix(0.013020833333333334,0,0,0.013020833333333334,17.057291666666668,0)" xlink:href="#M"/><use transform="matrix(0.013020833333333334,0,0,0.013020833333333334,31.354166666666668,0)" xlink:href="#B"/><use transform="matrix(0.013020833333333334,0,0,0.013020833333333334,41.731770833333336,0)" xlink:href="#N"/><use transform="matrix(0.013020833333333334,0,0,0.013020833333333334,50.7421875,0)" xlink:href="#F"/><use transform="matrix(0.013020833333333334,0,0,0.013020833333333334,65.67708333333333,0)" xlink:href="#A"/><use transform="matrix(0.013020833333333334,0,0,0.013020833333333334,80.09114583333333,0)" xlink:href="#B"/><use transform="matrix(0.013020833333333334,0,0,0.013020833333333334,89.81770833333333,0)" xlink:href="#C"/><use transform="matrix(0.013020833333333334,0,0,0.013020833333333334,103.52864583333333,0)" xlink:href="#X"/><use transform="matrix(0.013020833333333334,0,0,0.013020833333333334,118.45052083333334,0)" xlink:href="#D"/><use transform="matrix(0.013020833333333334,0,0,0.013020833333333334,125.52083333333334,0)" xlink:href="#Q"/></g><path fill="#2d5c8a" d="M523-759l182-323h309L706-552 1027 0H717L524-340 332 0H21l321-552-307-530h310" id="Y"/><g id="o"><use transform="matrix(0.013020833333333334,0,0,0.013020833333333334,0,0)" xlink:href="#P"/><use transform="matrix(0.013020833333333334,0,0,0.013020833333333334,15,0)" xlink:href="#Y"/><use transform="matrix(0.013020833333333334,0,0,0.013020833333333334,28.567708333333336,0)" xlink:href="#Q"/><use transform="matrix(0.013020833333333334,0,0,0.013020833333333334,43.58072916666667,0)" xlink:href="#M"/><use transform="matrix(0.013020833333333334,0,0,0.013020833333333334,57.87760416666667,0)" xlink:href="#F"/><use transform="matrix(0.013020833333333334,0,0,0.013020833333333334,72.8125,0)" xlink:href="#C"/><use transform="matrix(0.013020833333333334,0,0,0.013020833333333334,86.5234375,0)" xlink:href="#D"/><use transform="matrix(0.013020833333333334,0,0,0.013020833333333334,93.59375,0)" xlink:href="#E"/><use transform="matrix(0.013020833333333334,0,0,0.013020833333333334,108.671875,0)" xlink:href="#F"/></g><path fill="#2d5c8a" d="M954-548h165v233H954V0H665v-315H68L55-497l607-959h292v908zm-611 0h322v-514C560-888 450-720 343-548" id="Z"/><g id="p"><use transform="matrix(0.013020833333333334,0,0,0.013020833333333334,0,0)" xlink:href="#t"/><use transform="matrix(0.013020833333333334,0,0,0.013020833333333334,18.411458333333336,0)" xlink:href="#Z"/></g><path fill="#2d5c8a" d="M1314 0h-300L430-958V0H130v-1456h300l585 960v-960h299V0" id="aa"/><g id="q"><use transform="matrix(0.013020833333333334,0,0,0.013020833333333334,0,0)" xlink:href="#G"/><use transform="matrix(0.013020833333333334,0,0,0.013020833333333334,17.447916666666668,0)" xlink:href="#H"/><use transform="matrix(0.013020833333333334,0,0,0.013020833333333334,24.518229166666668,0)" xlink:href="#E"/><use transform="matrix(0.013020833333333334,0,0,0.013020833333333334,39.59635416666667,0)" xlink:href="#I"/><use transform="matrix(0.013020833333333334,0,0,0.013020833333333334,54.51822916666667,0)" xlink:href="#J"/><use transform="matrix(0.013020833333333334,0,0,0.013020833333333334,69.54427083333334,0)" xlink:href="#y"/><use transform="matrix(0.013020833333333334,0,0,0.013020833333333334,79.88281250000001,0)" xlink:href="#aa"/><use transform="matrix(0.013020833333333334,0,0,0.013020833333333334,98.71093750000001,0)" xlink:href="#M"/><use transform="matrix(0.013020833333333334,0,0,0.013020833333333334,113.0078125,0)" xlink:href="#N"/><use transform="matrix(0.013020833333333334,0,0,0.013020833333333334,122.0182291666667,0)" xlink:href="#D"/><use transform="matrix(0.013020833333333334,0,0,0.013020833333333334,129.08854166666669,0)" xlink:href="#U"/><use transform="matrix(0.013020833333333334,0,0,0.013020833333333334,142.39583333333334,0)" xlink:href="#A"/></g><path fill="#2d5c8a" d="M515-409l200-673h310L590 168c-66 202-236 321-472 250V199c127 7 198-15 230-107l34-89L3-1082h311" id="ab"/><g id="r"><use transform="matrix(0.013020833333333334,0,0,0.013020833333333334,0,0)" xlink:href="#R"/><use transform="matrix(0.013020833333333334,0,0,0.013020833333333334,17.942708333333336,0)" xlink:href="#F"/><use transform="matrix(0.013020833333333334,0,0,0.013020833333333334,32.87760416666667,0)" xlink:href="#M"/><use transform="matrix(0.013020833333333334,0,0,0.013020833333333334,47.17447916666667,0)" xlink:href="#H"/><use transform="matrix(0.013020833333333334,0,0,0.013020833333333334,54.24479166666667,0)" xlink:href="#ab"/><use transform="matrix(0.013020833333333334,0,0,0.013020833333333334,67.63020833333334,0)" xlink:href="#N"/><use transform="matrix(0.013020833333333334,0,0,0.013020833333333334,76.64062500000001,0)" xlink:href="#D"/><use transform="matrix(0.013020833333333334,0,0,0.013020833333333334,83.71093750000001,0)" xlink:href="#O"/><use transform="matrix(0.013020833333333334,0,0,0.013020833333333334,97.61718750000001,0)" xlink:href="#C"/></g><g id="s"><use transform="matrix(0.013020833333333334,0,0,0.013020833333333334,0,0)" xlink:href="#T"/><use transform="matrix(0.013020833333333334,0,0,0.013020833333333334,16.393229166666668,0)" xlink:href="#E"/><use transform="matrix(0.013020833333333334,0,0,0.013020833333333334,31.471354166666668,0)" xlink:href="#H"/><use transform="matrix(0.013020833333333334,0,0,0.013020833333333334,38.54166666666667,0)" xlink:href="#I"/><use transform="matrix(0.013020833333333334,0,0,0.013020833333333334,53.46354166666667,0)" xlink:href="#N"/><use transform="matrix(0.013020833333333334,0,0,0.013020833333333334,62.47395833333335,0)" xlink:href="#D"/><use transform="matrix(0.013020833333333334,0,0,0.013020833333333334,69.54427083333334,0)" xlink:href="#E"/><use transform="matrix(0.013020833333333334,0,0,0.013020833333333334,84.62239583333334,0)" xlink:href="#F"/></g></defs></g></svg>