<?xml version="1.0" standalone="no"?>
<!DOCTYPE svg PUBLIC "-//W3C//DTD SVG 20010904//EN"
 "http://www.w3.org/TR/2001/REC-SVG-20010904/DTD/svg10.dtd">
<svg version="1.0" xmlns="http://www.w3.org/2000/svg"
 width="366.000000pt" height="49.000000pt" viewBox="0 0 366.000000 49.000000"
 preserveAspectRatio="xMidYMid meet">
<g transform="translate(0.000000,49.000000) scale(0.100000,-0.100000)" stroke="none">
<path d="M130 477 c-47 -15 -103 -74 -118 -123 -15 -53 -15 -165 0 -218 16
-52 72 -108 124 -124 56 -16 392 -16 448 0 52 16 108 72 124 124 6 23 12 75
12 115 0 121 -46 196 -139 227 -44 15 -403 14 -451 -1z m417 -103 c39 -29 57
-70 57 -129 0 -59 -18 -100 -56 -128 -22 -17 -47 -21 -137 -25 -208 -9 -267
13 -290 105 -9 35 -9 58 -1 94 22 91 67 109 262 106 121 -2 140 -5 165 -23z"/>
<path d="M910 463 c-46 -23 -59 -37 -82 -82 -23 -45 -28 -67 -28 -131 0 -127
31 -188 115 -226 51 -24 58 -24 296 -22 l244 3 0 40 0 40 -220 5 c-125 3 -231
11 -245 17 -59 26 -90 104 -70 182 13 51 33 78 70 94 14 6 120 14 245 17 l220
5 0 40 0 40 -245 3 -246 2 -54 -27z"/>
<path d="M1494 479 c-8 -14 19 -41 180 -179 l135 -115 0 -93 1 -93 53 3 52 3
3 91 3 92 154 133 c89 77 155 141 155 152 0 14 -10 17 -63 17 l-64 0 -118
-104 c-117 -103 -120 -104 -141 -88 -12 9 -67 56 -122 105 l-100 87 -60 0
c-34 0 -64 -5 -68 -11z"/>
<path d="M2391 438 c-149 -199 -291 -404 -291 -420 0 -15 8 -18 54 -18 53 0
55 1 90 50 l36 50 209 0 209 0 36 -50 37 -51 57 3 c45 2 57 6 56 19 -1 9 -75
118 -165 243 l-164 226 -62 0 -62 0 -40 -52z m176 -148 l73 -100 -151 0 -151
0 24 33 c14 17 47 62 73 100 27 37 51 67 54 67 3 0 39 -45 78 -100z"/>
<path d="M2960 245 l0 -245 50 0 c28 0 51 1 52 3 1 1 4 87 7 191 l6 189 210
-192 210 -192 80 3 80 3 0 240 0 240 -52 3 -53 3 -2 -195 -3 -195 -213 194
-212 195 -80 0 -80 0 0 -245z"/>
</g>
</svg>
