<?xml version="1.0" encoding="UTF-8"?>
<svg width="2841px" height="507px" viewBox="0 0 2841 507" version="1.1" xmlns="http://www.w3.org/2000/svg" xmlns:xlink="http://www.w3.org/1999/xlink">
    <title>ocyan-logo</title>
    <g id="Page-1" stroke="none" stroke-width="1" fill="none" fill-rule="evenodd">
        <g id="ocyan-logo" transform="translate(1.000000, 0.000000)" fill="#000000" fill-rule="nonzero" stroke="#FFFFFF">
            <g id="OCYAN-logo">
                <g id="Group" transform="translate(1420.000000, 253.770029) scale(-1, 1) rotate(-180.000000) translate(-1420.000000, -253.770029) translate(0.000000, 0.770029)">
                    <path d="M362.189921,82.5424854 L193.034647,2.27800188 C188.797135,0.267864362 184.034033,0.266878446 179.797384,2.27800188 L10.6421107,82.5424854 C4.19953771,85.6001048 -5.68434189e-14,92.7884687 -5.68434189e-14,100.760966 L-5.68434189e-14,198.333546 C-5.68434189e-14,332.684357 71.0529814,453.536272 179.893181,504.30755 C184.073732,506.257522 188.757435,506.257522 192.93885,504.30755 C301.777324,453.537258 372.832031,332.685343 372.832031,198.333546 L372.832031,100.760966 C372.832031,92.7884687 368.633356,85.6001048 362.189921,82.5424854 Z M356.642872,198.415993 C356.642872,311.149202 290.617493,414.927618 185.753654,461.25148 C83.6920114,416.165011 14.864437,314.204228 14.864437,198.415993 L14.864437,115.10567 L185.753654,43.9638559 L356.642872,115.10567 L356.642872,198.415993 Z M164.238889,264.534705 L247.904693,180.816313 C255.505897,173.210242 267.830358,173.209268 275.432536,180.816313 C283.034713,188.423357 283.033741,200.75571 275.431562,208.36178 L178.002811,305.852906 C170.39966,313.460923 158.075197,313.458003 150.474967,305.852906 L96.0752586,251.418373 C88.4730819,243.811328 88.4730819,231.478975 96.0752586,223.872905 C103.677437,216.266835 116.001898,216.26586 123.603102,223.872905 L164.238889,264.534705 Z" id="Shape" transform="translate(186.416016, 253.270029) scale(1, -1) translate(-186.416016, -253.270029) "></path>
                    <path d="M558.122133,403.310611 C527.708746,393.604211 491.47152,355.425705 481.76512,323.718132 C472.05872,289.422185 472.05872,216.947732 481.76512,182.651786 C492.118613,149.002933 528.35584,112.765706 562.004693,102.412213 C598.241919,92.05872 815.665277,92.05872 851.902504,102.412213 C885.551357,112.765706 921.788583,149.002933 932.142077,182.651786 C936.024636,197.534933 939.907196,231.183786 939.907196,257.067519 C939.907196,335.365811 910.140903,383.897811 849.961224,403.957704 C821.489117,413.664104 589.182612,413.017011 558.122133,403.310611 Z M827.960051,336.659998 C853.19669,317.894292 864.84437,291.363465 864.84437,253.184959 C864.84437,215.006452 853.19669,188.475626 828.607144,170.357013 C814.371091,159.356426 798.193758,156.768053 739.955358,154.179679 C605.359946,148.35584 567.181439,162.591893 552.298293,222.124479 C546.474453,244.772746 546.474453,259.655892 551.651199,282.951252 C565.887253,341.836745 595.006452,353.484425 721.189651,351.543145 C799.487944,350.248958 811.782717,348.307678 827.960051,336.659998 Z" id="Shape"></path>
                    <path d="M1062.85493,394.251304 C1033.08864,379.368158 1024.67642,370.308851 1009.79328,341.189651 C994.910129,312.070452 991.674663,297.834398 991.674663,256.420425 C991.674663,174.239573 1011.73456,134.76688 1066.09039,110.177333 C1099.09215,94.6470933 1103.62181,94.6470933 1257.63002,95.94128 L1415.52079,97.88256 L1415.52079,123.766293 L1415.52079,149.650026 L1273.16026,152.885493 C1192.27359,154.826773 1123.6817,160.003519 1114.62239,163.886079 C1076.44389,180.710506 1056.384,231.183786 1069.32586,281.657065 C1077.73807,314.658825 1090.67994,332.130345 1114.62239,342.483838 C1123.6817,346.366398 1192.27359,351.543145 1273.16026,353.484425 L1415.52079,356.719891 L1415.52079,382.603624 L1415.52079,408.487358 L1256.98293,410.428638 L1097.79797,411.722824 L1062.85493,394.251304 Z" id="Path"></path>
                    <path d="M1440.75743,404.604798 C1435.58069,395.545491 1453.05221,378.073971 1557.23423,288.775092 L1644.59183,214.359359 L1644.59183,154.179679 L1645.23892,94 L1679.53487,95.94128 L1713.18372,97.88256 L1715.125,156.768053 L1717.06628,216.300639 L1816.71866,302.364052 C1874.30996,352.190238 1917.01812,393.604211 1917.01812,400.722238 C1917.01812,409.781544 1910.54719,411.722824 1876.25124,411.722824 L1834.83727,411.722824 L1758.48026,344.425118 C1682.77034,277.774505 1680.82906,277.127412 1667.2401,287.480905 C1659.47498,293.304745 1623.88484,323.718132 1588.29471,355.425705 L1523.58538,411.722824 L1484.75978,411.722824 C1462.75861,411.722824 1443.34581,408.487358 1440.75743,404.604798 Z" id="Path"></path>
                    <path d="M2021.20015,378.073971 C1924.78324,249.302399 1832.89599,116.648266 1832.89599,106.294773 C1832.89599,96.5883733 1838.07274,94.6470933 1867.83903,94.6470933 C1902.13498,94.6470933 1903.42916,95.2941867 1926.07743,127.00176 L1949.37279,159.356426 L2084.61529,159.356426 L2219.8578,159.356426 L2243.15316,127.00176 L2267.09561,94 L2303.97993,95.94128 C2333.09913,97.2354666 2340.86425,99.82384 2340.21716,108.236053 C2339.57007,114.059893 2291.68516,184.593066 2233.44676,265.479732 L2127.32345,411.722824 L2087.20367,411.722824 L2047.08388,411.722824 L2021.20015,378.073971 Z M2135.08857,282.304159 L2182.32639,217.594826 L2084.61529,217.594826 L1986.9042,217.594826 L2002.43444,238.948906 C2011.49375,249.949492 2032.84783,279.068692 2049.67225,303.658238 C2067.14377,327.600692 2082.67401,347.013491 2084.61529,347.013491 C2086.55657,347.013491 2109.85193,317.894292 2135.08857,282.304159 Z" id="Shape"></path>
                    <path d="M2389.39625,253.184959 L2389.39625,94.6470933 L2421.75092,94.6470933 C2439.86953,94.6470933 2454.75268,95.2941867 2455.39977,96.5883733 C2456.04686,97.2354666 2457.98814,152.885493 2459.92942,220.183199 L2463.81198,342.483838 L2599.70158,218.241919 L2735.59118,94 L2787.35865,95.94128 L2839.12612,97.88256 L2839.12612,253.184959 L2839.12612,408.487358 L2805.47726,410.428638 L2771.18132,412.369918 L2769.88713,286.186719 L2767.94585,160.003519 L2630.11497,285.539625 L2492.93118,411.722824 L2441.16372,411.722824 L2389.39625,411.722824 L2389.39625,253.184959 Z" id="Path"></path>
                </g>
            </g>
        </g>
    </g>
</svg>
