<svg height="458pt" viewBox="0 -7 458.516 458" width="458pt" xmlns="http://www.w3.org/2000/svg"><g fill="#122436"><path d="m120.59375 344.542969-7.042969 7.097656c2.410157 2.394531 4.894531 4.710937 7.453125 6.953125l6.59375-7.519531c-2.402344-2.105469-4.738281-4.28125-7.003906-6.53125zm0 0"/><path d="m98.757812 334.816406c2.0625 2.699219 4.210938 5.332032 6.4375 7.894532l7.550782-6.558594c-2.09375-2.410156-4.109375-4.882813-6.050782-7.417969zm0 0"/><path d="m130.488281 366.3125c2.714844 2.042969 5.492188 4.003906 8.332031 5.882812l5.511719-8.34375c-2.667969-1.761718-5.277343-3.605468-7.824219-5.527343zm0 0"/><path d="m82.101562 281.457031c-.957031-3.03125-1.820312-6.101562-2.589843-9.210937l-9.707031 2.402344c.820312 3.3125 1.738281 6.582031 2.757812 9.8125zm0 0"/><path d="m75.867188 251.523438-9.941407 1.054687c.359375 3.394531.820313 6.765625 1.386719 10.097656l9.859375-1.671875c-.53125-3.128906-.964844-6.289062-1.304687-9.480468zm0 0"/><path d="m95.074219 311.203125-8.691407 4.941406c1.679688 2.957031 3.453126 5.855469 5.308594 8.695313l8.367188-5.476563c-1.746094-2.660156-3.40625-5.386719-4.984375-8.160156zm0 0"/><path d="m322.066406 358.28125c-2.542968 1.921875-5.152344 3.761719-7.8125 5.523438l5.515625 8.339843c2.835938-1.875 5.609375-3.835937 8.320313-5.878906zm0 0"/><path d="m89.777344 301.023438c-1.363282-2.875-2.636719-5.796876-3.824219-8.761719l-9.285156 3.710937c1.261719 3.160156 2.621093 6.269532 4.070312 9.328125zm0 0"/><path d="m376.460938 281.3125 9.542968 2.996094c1.011719-3.230469 1.929688-6.503906 2.746094-9.820313l-9.710938-2.390625c-.765624 3.109375-1.625 6.183594-2.578124 9.214844zm0 0"/><path d="m372.609375 292.140625c-1.183594 2.972656-2.460937 5.902344-3.824219 8.785156l9.039063 4.273438c1.453125-3.066407 2.8125-6.1875 4.074219-9.355469zm0 0"/><path d="m363.488281 311.121094c-1.582031 2.78125-3.242187 5.507812-4.984375 8.179687l8.371094 5.46875c1.855469-2.84375 3.628906-5.746093 5.308594-8.710937zm0 0"/><path d="m382.664062 251.371094c-.335937 3.191406-.769531 6.351562-1.296874 9.484375l9.863281 1.660156c.5625-3.335937 1.023437-6.703125 1.378906-10.101563zm0 0"/><path d="m345.816406 336.101562 7.554688 6.554688c2.226562-2.566406 4.371094-5.199219 6.4375-7.902344l-7.941406-6.074218c-1.941407 2.535156-3.960938 5.011718-6.050782 7.421874zm0 0"/><path d="m330.972656 351.03125 6.59375 7.515625c2.554688-2.242187 5.039063-4.5625 7.449219-6.957031l-7.046875-7.09375c-2.261719 2.246094-4.597656 4.429687-6.996094 6.535156zm0 0"/><path d="m306.5 368.609375c-2.484375 1.441406-5.011719 2.8125-7.578125 4.113281-.007813.003906-.011719.003906-.015625.007813-.359375.179687-.71875.363281-1.082031.542969-.015625.007812-.027344.011718-.042969.019531-.355469.175781-.714844.351562-1.070312.527343-.007813.003907-.019532.007813-.027344.015626-4.066406 1.976562-8.230469 3.78125-12.484375 5.402343-.027344.011719-.054688.023438-.082031.03125-.355469.136719-.710938.269531-1.066407.402344-.054687.019531-.105469.039063-.164062.058594-.324219.121093-.648438.238281-.972657.359375-.09375.03125-.183593.066406-.277343.097656-.292969.105469-.585938.210938-.878907.316406-.097656.035156-.195312.066406-.292968.101563-.289063.101562-.582032.203125-.871094.304687-.101562.035156-.203125.070313-.300781.105469-.285157.097656-.570313.191406-.855469.289063-.121094.039062-.238281.078124-.359375.121093-.261719.085938-.523437.171875-.785156.257813-.136719.046875-.277344.089844-.414063.136718-3.835937 1.242188-7.738281 2.339844-11.695312 3.285157-.164063.039062-.324219.078125-.488282.113281-.238281.058594-.476562.113281-.714843.167969-.164063.039062-.328125.074219-.492188.109375-.234375.054687-.46875.109375-.703125.160156-.167968.039062-.339844.074219-.511718.113281-.234376.046875-.46875.101563-.703126.152344-.167968.035156-.335937.066406-.503906.105469-.234375.046875-.472656.097656-.707031.144531-.167969.035156-.339844.066406-.507813.105469-.238281.046875-.480468.09375-.722656.144531-.164062.03125-.328125.0625-.488281.09375-.242187.046875-.484375.09375-.726563.136719-.164062.035156-.332031.066406-.5.09375-.257812.050781-.515624.097656-.773437.140625-.144531.027343-.28125.054687-.425781.078125-4.078125.71875-8.21875 1.277344-12.402344 1.667968-.082031.007813-.164062.015626-.246094.023438-1.265625.117188-2.535156.21875-3.808594.304688-.066406.003906-.132812.007812-.199218.015624-.351563.019532-.699219.046876-1.050782.066407-.117187.003906-.230468.011719-.347656.019531-.296875.015625-.597656.035156-.898437.050781-.144531.007813-.292969.011719-.441407.019531-.269531.015626-.542968.027344-.816406.039063-.152344.007813-.304687.011719-.457031.019531-2.085937.082032-4.183594.125-6.289063.125-2.089843 0-4.167968-.042968-6.238281-.125-.152343-.007812-.304687-.011718-.457031-.019531-.273438-.011719-.546875-.023437-.824219-.039063-.148437-.007812-.296875-.011718-.441406-.019531-.332031-.019531-.660156-.039062-.988281-.054687-.085938-.003906-.167969-.011719-.253906-.015625-.847657-.050781-1.695313-.105469-2.539063-.167969-.082031-.007812-.164063-.011719-.246094-.019531-.332031-.027344-.664062-.054688-.996093-.082031-.132813-.011719-.261719-.019532-.394532-.035157-.285156-.023437-.570312-.046875-.851562-.074219-.148438-.015624-.292969-.027343-.4375-.039062-4.125-.390625-8.199219-.9375-12.21875-1.644531-.160156-.027344-.324219-.058594-.484375-.085938-.242188-.042969-.480469-.085937-.71875-.128906-.175781-.035156-.347657-.066406-.523438-.101563-.238281-.042968-.476562-.089843-.710937-.132812-.164063-.035156-.328125-.0625-.488282-.09375-.242187-.050781-.484374-.097656-.726562-.144531-.167969-.035157-.339844-.070313-.511719-.105469-.238281-.046875-.476562-.097656-.714843-.148438-.15625-.03125-.3125-.066406-.472657-.097656-.257812-.054687-.515625-.113281-.777343-.167968-.140626-.035157-.285157-.0625-.429688-.09375-.269531-.0625-.535156-.121094-.804688-.183594-.132812-.027344-.265624-.058594-.394531-.089844-.285156-.0625-.570312-.128906-.851562-.195312-.117188-.027344-.234375-.054688-.351563-.082032-4.023437-.957031-7.984375-2.074218-11.878906-3.339844-.070312-.019531-.140625-.046874-.207031-.066406-.339844-.109375-.675781-.222656-1.015625-.335937-.050782-.019531-.101563-.035157-.152344-.050781-.34375-.117188-.691406-.234376-1.03125-.351563-.050781-.015625-.097656-.03125-.144531-.050781-.367188-.125-.734375-.253906-1.101563-.382813-.015625-.007812-.035156-.015625-.058594-.019531-9.015624-3.1875-17.648437-7.191406-25.808593-11.921875l-5.015625 8.652344c.757812.433593 1.511718.867187 2.273437 1.289062 1.910157 1.070313 3.84375 2.097657 5.800781 3.089844h.003907c.386719.199219.773437.390625 1.160156.585937.023437.011719.046875.019532.066406.035157.363281.179687.730469.359375 1.09375.535156.046875.023437.09375.046875.140625.070313.261719.125.527344.253906.789063.378906 3.667969 1.761718 7.414062 3.386718 11.226562 4.875 3.160157 1.234375 6.371094 2.371094 9.625 3.414062v-.003906c3.867188 1.238281 7.792969 2.335938 11.78125 3.285156v.003906c.070313.015626.140625.03125.207031.046876.003907 0 .007813.003906.011719.003906.421875.097656.847657.195312 1.269531.292968.042969.011719.089844.023438.132813.03125.386719.089844.773437.175782 1.160156.261719.0625.011719.125.027344.1875.039063.363281.078125.726563.15625 1.089844.234375.089844.023437.183594.039062.273437.058593.335938.070313.671876.140626 1.011719.210938.109375.023438.226563.046875.335938.066406.3125.066406.625.128906.9375.1875.132812.027344.269531.050782.402343.078125.296876.058594.597657.113281.894532.171875.144531.023438.28125.050782.425781.074219.28125.054687.566406.105469.851563.15625.160156.027344.320312.058594.480468.085937.101563.019532.207032.035157.308594.054688v-.003906c3.992188.695312 8.03125 1.246094 12.117188 1.644531v.003906c.179687.015625.363281.03125.546874.050781.175782.015626.355469.035157.53125.050782.25.019531.5.042968.75.066406.199219.015625.398438.03125.597657.050781.25.019531.5.039063.75.058594.191406.015625.378906.03125.566406.046875.289063.019531.578125.039062.863281.058594.304688.023437.605469.042968.90625.0625.285156.015625.566406.035156.851563.054687.214843.011719.433593.023438.648437.035157.222656.011718.449219.023437.675782.035156.230468.011718.460937.023437.691406.03125.214844.011718.429687.019531.640625.03125.230469.007812.457031.019531.6875.027344.148437.007812.304687.011718.457031.019531 2 .070312 4.007812.109375 6.027344.109375 2.074218 0 4.140625-.039063 6.195312-.117188v.003906c.148438-.007812.292969-.011718.441406-.019531.191407-.007812.382813-.015625.574219-.023437.25-.011719.5-.023438.75-.035156.203125-.007813.410157-.019532.617188-.027344.234375-.015625.46875-.027344.707031-.039063.203125-.011719.40625-.023437.609375-.035156.257813-.015625.511719-.03125.765625-.046875.191406-.011719.382812-.023438.574219-.035156.265625-.019532.535156-.039063.800781-.058594.175781-.011719.351562-.023438.523438-.039062.429687-.03125.859374-.066407 1.292968-.101563.171875-.015625.347656-.03125.523438-.046875.269531-.023438.539062-.046875.808594-.070312.179687-.015626.363281-.035157.546874-.054688.210938-.019531.417969-.039062.628907-.058594 4.085937-.402344 8.125-.957031 12.117187-1.65625v.003906c.074219-.015624.148438-.03125.222656-.042968.132813-.023438.265626-.046875.402344-.070313.308594-.054687.617188-.113281.929688-.167969.117187-.023437.242187-.046874.359375-.066406.316406-.058594.632812-.121094.949219-.183594.121093-.023437.238281-.046874.363281-.066406.320312-.0625.640625-.128906.960937-.195312.109375-.019532.214844-.042969.324219-.066406.328125-.066407.660156-.132813.988281-.203126.105469-.023437.210938-.046874.3125-.066406.335938-.074218.667969-.144531 1.003906-.214844.09375-.023437.1875-.042968.285157-.0625.347656-.078124.695312-.15625 1.042969-.234374.082031-.019532.164062-.035157.242187-.054688.355469-.082031.710937-.164062 1.070313-.25.074218-.015625.148437-.035156.226562-.050781.101562-.027344.199219-.046875.296875-.070313v-.003906c3.984375-.957031 7.914063-2.058594 11.777344-3.296875.210937-.066406.417969-.132813.628906-.203125.0625-.019531.125-.039062.183594-.058594.367187-.121094.734375-.242187 1.101562-.363281.046875-.015625.09375-.035156.140625-.050781.367188-.121094.734375-.246094 1.101563-.371094.054687-.019531.105469-.039062.160156-.058594.367187-.125.734375-.253906 1.097656-.382812.046875-.015625.097657-.03125.148438-.050782.382812-.136718.761719-.269531 1.144531-.410156.027344-.007812.054688-.019531.085938-.027344.40625-.148437.8125-.296874 1.21875-.449218.003906-.003906.007812-.003906.011718-.003906.859375-.320313 1.714844-.648438 2.566406-.980469 3.808594-1.488281 7.546876-3.117188 11.210938-4.878907v.003907c.210938-.101563.421875-.207031.628906-.308594.078125-.039063.15625-.078125.234375-.113281.3125-.152344.628907-.308594.9375-.460938.078125-.039062.160157-.078125.238281-.117187.3125-.15625.625-.3125.9375-.472657.078126-.039062.152344-.078124.230469-.113281.3125-.160156.625-.320312.941407-.480469.074218-.039062.144531-.078124.21875-.113281.324218-.167969.644531-.335937.96875-.503906.058593-.035156.121093-.066406.179687-.097656.347656-.183594.691406-.367188 1.035156-.550781.035157-.019532.070313-.039063.109375-.058594.792969-.425782 1.589844-.859375 2.375-1.300782.734375-.410156 1.464844-.824218 2.1875-1.246093zm0 0"/><path d="m416.390625 234.117188c0 1.628906-.019531 3.253906-.0625 4.871093l9.996094.253907c.042969-1.703126.066406-3.414063.066406-5.128907h-10zm0 0"/><path d="m150.410156 64.351562-4.21875-9.066406c-3.113281 1.449219-6.183594 2.976563-9.207031 4.582032l4.691406 8.832031c2.867188-1.523438 5.78125-2.972657 8.734375-4.347657zm0 0"/><path d="m90.964844 108.039062c2.195312-2.40625 4.457031-4.757812 6.773437-7.050781l-7.027343-7.113281c-2.441407 2.414062-4.820313 4.890625-7.132813 7.425781zm0 0"/><path d="m106.335938 93.011719c2.453124-2.140625 4.964843-4.21875 7.53125-6.230469l-6.171876-7.867188c-2.703124 2.117188-5.347656 4.304688-7.929687 6.558594zm0 0"/><path d="m77.402344 124.726562c1.910156-2.644531 3.886718-5.238281 5.929687-7.777343l-7.792969-6.265625c-2.152343 2.675781-4.234374 5.40625-6.246093 8.191406zm0 0"/><path d="m131.5 74.511719-5.230469-8.523438c-2.925781 1.796875-5.804687 3.667969-8.625 5.609375l5.667969 8.238282c2.679688-1.84375 5.410156-3.617188 8.1875-5.324219zm0 0"/><path d="m65.839844 142.867188c1.59375-2.851563 3.261718-5.65625 5-8.410157l-8.460938-5.335937c-1.832031 2.902344-3.585937 5.855468-5.265625 8.859375zm0 0"/><path d="m60.433594 153.285156-9.019532-4.324218c-1.480468 3.09375-2.886718 6.230468-4.210937 9.410156l9.230469 3.84375c1.257812-3.015625 2.589844-5.996094 4-8.929688zm0 0"/><path d="m425.683594 250.949219c.015625-.199219.03125-.398438.046875-.597657.03125-.332031.054687-.667968.082031-1 .007812-.113281.015625-.226562.023438-.339843.023437-.289063.042968-.582031.0625-.875.007812-.105469.015624-.210938.023437-.316407.019531-.300781.039063-.601562.058594-.90625.007812-.101562.011719-.203124.023437-.300781.019532-.320312.039063-.636719.054688-.953125.003906-.078125.011718-.152344.015625-.230468.210937-3.746094.320312-7.515626.320312-11.3125 0-.589844-.003906-1.175782-.007812-1.765626 0-.015624 0-.03125 0-.046874-.011719-1.167969-.03125-2.335938-.0625-3.5 0-.027344-.003907-.050782-.003907-.078126-.03125-1.167968-.070312-2.328124-.121093-3.492187 0-.011719-.003907-.027344-.003907-.042969-.050781-1.15625-.113281-2.308594-.183593-3.460937 0-.027344-.003907-.058594-.003907-.085938-.074218-1.15625-.15625-2.308593-.246093-3.457031-.003907-.015625-.003907-.03125-.003907-.046875-.046874-.570313-.097656-1.136719-.144531-1.703125-.003906-.03125-.007812-.0625-.007812-.09375-.050781-.5625-.101563-1.128906-.160157-1.691406-.054687-.570313-.113281-1.140625-.175781-1.710938 0-.027344-.003906-.054687-.007812-.085937-.121094-1.125-.253907-2.25-.390625-3.371094-.007813-.039063-.011719-.082031-.015625-.125-.140625-1.113281-.289063-2.222656-.449219-3.328125-.003906-.039062-.007812-.078125-.015625-.117188-.160156-1.113281-.328125-2.21875-.503906-3.324218-.007813-.035156-.011719-.066406-.015625-.097656-.179688-1.113282-.367188-2.21875-.566406-3.328126-.003907-.027343-.011719-.054687-.015626-.082031-.199218-1.105469-.40625-2.207031-.625-3.304687-.003906-.035156-.011718-.066406-.019531-.097656-.21875-1.109376-.445312-2.21875-.683593-3.320313l-.003907-.023437c-.242187-1.117188-.492187-2.226563-.75-3.335938-.003906-.007812-.003906-.011719-.003906-.019531-.132813-.554688-.261719-1.109375-.398437-1.660157v-.003906c-.269532-1.105468-.546876-2.210937-.839844-3.3125 0-.007812-.003906-.011718-.003906-.019531-.285157-1.089844-.578126-2.175781-.882813-3.257813-.007813-.023437-.015625-.046874-.019531-.070312-.300782-1.078125-.613282-2.144531-.933594-3.214844-.003906-.015625-.011719-.03125-.015625-.046875-.320313-1.066406-.648437-2.132812-.988281-3.191406-.007813-.023437-.011719-.046875-.019532-.070313-.335937-1.042968-.675781-2.085937-1.027343-3.125-.015625-.042968-.027344-.085937-.042969-.128906-.347656-1.019531-.699219-2.035156-1.0625-3.046875-.019531-.054687-.039062-.113281-.058594-.167969-.183594-.507812-.367187-1.015624-.550781-1.519531 0 0 0-.003906 0-.007812-.183594-.496094-.371094-.992188-.554687-1.488281-.019532-.046876-.039063-.097657-.058594-.148438-.164063-.441406-.332032-.882812-.503906-1.320312-4.484376-11.632813-10.042969-22.734376-16.554688-33.179688-18.824219-30.210938-45.589844-54.949219-77.394531-71.304688-13.144531-6.757812-27.152344-12.085937-41.808594-15.769531-.007813-.003906-.011719-.003906-.019531-.003906-.488282-.125-.980469-.246094-1.472656-.367187-.066407-.015626-.132813-.03125-.199219-.046876-.429688-.105468-.859375-.207031-1.289063-.308593-.109375-.023438-.214844-.050781-.320312-.074219-.394532-.089844-.785156-.179688-1.179688-.269531-.125-.03125-.246094-.058594-.371094-.085938-.394531-.085937-.785156-.175781-1.179687-.257812-.109375-.027344-.222656-.050781-.335937-.074219-.398438-.085938-.800782-.171875-1.203126-.253906-.109374-.023438-.21875-.046875-.328124-.070313-.425782-.089843-.847657-.175781-1.269532-.257812-.082031-.015625-.167968-.035157-.25-.050781-.449218-.089844-.902344-.179688-1.351562-.265626-.0625-.011718-.125-.023437-.191406-.035156-1.5625-.300781-3.128907-.582031-4.703126-.84375-.007812 0-.015624 0-.023437-.003906-.5-.082031-1.003906-.164062-1.507813-.242188-.089843-.015624-.179687-.027343-.269531-.042968-.425781-.066406-.851562-.132813-1.277343-.195313-.117188-.019531-.238282-.035156-.355469-.050781-.394531-.058594-.78125-.117188-1.175781-.171875-.148438-.019531-.296876-.042969-.441407-.0625-.371093-.050781-.738281-.101563-1.105469-.152344-.15625-.019531-.316406-.039062-.476562-.0625-.363281-.046875-.722656-.09375-1.085938-.140625-.160156-.019531-.324218-.039062-.484374-.058594-.363282-.042968-.726563-.089843-1.089844-.128906-.15625-.019531-.3125-.039062-.472656-.058594-.394532-.046874-.789063-.085937-1.183594-.132812-.121094-.011719-.242188-.023438-.359375-.039062-.4375-.046876-.875-.089844-1.308594-.136719-.089844-.007813-.179687-.015625-.269531-.027344-1.582032-.15625-3.171875-.296875-4.769532-.414063-.121093-.007812-.238281-.015624-.359374-.023437-.402344-.03125-.808594-.058594-1.210938-.085937-.15625-.011719-.3125-.023438-.46875-.03125-.367188-.023438-.738281-.046876-1.105469-.070313-.179687-.011719-.363281-.019531-.542969-.03125-.347656-.019531-.691406-.035156-1.039062-.054687-.191406-.011719-.382812-.019532-.570312-.027344-.335938-.015625-.671876-.03125-1.007813-.046875-.203125-.007813-.402344-.019531-.605469-.027344-.328125-.011719-.65625-.023437-.988281-.035156-.203125-.007813-.410156-.011719-.613281-.019531-.332032-.011719-.664063-.019532-.992188-.027344-.199218-.007813-.394531-.011719-.597656-.015625-.339844-.007813-.679688-.015625-1.019531-.023438-.195313-.003906-.390625-.007812-.585938-.007812-.378906-.007813-.753906-.011719-1.132812-.015625-.148438-.003906-.296875-.003906-.449219-.007813-.535156-.003906-1.070312-.003906-1.605469-.003906-5.988281 0-11.914062.269531-17.765625.792969v-.003906c-.09375.007812-.183594.019531-.273437.027343-.058594.003907-.113281.007813-.171875.015625-.453125.042969-.902344.082032-1.351563.128906-.097656.007813-.195312.015626-.296875.027344-.464844.046875-.929687.09375-1.390625.144532-.039062.003906-.078125.007812-.117187.011718-1.046875.109375-2.09375.234375-3.136719.363282l-.164063.019531c-.457031.054687-.914062.117187-1.371093.175781-.078125.011719-.160157.023438-.242188.03125-.492187.066406-.984375.132812-1.480469.203125-.003906 0-.011718.003906-.015624.003906-.070313.007813-.144532.019531-.21875.027344v.003906c-4.097657.582031-8.15625 1.289063-12.167969 2.121094-3.375.699219-6.71875 1.484375-10.027344 2.351563v.003906c-.371094.097656-.738281.191406-1.109375.292968l2.59375 9.65625c7.277344-1.953124 14.726562-3.484374 22.320312-4.554687.011719-.003906.027344-.003906.039063-.007813.464844-.0625.929687-.125 1.390625-.1875.078125-.011718.152344-.019531.226562-.03125.421876-.054687.839844-.109374 1.257813-.160156.074219-.007812.144531-.019531.214844-.027344.976562-.121093 1.953125-.234374 2.933593-.339843.070313-.007813.140626-.015625.207032-.023438.410156-.042969.820312-.085937 1.230468-.125.109376-.011719.21875-.023437.328126-.035156.386718-.035156.769531-.074219 1.15625-.109375.105468-.007812.207031-.019531.316406-.027344 5.625-.511718 11.324218-.773437 17.082031-.773437.507813 0 1.011719.003906 1.515625.007812.164062 0 .328125.003907.492188.003907.335937.003906.675781.011718 1.015624.015624.199219 0 .398438.007813.59375.011719.308594.003907.613282.011719.917969.015625.214844.003906.429688.011719.644531.015625.277344.007813.558594.015625.839844.023438.238282.011719.476563.019531.710938.027343.261718.007813.523437.015626.78125.027344.238281.007813.480468.019532.714844.027344.273437.015625.539062.027344.808593.039062.226563.007813.449219.019532.671875.03125.285156.015626.566406.03125.851563.046876.21875.011718.4375.023437.652343.039062.289063.015625.574219.035156.863282.054688.207031.011718.417968.023437.625.039062.3125.019531.625.042969.933594.066406.183593.011719.367187.023438.546874.039063.386719.027343.773438.058593 1.15625.089843.109376.007813.21875.015626.328126.027344.5.042969 1 .082032 1.5.128906.046874.003907.09375.011719.140624.015626.449219.039062.902344.082031 1.351563.125.121094.011718.238281.027343.363281.039062.375.039062.75.078125 1.125.117188.148438.015624.296875.03125.441406.046874.347657.039063.699219.078126 1.042969.117188.152344.015625.308594.035156.460938.054688.34375.039062.6875.082031 1.03125.121093.15625.019531.308593.039063.464843.058594.339844.042969.683594.085937 1.023438.132813.152344.019531.304688.039062.457031.058593.355469.050781.707031.097657 1.0625.148438.128907.015625.257813.035156.390625.054687.390625.054688.777344.109375 1.164063.167969.097656.015625.191406.027344.285156.042969.421875.0625.847656.128906 1.269531.195312.066406.011719.136719.019532.203125.03125 2.5.394532 4.988281.839844 7.453125 1.332032.011719.003906.019532.003906.027344.007812.472656.09375.949219.191406 1.421875.289062.042969.011719.085937.019532.128906.027344.453125.09375.902344.191406 1.351563.289063.039062.007812.074218.015625.117187.027343.449219.097657.902344.195313 1.351563.296876.042968.011718.082031.019531.125.03125.453125.101562.910156.207031 1.363281.3125.027344.003906.054687.011718.082031.019531 1.957032.457031 3.898438.945312 5.828125 1.464843 12.851563 3.457032 25.15625 8.246094 36.757813 14.210938 30.183594 15.519531 55.609375 39.019531 73.484375 67.699219 6.410156 10.289062 11.847656 21.242187 16.1875 32.734375.019531.058594.042969.113281.066406.175781.164063.441406.332031.886719.496094 1.328125.011719.03125.019531.0625.03125.09375.167969.449219.328125.902344.492187 1.355469.039063.101562.074219.203125.113282.304687.144531.414063.292968.832032.4375 1.246094.015624.042969.03125.085938.042968.125.15625.449219.3125.898438.464844 1.351562.03125.101563.070312.207032.101562.308594.152344.449219.304688.898438.453126 1.347656 0 .007813.003906.015626.003906.023438.148437.449219.292968.902344.4375 1.351562.039062.117188.074218.234376.113281.351563.144531.457031.289063.910156.425781 1.367187 0 0 .003906 0 .003906.003907.140626.453125.277344.910156.414063 1.363281.035156.109375.066406.222656.101563.332031.136718.453125.269531.910157.402343 1.367188.015625.046875.027344.09375.042969.140625.121094.425781.246094.851562.363281 1.28125.03125.097656.054688.195312.082031.292968.132813.464844.261719.929688.386719 1.394532.015625.050781.027344.105468.042969.160156.121094.4375.234375.878906.351562 1.316406.019532.074219.039063.144532.058594.21875.125.484375.25.96875.375 1.449219.007813.042969.019532.085937.03125.128906.113282.449219.222656.898438.332032 1.347657.019531.070312.039062.144531.054687.21875.117187.484374.234375.96875.347656 1.457031.011719.046875.023438.097656.035157.144531.113281.480469.222656.960938.328124 1.441406.007813.027344.015626.050782.019532.078125.113281.511719.226562 1.019531.339844 1.535157.003906.03125.011718.0625.019531.09375.222656 1.027343.433593 2.0625.640625 3.097656.007812.039062.015625.078125.023437.117187.203125 1.046875.402344 2.097657.589844 3.148438.003906.003906.003906.011719.003906.015625 1.929688 10.78125 2.9375 21.878906 2.9375 33.21875 0 3.625-.101562 7.230468-.304687 10.804687 0 .03125-.003906.0625-.003906.09375-.023438.347657-.042969.691407-.0625 1.035157-.003907.074218-.011719.144531-.015626.214843-.019531.300781-.039062.601563-.058593.902344-.007813.105469-.015625.210937-.023438.316406-.019531.273438-.039062.546875-.058593.820313-.007813.109375-.015626.21875-.023438.324218-.023438.273438-.042969.550782-.066406.824219-.007813.109375-.019532.222657-.027344.328125-.023438.28125-.046875.566406-.070312.847656-.007813.097657-.019532.195313-.027344.292969-.101563 1.152344-.214844 2.300781-.339844 3.449219-.003906.039062-.007812.078125-.011719.117188-.035156.34375-.074219.6875-.113281 1.03125-.003906.046874-.007812.09375-.015625.136718-.039063.34375-.078125.6875-.121094 1.027344-.007812.085938-.019531.171875-.027343.253906-.039063.316406-.078126.628906-.121094.945313-.007813.074219-.019532.148437-.027344.222656-.035156.300781-.078125.605469-.117188.910156-.011718.070313-.019531.136719-.027343.207031-.035157.273438-.074219.546876-.113281.820313-.027344.21875-.058594.433594-.089844.648437-.023438.164063-.046875.332032-.070313.496094-.027343.1875-.058593.378906-.085937.570313-.027344.195312-.058594.390625-.085938.589843-.023437.160157-.050781.324219-.074218.488282-.035157.234375-.074219.472656-.109376.710937-.023437.121094-.039062.238281-.058593.359375-.472657 2.945313-1.011719 5.867188-1.617188 8.765625-.027343.117188-.050781.238281-.078125.359375-.050781.242188-.105468.484375-.15625.730469-.03125.140625-.0625.289063-.09375.433594-.054687.253906-.113281.503906-.167968.757812-.027344.128907-.054688.257813-.085938.386719-.054688.246094-.113281.492188-.167969.738281-.035156.144531-.066406.292969-.101562.441407-.050781.230468-.105469.460937-.160157.691406-.035156.15625-.074218.3125-.109374.46875-.054688.222656-.109376.445312-.164063.671875-.039063.164062-.078125.328125-.117187.496093-.054688.210938-.105469.421876-.160157.632813-.042969.175781-.085937.351563-.132812.527344-.050781.210937-.105469.417969-.15625.625-.042969.171875-.089844.34375-.132813.515625-1.023437 3.953125-2.171875 7.855468-3.445312 11.699218-.085938.261719-.171875.519532-.257813.78125-.039062.117188-.082031.234376-.117187.351563-.105469.316406-.214844.632813-.324219.949219-.015625.050781-.03125.101562-.050781.15625-.527344 1.527344-1.070313 3.046875-1.636719 4.558594-.019531.050781-.042969.105468-.058594.15625-.121093.316406-.242187.636718-.359375.953124-.039062.097657-.074218.191407-.113281.289063-.101563.265625-.203125.53125-.304687.796875-1.453126 3.746094-3.023438 7.429688-4.707032 11.050781-.121094.261719-.246094.523438-.367187.785157-.046875.097656-.09375.191406-.140625.289062-.128906.277344-.261719.554688-.394532.828125-.039062.082031-.074218.164063-.117187.246094-.140625.289062-.277344.578125-.417969.863281-.035156.070312-.070312.140625-.101562.214844-.152344.304687-.300782.613281-.453125.917968-.027344.054688-.050781.105469-.078125.15625-.355469.722657-.71875 1.441407-1.089844 2.160157 0 .003906-.003906.011719-.007812.015625-.171876.339844-.347657.675781-.523438 1.015625-.0625.121093-.125.238281-.1875.355469-.121094.230468-.238281.460937-.363281.691406-1.894531 3.585937-3.902344 7.105468-6.023438 10.546875-.070312.117187-.140625.230469-.207031.34375-.140625.226562-.28125.453125-.421875.679687-.050781.082032-.105469.160156-.152344.242188-.15625.246094-.3125.496094-.46875.742187-.039062.066407-.082031.128907-.121093.195313-7.207032 11.363281-15.601563 21.894531-25.015626 31.429687-.132812.132813-.265624.269531-.398437.402344-.140625.136719-.277344.277344-.414063.417969-.230468.230468-.460937.460937-.695312.6875-.261719.261718-.523438.519531-.785156.777344-.046875.042968-.089844.085937-.132813.128906-.21875.214844-.4375.425781-.660156.640625-.054687.054687-.109375.109375-.167969.160156-.207031.203125-.414062.402344-.625.601563-.070312.066406-.140625.132812-.210937.203124-.210938.203126-.425781.402344-.632813.601563-.0625.058594-.128906.117187-.1875.175781-.230468.214844-.457031.429688-.6875.644532-.042968.039062-.085937.078124-.125.117187-.242187.222656-.484375.445313-.726562.671875-.03125.027344-.066406.058594-.097656.089844-4.113282 3.777344-8.394532 7.378906-12.835938 10.78125-.003906.003906-.007812.007812-.011719.011718-.289062.21875-.578125.4375-.867187.65625-.011719.011719-.027344.023438-.042969.035157-.269531.207031-.542969.410156-.816406.617187-.039063.027344-.082031.058594-.121094.089844-.261719.195312-.523437.390625-.785156.582031-.042969.03125-.089844.066407-.140625.101563-.261719.195312-.523438.386718-.789063.578125-.035156.027343-.074219.054687-.105469.078125-3.492187 2.546875-7.074218 4.972656-10.742187 7.269531-.15625.101563-.308594.199219-.464844.292969-.15625.097656-.308593.191406-.460937.285156-.179688.113281-.363282.222656-.539063.335938-.15625.09375-.3125.191406-.46875.285156-.179687.109375-.359375.21875-.539062.328125-.15625.097656-.3125.191406-.472657.285156-.183593.109375-.367187.222656-.550781.328125-.144531.085938-.289062.171875-.429687.257812-.203125.121094-.398438.238282-.597656.355469-.144532.082031-.285157.164063-.429688.25-.191406.113281-.386719.226563-.582031.339844-.148438.085937-.296875.171875-.445313.257813-.1875.109374-.378906.21875-.570312.324218-.15625.09375-.3125.183594-.46875.269532-.1875.105468-.375.210937-.558594.316406-3.507812 1.980468-7.085938 3.847656-10.734375 5.601562-1.09375.527344-2.191406 1.042969-3.296875 1.546875-.011719.003907-.019531.011719-.03125.015625-.351562.160156-.703125.320313-1.058594.480469-.023437.011719-.050781.023437-.074218.035156-.34375.152344-.683594.304688-1.027344.457031-.03125.011719-.0625.027344-.09375.042969-.339844.148438-.683594.296875-1.027344.449219-.023438.011719-.050781.019531-.074219.03125-.351562.152344-.707031.304688-1.0625.457031-.015625.003907-.027343.011719-.042969.019531-.355468.148438-.710937.300782-1.0625.445313-3.605468 1.511719-7.269531 2.910156-10.984374 4.195313-1.910157.660156-3.835938 1.289062-5.769532 1.886718-.039062.015625-.074218.023438-.113281.035156-.339844.105469-.683594.210938-1.027344.316407-.0625.019531-.125.035156-.191406.054687-.3125.097656-.628906.191406-.945313.285156-.082031.023438-.167968.046876-.25.070313-.304687.089844-.613281.179687-.917968.269531-3.847656 1.109375-7.742188 2.097656-11.683594 2.960938-.238281.054687-.46875.105468-.707031.15625-.148438.03125-.292969.0625-.441407.09375-.242187.050781-.480468.101562-.722656.152344-.15625.03125-.3125.0625-.464844.09375-.230468.050781-.457031.09375-.6875.140624-.164062.03125-.328124.066407-.492187.097657-.242187.050781-.484375.097656-.726563.144531-.140624.027344-.289062.054688-.433593.082031-.234375.046875-.464844.089844-.699219.132813-.167969.035156-.339844.066406-.511719.097656-.207031.039062-.414062.078125-.621093.113281-.1875.035157-.371094.070313-.558594.101563-.203125.039062-.40625.074218-.609375.109375-.191407.035156-.378907.066406-.570313.101562-.214844.035157-.429687.074219-.644531.109375-4.03125.679688-8.105469 1.234375-12.21875 1.652344-.109375.011719-.21875.019531-.328125.03125-.292969.03125-.582031.058594-.875.085938-.078125.007812-.15625.011718-.234375.023437-.316406.027344-.632813.058594-.953125.085937-.066406.007813-.132812.011719-.199219.019532-2.246093.195312-4.503906.351562-6.773437.46875-.066406.007812-.128906.011718-.195313.011718-3.183593.164063-6.390625.246094-9.621093.246094-.757813 0-1.515626-.007812-2.269532-.015625-.25-.003906-.496094-.007812-.742187-.011719-.164063 0-.332031-.003906-.496094-.007812-.226563-.003906-.457031-.007812-.6875-.011719-.175781-.003906-.355469-.007812-.53125-.011719-.203125-.007812-.40625-.011718-.609375-.015624-.210938-.007813-.421875-.015626-.632812-.019532-.152344-.003906-.296876-.011718-.449219-.015625-.257813-.007812-.515625-.015625-.773438-.027343-.128906-.003907-.257812-.007813-.386719-.015626-.273437-.007812-.542968-.023437-.816406-.035156-.125-.003906-.25-.011718-.375-.015625-.28125-.015625-.566406-.027343-.847656-.039062-.058594-.003907-.121094-.007813-.183594-.011719-.339844-.019531-.679687-.035156-1.019531-.054688-.027344 0-.050781-.003906-.078125-.003906-4.339844-.246094-8.640625-.644531-12.894531-1.183594-.101563-.015624-.199219-.027343-.300781-.042968-.296876-.035156-.589844-.074219-.882813-.113282-.085937-.011718-.171875-.023437-.257813-.035156-.308593-.042968-.617187-.085937-.925781-.125-.0625-.007812-.125-.019531-.183593-.027344-1.421876-.199218-2.835938-.417968-4.246094-.648437-.082032-.011719-.160156-.027344-.238282-.039063-.265624-.042968-.535156-.089843-.800781-.132812-.125-.023438-.253906-.042969-.378906-.066406-.238281-.042969-.480469-.082032-.722656-.125-.152344-.027344-.304688-.054688-.457031-.082032-3.996094-.710937-7.949219-1.554687-11.855469-2.519531-.265625-.066406-.53125-.132812-.796875-.199219-.125-.035156-.25-.066406-.375-.09375-.269532-.070312-.539063-.140624-.808594-.210937-.109375-.027344-.214844-.054687-.320312-.082031-.28125-.074219-.5625-.148438-.84375-.222656-.113282-.03125-.222657-.058594-.335938-.089844-.277344-.074219-.550781-.148438-.824219-.222656-.113281-.03125-.222656-.058594-.332031-.089844-.273438-.074219-.542969-.148438-.816406-.226563-.117188-.03125-.234375-.066406-.351563-.097656-.285156-.082031-.566406-.160156-.847656-.242187-.089844-.027344-.175781-.050782-.265625-.074219-.296875-.085938-.597656-.175781-.894531-.261719-.089844-.027344-.179688-.050781-.265625-.078125-.304688-.089844-.613282-.179687-.917969-.273437-3.808594-1.148438-7.570313-2.410157-11.277344-3.792969-1.914062-.714844-3.816406-1.457031-5.699219-2.230469-.003906-.003906-.003906-.003906-.007812-.003906-.363281-.148438-.726562-.296875-1.09375-.449219l-.097656-.042969c-.335938-.140625-.671875-.28125-1.003906-.425781-.046876-.019531-.089844-.035156-.136719-.054687-.324219-.140626-.648438-.28125-.96875-.417969-3.636719-1.574219-7.210938-3.261719-10.71875-5.054688-1.4375-.734375-2.867188-1.488281-4.285157-2.261719-.039062-.019531-.074218-.039062-.109374-.058593-.308594-.171875-.621094-.339844-.929688-.511719-.070312-.042969-.144531-.082031-.21875-.125-.265625-.144531-.535156-.292969-.800781-.445312-.105469-.058594-.207031-.113282-.3125-.175782-.238281-.136718-.476563-.269531-.71875-.40625-.109375-.0625-.214844-.121094-.320313-.183594-.242187-.140624-.484375-.28125-.726562-.417968-4.730469-2.734375-9.332032-5.667969-13.792969-8.792969-.058594-.042969-.121094-.085937-.179687-.125-.238282-.167969-.472657-.335937-.710938-.503906-.078125-.054688-.160156-.113281-.242188-.171875-.230468-.164063-.460937-.328125-.691406-.496094-.078125-.054688-.15625-.113281-.238281-.171875-.242187-.175781-.488281-.355469-.734375-.53125-.054688-.042969-.113281-.082031-.167969-.125-.246093-.175781-.488281-.355469-.734375-.535156-.074218-.054688-.144531-.109375-.21875-.164063-4.175781-3.089844-8.214844-6.34375-12.113281-9.761718-.007813-.007813-.019531-.011719-.027344-.019532-.25-.222656-.503906-.445312-.753906-.667968-.042969-.035157-.082031-.070313-.125-.105469-.226563-.203125-.457031-.410157-.6875-.617188-.066406-.054687-.125-.113281-.191406-.167969-.210938-.1875-.417969-.378906-.628907-.566406-.082031-.078125-.164062-.152344-.246093-.226562-.203125-.1875-.40625-.375-.609375-.558594-.078125-.074219-.15625-.144531-.234375-.214844-.199219-.1875-.402344-.371094-.601563-.558594-.085937-.082031-.171875-.160156-.257812-.242187-1.582032-1.476563-3.140625-2.980469-4.671875-4.511719-1.558594-1.558594-3.089844-3.144531-4.59375-4.757812-.035157-.039063-.070313-.074219-.101563-.113282-.222656-.234374-.441406-.472656-.660156-.710937-.039062-.042969-.078125-.085937-.117188-.128906-.214843-.230469-.425781-.464844-.640624-.699219-.046876-.050781-.09375-.097656-.136719-.148438-.210938-.234374-.421875-.464843-.632813-.699218-.042968-.050782-.089844-.097656-.132812-.148438-.210938-.234375-.417969-.46875-.628906-.707031-.039063-.046875-.082032-.09375-.125-.140625-.214844-.242188-.433594-.488281-.648438-.734375-.019531-.027344-.046875-.054687-.066406-.078125-.230469-.261719-.460938-.527344-.6875-.789062-.007813-.011719-.015625-.019532-.023438-.027344-3.164062-3.65625-6.1875-7.429688-9.0625-11.324219-.027344-.03125-.050781-.0625-.074218-.097656-.191407-.261719-.386719-.523438-.578126-.785157-.035156-.050781-.074218-.105468-.113281-.15625-.183593-.25-.367187-.503906-.550781-.757812-.039062-.058594-.082031-.117188-.125-.171875-.179688-.25-.359375-.503906-.539062-.753906-.046876-.066407-.089844-.128907-.136719-.191407-.175781-.246093-.347657-.492187-.519531-.734374-.046876-.070313-.09375-.136719-.144532-.203126-.171875-.246093-.34375-.492187-.511718-.738281-.050782-.074219-.101563-.148437-.15625-.222656-.167969-.242187-.335938-.488281-.503907-.730469-.03125-.050781-.066406-.101562-.101562-.152344-2.644531-3.875-5.148438-7.847656-7.5-11.921874-.121094-.210938-.242188-.417969-.359375-.628907-.074219-.128906-.148438-.257812-.222656-.386719-.121094-.214843-.246094-.429687-.363282-.644531-.074218-.125-.144531-.25-.214844-.378906-.132812-.234375-.265624-.46875-.398437-.707031-.054687-.101563-.109375-.199219-.167969-.304688-.144531-.261718-.289062-.527344-.433594-.789062-.042968-.078125-.085937-.152344-.125-.230469-.15625-.285156-.308593-.570313-.464843-.855469-.035157-.066406-.074219-.136718-.109375-.203125-.171875-.316406-.339844-.636719-.511719-.957031-.011719-.027344-.027344-.050781-.039063-.078125-.378906-.714844-.753906-1.433594-1.121093-2.152344-1.785157-3.484375-3.464844-7.03125-5.03125-10.636719-.144531-.335937-.292969-.671874-.4375-1.011718-.019531-.046875-.039063-.09375-.058594-.140625-.136719-.324219-.277344-.652344-.414063-.980469-.019531-.042969-.035156-.082031-.054687-.125-.140625-.332031-.277344-.667969-.414063-1-.015624-.035156-.03125-.070312-.046874-.109375-.136719-.339844-.277344-.679687-.414063-1.015625-.011719-.035156-.027344-.066406-.039063-.097656-.140624-.34375-.28125-.691406-.417968-1.035156-.011719-.03125-.023438-.058594-.035156-.089844-.445313-1.121094-.878907-2.25-1.300782-3.382813-1.367187-3.652343-2.621094-7.355469-3.761718-11.109375-.230469-.765625-.460938-1.535156-.683594-2.304687-.015625-.046875-.027344-.097657-.042969-.144531-.09375-.332032-.1875-.664063-.28125-.996094-.023437-.078125-.046875-.15625-.066406-.234375-.085938-.308594-.171875-.617188-.257813-.925781-.027344-.085938-.046875-.167969-.070312-.253907-.082032-.292969-.160156-.578125-.238282-.867187-.03125-.121094-.0625-.242188-.09375-.363282-.074218-.265624-.144531-.53125-.214843-.800781-.027344-.117187-.058594-.234375-.089844-.355469-.070313-.269531-.136719-.535156-.207031-.804687-.035156-.125-.0625-.246094-.09375-.371094-.070313-.265625-.136719-.53125-.203125-.796875-.964844-3.898437-1.8125-7.839844-2.527344-11.828125-.09375-.507812-.179687-1.011719-.269531-1.519531-.015625-.078125-.027344-.160156-.042969-.242188-.078125-.460937-.152344-.917968-.230469-1.378906-.011718-.089844-.027344-.175781-.039062-.265625-.042969-.242187-.078125-.484375-.117188-.726562-.015625-.097657-.03125-.195313-.046875-.292969-.035156-.230469-.070312-.460938-.105469-.695312l-.011718-.074219c-.007813-.035157-.011719-.070313-.015625-.109375-.058594-.386719-.113281-.769532-.171875-1.15625-.007813-.050782-.011719-.101563-.019532-.152344-.054687-.359375-.101562-.722656-.152343-1.085938-.019531-.128906-.035157-.257812-.054688-.386718-.027343-.210938-.054687-.417969-.085937-.628906 0-.003907 0-.007813 0-.011719-.015625-.121094-.03125-.246094-.046875-.363281-.195313-1.503907-.375-3.015626-.535157-4.53125-.003906-.046876-.007812-.097657-.015624-.148438-.15625-1.507812-.292969-3.023438-.417969-4.539062-.003907-.050782-.007813-.101563-.011719-.152344-.035156-.480469-.074219-.960938-.105469-1.441406-.003906-.023438-.003906-.046876-.003906-.066407-.039063-.519531-.074219-1.035156-.105469-1.554687 0-.015625 0-.03125 0-.046875-.019531-.285157-.039062-.570313-.054687-.851563-.003907-.078125-.007813-.15625-.011719-.234375 0-.015625-.003906-.035156-.003906-.050781-.019532-.347656-.039063-.691406-.054688-1.035156-.003906-.070313-.007812-.140625-.011718-.210938-.015626-.328125-.03125-.65625-.046876-.984375-.003906-.085937-.007812-.167969-.011718-.25-.011719-.292969-.023438-.585937-.035156-.878906 0-.070313-.003907-.140625-.007813-.214844 0-.050781-.003906-.101562-.003906-.152343-.011719-.273438-.023438-.546876-.03125-.820313 0-.054687-.003907-.109375-.003907-.160156-.003906-.050781-.003906-.101563-.003906-.152344-.011718-.328125-.019531-.65625-.027344-.980469 0-.003906 0-.007812 0-.015625-.003906-.070312-.003906-.144531-.003906-.214843-.007812-.3125-.015625-.628907-.019531-.945313l-.007813-.207031c0-.070313 0-.140625-.003906-.207032-.003906-.226562-.007812-.449218-.007812-.671874-.007813-.398438-.011719-.796876-.011719-1.191407 0-.039062 0-.074219 0-.113281-.003906-.429688-.003906-.863281-.003906-1.292969 0-3.210937.082031-6.402343.242187-9.570312.011719-.222657.019532-.449219.035156-.671875.007813-.167969.019532-.335938.027344-.5.011719-.226563.027344-.449219.039063-.675782.011719-.164062.023437-.332031.03125-.5.015625-.234374.03125-.472656.046875-.710937.007812-.140625.019531-.289063.03125-.433594.015625-.257812.035156-.515625.054687-.777343.007813-.132813.019531-.265626.027344-.398438.027344-.339844.050781-.683594.082031-1.023438.003906-.039062.003906-.078124.007813-.121093.03125-.390625.0625-.78125.101562-1.171875.007813-.097656.015625-.195313.023438-.292969.027343-.285156.054687-.574219.078125-.859375.011718-.136719.027344-.277344.042968-.414062.023438-.253907.046876-.503907.070313-.757813.402344-4.019531.933594-8.003906 1.585937-11.941406.050782-.308594.105469-.613281.15625-.917969.019532-.121094.042969-.242188.0625-.363281.046876-.261719.089844-.527344.136719-.789063.023438-.132812.046875-.265625.070313-.394531.042968-.242187.089844-.488281.132812-.730469.023438-.148437.054688-.292968.082032-.441406.046874-.253906.09375-.507812.144531-.761719.019531-.117187.042969-.234375.066406-.351562.054687-.292969.113281-.585938.171875-.878907.019531-.089843.035156-.175781.050781-.265624.152344-.765626.3125-1.535157.472657-2.296876.015624-.066406.027343-.128906.042968-.195312.066406-.3125.132813-.621094.199219-.933594.882813-4.03125 1.894531-8.011718 3.027344-11.941406.042969-.140625.082031-.273438.121093-.414062.066407-.222657.132813-.445313.199219-.671876.039063-.136718.078125-.269531.121094-.402343.066406-.234375.136719-.46875.207031-.699219.035156-.109375.070313-.222656.101563-.332031.074219-.246094.152343-.496094.226562-.742188.03125-.09375.0625-.191406.089844-.285156.375-1.210937.765625-2.421875 1.164063-3.621094.027343-.078125.054687-.160156.082031-.238281.085937-.253906.167969-.507812.257812-.761719.03125-.09375.066407-.191406.097657-.289062.78125-2.285157 1.605468-4.550781 2.472656-6.796875l-9.332032-3.597656c-.859374 2.230468-1.683593 4.484374-2.464843 6.757812h-.003907c-.039062.113281-.078124.226562-.113281.34375-.054687.148438-.101562.296875-.15625.449219-.074219.226562-.152343.453125-.226562.675781-.046875.140625-.09375.28125-.136719.417969-.082031.238281-.160156.480469-.238281.71875-.039063.117187-.078125.238281-.117188.355469-.167969.511718-.335937 1.027343-.496093 1.542968-.027344.089844-.054688.175782-.082032.265625-.070312.21875-.140625.4375-.207031.65625-.054687.167969-.105469.332031-.15625.5-.0625.207031-.125.414063-.1875.621094-.054687.175781-.109375.355469-.164063.53125-.0625.207031-.125.414063-.183593.621094-.054688.171875-.101563.34375-.152344.511719-.066406.214843-.128906.429687-.1875.644531-.054687.179687-.109375.359375-.160156.542969-.042969.140624-.082031.285156-.125.425781-1.128907 3.945312-2.136719 7.941406-3.023438 11.980469-.011719.0625-.023437.121093-.035156.179687-.039063.175781-.078125.351563-.117187.53125-.042969.207031-.089844.414063-.132813.625-.0625.292969-.121094.582031-.183594.875-.050781.253906-.105469.507813-.152343.765625-.046876.226562-.09375.449219-.136719.675781-.039063.1875-.074219.375-.113281.566407-.039063.207031-.082032.414062-.121094.621093-.039063.191407-.074219.382813-.109375.570313-.042969.207031-.078125.414062-.121094.621094-.035156.191406-.070313.382812-.105469.578124-.035156.210938-.078125.421876-.113281.632813-.035156.1875-.070313.375-.101563.5625-.039062.21875-.078124.441406-.117187.660156-.027344.175781-.058594.347657-.089844.523438-.042969.25-.082031.5-.125.753906-.019531.125-.042969.246094-.0625.375-.664062 4.039063-1.207031 8.125-1.625 12.246094-.003906.058593-.011719.117187-.015625.179687-.023437.230469-.042968.457032-.066406.6875-.015625.171875-.035156.34375-.050781.511719-.023438.265625-.046875.53125-.070313.796875-.011718.140625-.027344.285156-.039062.425781-.035156.398438-.066406.800781-.101563 1.195313-.011719.113281-.019531.226562-.027343.339844-.023438.296874-.046876.59375-.070313.886718-.011719.152344-.019531.304688-.03125.457032-.019531.253906-.039063.511718-.054687.765624-.011719.164063-.019532.328126-.03125.492188-.019532.253906-.035157.503906-.050782.757812-.007812.152344-.019531.308594-.027344.460938-.015624.265625-.03125.53125-.046874.792969-.007813.148437-.015626.292969-.023438.4375-.011719.269531-.027344.539062-.042969.808593-.003906.089844-.007812.183594-.011719.273438-.160156 3.230469-.238281 6.480469-.238281 9.75v.386719c.003907.738281.007813 1.472656.015625 2.210937 0 .070313.003906.140625.003906.210938.007813.253906.011719.511718.015626.769531v.15625c0 .042969.003906.082031.003906.121094v.128906c.007812.367187.015625.734375.023437 1.101563.003907.140624.007813.28125.011719.421874.007812.25.015625.5.023438.753907v.007812c0 .078125.003906.15625.007812.234375s.003906.15625.007812.234375c.007813.242188.015626.484375.027344.726563v.011718c.003906.089844.003906.175782.007813.261719.003906.050781.003906.105469.007812.160157.007813.253906.019531.503906.03125.757812.003907.085938.007813.175781.011719.261719v.011719c.003906.078124.007812.15625.007812.234374.011719.226563.023438.449219.03125.675782.007813.136718.015626.269531.019532.40625.007812.136718.015625.265625.023437.402344.007813.175781.019531.351562.027344.527343.007813.136719.015625.273438.023437.410157.003907.085937.007813.171874.011719.257812.015625.203125.027344.40625.039063.613281.007812.085938.011718.171875.015625.257813.003906.054687.007812.113281.011719.171875.003906.074219.007812.148437.015624.222656.027344.386719.050782.769531.078126 1.152344.007812.132812.019531.265625.027343.394531.027344.371094.054688.738281.085938 1.109375.007812.113281.015625.230469.027343.34375.035157.464844.074219.929687.117188 1.390625v.027344c.089844 1.003906.1875 2.007812.292969 3.011718.003906.046876.007812.097657.015625.148438.046875.460938.097656.921875.148437 1.386719.003907.03125.007813.0625.011719.09375.109375 1.007812.230469 2.011719.359375 3.015625.019531.148437.039063.296875.058594.445312.007812.054688.011719.113282.019531.167969.042969.304687.082031.613281.125.921875 0 .015625.003906.03125.003906.050781.011719.070313.019532.140625.03125.210938v.011719c.167969 1.21875.34375 2.433593.535156 3.644531.003907.015625.003907.027343.007813.042969l.011719.058593c0 .007813 0 .015625.003906.023438.054688.351562.109375.699219.164062 1.046875.011719.058594.019532.117187.027344.175781.050782.300781.101563.605469.152344.910156.019531.117188.039062.238281.0625.359375.039062.25.082031.496094.125.746094.03125.167969.058594.335938.089844.503906.039062.214844.074218.425782.113281.640625.011719.070313.023437.140625.035156.207031h.003907c.738281 4.074219 1.597656 8.101563 2.582031 12.082032.015625.074218.035156.144531.054687.214844.070313.277343.136719.554687.207032.835937.035156.132813.066406.265625.101562.402344.070312.277343.144531.558593.214844.839843.03125.125.066406.25.097656.375.078125.292969.15625.582032.234375.875.027344.109376.058594.21875.085937.332032.082032.304687.167969.613281.25.921875.027344.097656.054688.195312.082032.292969.085937.3125.171875.625.261718.941406.027344.089844.050782.183594.078126.273437.101562.363281.207031.722657.308593 1.085938.011719.03125.019531.066406.027344.097656.117187.398437.230469.792969.347656 1.1875.003907.007813.007813.019531.007813.027344 1.542968 5.199219 3.292968 10.304687 5.238281 15.3125.011719.027343.023437.050781.03125.074219.136719.359374.277344.714843.417969 1.066406.027344.074218.054687.144531.085937.214844.128907.324218.257813.640624.386719.960937.03125.074219.058594.144531.085938.21875.132812.324219.269531.652344.402343.976563.023438.058593.046875.117187.070313.175781.140625.332031.277344.667969.414062 1 .027344.058593.050782.121093.078125.183593.136719.328126.277344.65625.417969.984376.023438.058593.050781.117187.074219.179687.144531.335937.289062.671875.4375 1.007813.011719.03125.027343.066406.042969.097656 1.984374 4.566406 4.136718 9.042968 6.453124 13.417968.019532.039063.042969.078126.0625.121094.171876.324219.347657.648438.519532.972656.042968.078126.085937.160157.128906.238282.152344.289062.308594.570312.460938.855468.058593.101563.113281.203126.167968.304688.140625.261719.285156.519531.429688.78125.0625.113281.125.222656.183594.332031.144531.261719.289062.519531.433593.78125.058594.105469.121094.210938.179688.320313.144531.253906.289062.511718.433593.765625.0625.109375.125.214843.1875.328125.152344.261718.304688.523437.457032.785156.03125.058594.066406.121094.101562.175781 2.066406 3.566407 4.242188 7.0625 6.523438 10.480469.035156.054688.074218.109375.109375.164062.191406.285157.382812.570313.574219.851563.09375.140625.191406.285156.285156.421875.136718.199219.269531.398438.40625.59375.109375.160156.21875.316406.328125.476562.125.183594.25.363282.375.546876.117187.164062.234375.332031.347656.496093.121094.171875.238281.339844.359375.507813.117188.171875.238281.34375.359375.511718.117187.164063.234375.328126.347656.492188.128907.179688.257813.359375.386719.539062l.328125.457032c.125.175781.253906.351562.382813.527344.117187.160156.234374.324218.355468.488281.125.171875.253906.339843.378906.511719.113282.15625.226563.308593.339844.460937.089844.121094.179688.242187.273438.363281 2.460937 3.304688 5.023437 6.527344 7.679687 9.667969.140625.164063.28125.328125.421875.492187.101563.117188.199219.238282.300782.355469.167968.195313.332031.386719.5.578125.097656.113282.195312.226563.292968.339844.167969.191406.332032.382812.496094.570312.105469.121094.210938.246094.320312.363282.164063.1875.328126.375.492188.558594.105469.117187.207031.238281.3125.355468.171875.191406.34375.382813.515625.574219.09375.105469.191406.210937.285156.316406.179688.199219.359375.402344.542969.601563.089844.097656.179688.195312.265625.292968.1875.203126.371094.40625.554687.605469.085938.09375.171876.1875.257813.277344.195313.210937.386719.417969.578125.628906.074219.078125.144531.15625.21875.234375.167969.175782.332031.355469.5.53125 2.820312 3 5.734375 5.910156 8.738281 8.730469v.003906c.152344.144531.308594.289063.460938.433594.078125.070313.15625.144531.234375.21875.214844.199219.429687.394531.644531.59375.085937.078125.171875.160156.257813.238281.210937.191406.421874.386719.636718.582032.085938.078124.171875.15625.257813.234374.210937.195313.425781.386719.640625.578126.089844.078124.179687.160156.269531.242187.207031.1875.414063.371094.621094.554687.105469.09375.210937.1875.316406.277344.199219.175782.398437.351563.59375.527344.101563.089844.207031.175781.304687.265625.210938.183594.421876.367187.632813.550781.066406.058594.132813.113282.199219.171875.535156.464844 1.074218.925781 1.613281 1.382813 3.144531 2.65625 6.371094 5.21875 9.679687 7.679687v.003907c.128907.09375.257813.191406.386719.285156.101563.074218.207031.152344.308594.226562.214844.160156.433594.320313.648437.476563.121094.089843.242188.175781.363282.261719.203125.148437.40625.296874.609375.445312.148437.105469.292969.210938.441406.316406.175781.125.351563.25.527344.378906.171875.121094.34375.242188.515625.363282.167968.121094.332031.234375.5.355468.175781.125.355468.25.535156.371094.15625.109375.308594.21875.464844.328125.226562.15625.449218.308594.675781.464844.113281.078125.230469.15625.339844.234375.339843.230469.679687.464844 1.023437.695312.082032.054688.167969.109376.25.167969.253906.171875.507813.339844.765625.511719.023438.015625.042969.03125.066407.046875 3.425781 2.28125 6.929687 4.457031 10.503906 6.527344.0625.039062.128906.074219.195312.109375.230469.136718.464844.269531.703125.40625.121094.070312.246094.140625.367188.207031.253906.144531.507812.289063.761719.433594.101562.054687.207031.117187.308593.175781.28125.15625.554688.308594.832031.460938.085938.050781.171876.097656.257813.144531.332031.183593.667969.367187 1 .550781.027344.015625.050781.027344.078125.039062 1.5.816407 3.011719 1.613282 4.535156 2.394532.003906.003906.011719.003906.015625.007812 3.664063 1.871094 7.394531 3.628906 11.1875 5.277344l.050781.023438c.351563.148437.703126.300781 1.054688.453124.042969.019532.089844.035157.132812.058594.351563.144532.703126.292969 1.054688.441406.039062.015626.078125.035157.117188.050782.347656.144531.699218.292968 1.046874.4375.046876.019531.09375.039062.140626.058594.382812.152343.769531.308593 1.152343.464843v.003907c5.402344 2.175781 10.921875 4.121093 16.546875 5.816406.082032.023437.160156.050781.242188.074218.28125.082032.5625.167969.847656.253907.113281.03125.230469.066406.34375.101562.292969.085938.585938.171875.882812.253907.105469.035156.214844.0625.320313.09375.300781.085937.597656.171874.898437.253906.109376.03125.214844.0625.324219.09375.300781.082031.601563.167968.90625.25.101563.027344.207031.058594.3125.085937.308594.082031.613281.164063.921875.246094.097656.027344.195313.054687.292969.078125.320313.085938.640625.171875.960937.253906.089844.023438.175782.046875.265626.070313.328124.082031.652343.167969.980468.25.085938.019531.167969.042969.25.0625.34375.085937.683594.171875 1.023438.257812.054687.011719.105468.023438.160156.039063 3.980469.976562 8.011719 1.835937 12.085938 2.5625.027343.007812.058593.011718.085937.015625.230469.042969.460937.082031.691406.121093.179688.03125.359375.066407.539063.09375.300781.054688.601562.101563.90625.15625.105468.015626.214844.035157.324218.054688.265626.042969.53125.085938.800782.128906.339844.058594.683594.113282 1.027344.164063.222656.035156.445312.070312.667968.105469.191406.03125.382813.058593.570313.085937.222656.035156.445312.066406.667969.101563.242187.035156.484374.066406.722656.101562.175781.023438.347656.050781.519531.074219.253906.035156.503906.070312.753906.105469.164063.019531.328125.046874.492188.066406.269531.035156.539062.070312.808593.105468.148438.019532.289063.039063.4375.058594.050782.003906.105469.011719.160157.019532 4.0625.511718 8.160156.898437 12.296875 1.160156.210937.011718.421875.023437.632812.035156.195313.015625.386719.027344.582032.035156.253906.015625.511718.027344.765624.039063.167969.007812.332032.019531.496094.027343.246094.011719.488282.023438.734375.035157.179688.007812.363281.019531.546875.027343.261719.011719.519532.023438.78125.03125.15625.007813.316406.015626.472656.019532.285157.011718.570313.019531.855469.03125.136719.003906.277344.007812.414063.011718.289062.011719.578125.019532.863281.027344.136719.003906.273437.007813.410156.011719.300781.007813.597657.011719.898438.019531.125 0 .246093.003906.371093.007813.300782.003906.605469.007812.914063.011719.121094.003906.242187.003906.367187.007812.0625 0 .117188.003906.179688.003906v-.003906c.765625.007812 1.53125.015625 2.296875.015625 3.371094 0 6.722656-.085937 10.050781-.253906 2.894532-.144531 5.773438-.355469 8.632813-.625.085937-.007813.167969-.015625.253906-.023438.300781-.027343.601563-.058593.902344-.089843.117187-.011719.238281-.023438.359375-.035157.039062-.003906.074218-.007812.113281-.011719 4.121094-.421874 8.203125-.96875 12.242187-1.640624.085938-.015626.171876-.03125.253907-.046876.324219-.054687.648437-.109374.972656-.164062.113281-.019531.226563-.039062.339844-.058594.300781-.050781.601562-.105468.902343-.160156.132813-.023438.265626-.046875.398438-.070312.285156-.054688.566406-.105469.851562-.15625.125-.027344.253907-.050782.382813-.074219.296875-.054688.59375-.113281.886719-.167969.109375-.019531.21875-.042969.328125-.0625.300781-.058594.601562-.117188.902343-.179688.125-.023437.253907-.050781.378907-.074218.285156-.058594.574219-.117188.859375-.175782.128906-.027343.261718-.054687.390625-.082031.28125-.058593.566406-.117187.847656-.175781.136719-.03125.269531-.058594.40625-.085938.273437-.0625.550781-.121093.824219-.179687.0625-.015625.121094-.027344.183594-.042969 4.039062-.890625 8.03125-1.90625 11.976562-3.039062.050781-.015625.101562-.03125.148438-.046875.292968-.082031.582031-.167969.871093-.25.117188-.035157.230469-.070313.351563-.105469.308594-.089844.617187-.183594.925781-.277344.085937-.023437.167969-.046875.25-.074218.351563-.105469.699219-.210938 1.050781-.320313.046875-.015625.097656-.03125.148438-.046875.382812-.117188.765625-.238281 1.148437-.359375.019531-.003906.035157-.007813.054688-.015625 5.578125-1.765625 11.046875-3.773438 16.398437-6.011719.050782-.023437.101563-.042969.152344-.066406.304688-.128906.609375-.253906.914062-.386719.101563-.039062.195313-.082031.292969-.121094.285157-.125.570313-.246093.855469-.371093.105469-.042969.21875-.09375.324219-.140625.285156-.121094.566406-.25.851562-.371094.09375-.039062.183594-.082031.28125-.125.292969-.128906.585938-.261719.878907-.390625.09375-.042969.1875-.085937.285156-.128906.292968-.132813.589844-.265625.886718-.402344.082032-.035156.164063-.070313.246094-.109375.320313-.148438.640625-.292969.960938-.441406.054687-.03125.117187-.054688.175781-.082032.320313-.152343.640625-.300781.960937-.453124.066407-.03125.128907-.0625.195313-.09375.367187-.171876.730469-.347657 1.09375-.519532.007813-.003906.015625-.007812.023437-.011718 3.714844-1.789063 7.367188-3.6875 10.949219-5.699219.082031-.046875.164063-.09375.25-.140625.246094-.136719.492188-.273438.734375-.414063.128906-.074219.257813-.148437.386719-.222656.234375-.128906.46875-.265625.699219-.398437.136718-.078126.269531-.15625.40625-.234376.21875-.128906.4375-.257812.660156-.386718.140625-.082032.285156-.167969.425781-.25.214844-.128906.433594-.253906.648438-.382813.148437-.085937.292969-.175781.4375-.261719.207031-.121093.414062-.246093.621093-.371093.152344-.089844.296876-.179688.449219-.269531.214844-.132813.433594-.265626.648438-.394532.136719-.082031.269531-.164062.402343-.246094.207032-.128906.417969-.257812.621094-.386718.15625-.097656.3125-.191406.464844-.289063.171875-.109375.34375-.214843.519531-.324219.152344-.097656.308594-.191406.464844-.292968 3.480469-2.199219 6.890625-4.507813 10.226563-6.917969.152343-.109375.304687-.21875.457031-.332031.101562-.074219.207031-.148438.308593-.222656.226563-.167969.457032-.332032.683594-.5.101563-.078126.207032-.152344.3125-.230469.210938-.15625.421875-.3125.632813-.472657.121093-.089843.246093-.183593.367187-.273437.214844-.160156.425782-.320313.636719-.480469.097656-.074218.195313-.148437.296875-.226562.226562-.171875.453125-.34375.683594-.519532.085937-.066406.175781-.132812.265625-.203124.238281-.183594.480469-.367188.71875-.554688.050781-.039062.105469-.082031.160156-.125.890625-.695312 1.777344-1.394531 2.65625-2.105469 3.210937-2.582031 6.335937-5.265625 9.375-8.042969v.003907c.117187-.105469.234375-.214844.347656-.320313.089844-.085937.183594-.167968.273438-.25.210937-.195312.417969-.390625.628906-.582031.082031-.078125.164063-.152344.246094-.226563.222656-.207031.441406-.417968.664062-.625.058594-.054687.113281-.105468.171875-.160156.242188-.230468.488282-.460937.730469-.691406.023437-.023438.050781-.050781.078125-.074219 1.445312-1.382812 2.871094-2.785156 4.277344-4.210937 2.894531-2.933594 5.691406-5.953125 8.398437-9.0625h.003907c.089843-.105469.179687-.210938.273437-.316406.039063-.042969.074219-.085938.109375-.128907.226562-.261719.449219-.519531.671875-.78125.039063-.042969.074219-.082031.109375-.128906.226562-.265625.453125-.53125.679688-.796875.015624-.019531.027343-.035156.039062-.050781 1.253906-1.484375 2.488281-2.984375 3.699219-4.503907.007812-.011718.019531-.023437.027343-.035156.210938-.265625.417969-.53125.625-.792968.046876-.058594.09375-.117188.136719-.175782.0625-.078125.125-.15625.183594-.234375h-.003906c2.539062-3.242187 4.980469-6.566406 7.3125-9.964843.039062-.054688.078125-.113282.117187-.171876.09375-.132812.183594-.265624.273438-.398437.144531-.210937.285156-.417969.425781-.628906.078125-.113281.15625-.226563.230469-.34375.152344-.222657.304687-.449219.453125-.675781.046875-.070313.09375-.140626.140625-.210938.578125-.867188 1.148437-1.738281 1.710937-2.613281.039063-.0625.078125-.128907.121094-.1875.160156-.25.320313-.5.480469-.753907.058594-.09375.121094-.191406.179687-.289062.152344-.238281.300781-.472656.449219-.710938.066406-.109374.136719-.21875.203125-.324218.140625-.226563.277344-.449219.417969-.675782.082031-.132812.164062-.265624.246094-.398437.054687-.085937.105468-.175781.160156-.261719 2.148437-3.507812 4.191406-7.089844 6.125-10.742187.023437-.046875.050781-.09375.074218-.140625.085938-.167969.171876-.332032.257813-.5.101563-.191406.203125-.386719.304687-.582032.109376-.207031.21875-.421874.328126-.628906.078124-.15625.160156-.3125.238281-.46875.1875-.363281.371093-.730468.558593-1.097656.042969-.082031.082032-.167969.125-.25.140626-.28125.28125-.5625.421876-.84375.085937-.171875.167968-.339844.25-.507812.101562-.203126.199218-.40625.296874-.609376.085938-.171874.167969-.347656.253907-.519531.097656-.199219.195312-.402343.292969-.605469.082031-.167968.160156-.332031.238281-.496093.101562-.214844.203125-.429688.304687-.644531.078125-.164063.15625-.328126.230469-.488282.097656-.207031.195313-.417968.292969-.625.035156-.078125.070312-.152344.105468-.226562 1.734376-3.734375 3.347657-7.527344 4.847657-11.382813.015625-.035156.027343-.070312.042969-.109375.109374-.277344.214843-.550781.320312-.832031.042969-.109375.085938-.21875.128906-.332031.113282-.296875.226563-.597656.335938-.894532.035156-.09375.074218-.1875.105468-.28125.125-.332031.246094-.664062.371094-.996093.019532-.0625.042969-.125.066406-.183594.289063-.796875.574219-1.589844.859376-2.386719.027343-.082031.054687-.160156.082031-.238281l.328125-.9375c.042968-.132813.089844-.269531.136718-.40625.089844-.261719.179688-.523437.269532-.78125.046875-.152344.101562-.300781.148437-.449219.082031-.246094.164063-.488281.246094-.730468.015625-.050782.035156-.101563.050781-.152344 1.28125-3.898438 2.449219-7.847656 3.492188-11.851563h.003906c.03125-.128906.066406-.253906.097656-.382812.042969-.164063.082032-.328125.125-.488281.058594-.238282.121094-.46875.179688-.707032.046875-.175781.089844-.355468.132812-.535156.054688-.214844.109375-.433594.164063-.652344.046875-.191406.09375-.382812.140625-.570312.050781-.21875.101562-.429688.15625-.648438.042968-.191406.089844-.386718.136718-.582031.050782-.210937.097657-.421875.148438-.632813.046875-.203124.09375-.410156.140625-.617187.042969-.195313.089844-.390625.136719-.585937.046875-.21875.09375-.433594.140625-.648438.046875-.203125.089843-.402344.136719-.605469.039062-.191406.082031-.386719.125-.582031.046874-.214844.09375-.425781.136718-.640625.046875-.207031.089844-.417969.132813-.625.035156-.175781.074219-.351563.109375-.523437.558594-2.714844 1.058594-5.453126 1.503906-8.210938.015625-.101562.03125-.203125.050781-.304688.011719-.089843.027344-.179687.042969-.269531.042969-.28125.085938-.566406.132812-.847656.015626-.117187.035157-.238281.050782-.355469.046875-.289062.085937-.578125.132812-.867187.011719-.089844.023438-.179688.039063-.269531.050781-.347657.101562-.699219.148437-1.050782.007813-.035156.011719-.070312.015625-.105468.015625-.105469.03125-.214844.042969-.320313.03125-.210937.058594-.421875.089844-.636719.007812-.058594.015625-.117187.023437-.179687.011719-.082031.019531-.167969.035157-.253907 0-.019531.003906-.042968.007812-.0625.027344-.226562.058594-.453124.085938-.675781.011718-.078125.019531-.15625.03125-.234375.007812-.0625.015624-.125.023437-.1875 0-.015625.003906-.03125.007813-.046875.035156-.296875.070312-.59375.109374-.890625.003907-.042968.007813-.085937.015626-.128906.007812-.070312.015624-.140625.023437-.214844.003906-.039062.011719-.078125.015625-.117187.035156-.289063.066406-.578125.101562-.867188.003907-.023437.007813-.046875.007813-.070312.007813-.066407.015625-.132813.023437-.199219.007813-.070312.015626-.140625.023438-.210938.027344-.234374.050781-.46875.078125-.707031 0-.007812 0-.019531.003906-.03125.007813-.085937.019531-.171875.027344-.261719.007813-.054687.011719-.105468.019531-.160156.027344-.265625.054688-.53125.082032-.800781.011718-.117187.023437-.238281.035156-.355469.039062-.375.074218-.75.113281-1.125.011719-.117187.019531-.234375.03125-.351562.023437-.269532.050781-.542969.074219-.8125.003906-.074219.011718-.144532.019531-.21875.007813-.214844.023437-.429688.042969-.640625zm0 0"/><path d="m161.179688 59.746094c3.023437-1.179688 6.089843-2.285156 9.191406-3.3125l-3.144532-9.492188c-3.269531 1.082032-6.5 2.246094-9.6875 3.492188zm0 0"/></g><path d="m314.070312 225.132812c-1.949218-.007812-3.859374.15625-5.71875.472657l-8.347656-9.871094c-1.273437-1.503906-3.441406-1.882813-5.148437-.90625l-8.578125 4.898437c-1.710938.980469-2.480469 3.039063-1.832032 4.898438l4.265626 12.210938c-2.460938 2.902343-4.429688 6.238281-5.773438 9.875l-12.714844 2.296874c-1.9375.351563-3.351562 2.035157-3.359375 4.003907l-.046875 9.875c-.007812 1.972656 1.390625 3.667969 3.324219 4.035156l12.695313 2.410156c1.3125 3.648438 3.25 7.003907 5.683593 9.929688l-4.375 12.171875c-.664062 1.851562.085938 3.917968 1.789063 4.910156l8.53125 4.976562c1.699218.992188 3.871094.628907 5.15625-.863281l8.433594-9.792969c1.859374.335938 3.769531.515626 5.71875.523438 1.953124.007812 3.863281-.152344 5.722656-.46875l8.351562 9.867188c1.269532 1.503906 3.433594 1.886718 5.144532.90625l8.578124-4.898438c1.710938-.976562 2.480469-3.035156 1.832032-4.894531l-4.265625-12.210938c2.460937-2.90625 4.425781-6.242187 5.773437-9.878906l12.714844-2.296875c1.9375-.347656 3.351562-2.03125 3.359375-4.003906l.046875-9.875c.007812-1.96875-1.390625-3.664063-3.328125-4.035156l-12.691406-2.40625c-1.3125-3.648438-3.25-7.003907-5.6875-9.929688l4.375-12.167969c.667969-1.855469-.082031-3.921875-1.789063-4.914062l-8.53125-4.972657c-1.699218-.996093-3.867187-.632812-5.15625.859376l-8.4375 9.792968c-1.851562-.339844-3.761718-.519531-5.714844-.527344zm16.367188 33.097657c-.042969 9.121093-7.46875 16.480469-16.585938 16.441406-9.121093-.042969-16.480468-7.46875-16.441406-16.585937.042969-9.121094 7.46875-16.480469 16.589844-16.441407 9.117188.042969 16.476562 7.46875 16.4375 16.585938zm0 0" fill="#ffcc34"/><path d="m330.4375 258.230469c-.042969 9.121093-7.46875 16.480469-16.585938 16.441406-9.121093-.042969-16.480468-7.46875-16.441406-16.585937.042969-9.121094 7.46875-16.480469 16.589844-16.441407 9.117188.042969 16.476562 7.46875 16.4375 16.585938zm0 0" fill="#fff"/><path d="m335.4375 258.195312v-.039062c0-5.902344-2.402344-11.296875-6.265625-15.175781-3.832031-3.855469-9.167969-6.277344-15.03125-6.332031h-.007813c-.035156 0-.074218-.003907-.109374-.003907h-.097657c-5.90625-.003906-11.300781 2.398438-15.175781 6.261719-3.882812 3.859375-6.3125 9.246094-6.335938 15.152344l-.003906.097656c0 5.90625 2.402344 11.300781 6.265625 15.175781 3.859375 3.882813 9.246094 6.3125 15.152344 6.335938h.101563c5.898437.003906 11.296874-2.398438 15.171874-6.265625 3.882813-3.855469 6.3125-9.242188 6.335938-15.148438zm-13.390625 8.121094c-2.097656 2.082032-4.9375 3.351563-8.121094 3.355469h-.054687c-3.183594-.019531-6.019532-1.300781-8.105469-3.394531-2.078125-2.09375-3.351563-4.929688-3.355469-8.109375v-.0625c.019532-3.183594 1.300782-6.019531 3.394532-8.109375 2.097656-2.078125 4.9375-3.347656 8.121093-3.351563h.050781c3.1875.015625 6.019532 1.300781 8.109376 3.390625 2.078124 2.097656 3.351562 4.9375 3.351562 8.121094v.054688c-.015625 3.183593-1.300781 6.019531-3.390625 8.105468zm0 0" fill="#122436"/><path d="m366.03125 253.324219c-.046875-4.328125-3.132812-8.027344-7.390625-8.839844l-10.019531-1.898437c-1.015625-2.261719-2.246094-4.402344-3.664063-6.402344l3.449219-9.605469c.363281-1.003906.539062-2.046875.539062-3.070313 0-3.15625-1.65625-6.183593-4.511718-7.851562l-8.53125-4.972656c-1.417969-.832032-3.011719-1.242188-4.574219-1.238282-2.5625-.003906-5.113281 1.09375-6.886719 3.15625l-6.660156 7.726563c-1.210938-.121094-2.441406-.1875-3.683594-.191406h-.171875c-1.1875 0-2.359375.054687-3.515625.160156l-6.589844-7.789063c-1.777343-2.097656-4.347656-3.222656-6.941406-3.21875-1.53125 0-3.101562.394532-4.511718 1.199219l.007812-.003906-8.578125 4.902344c-2.894531 1.65625-4.582031 4.703125-4.578125 7.890625 0 .996094.164062 2.015625.511719 3.003906l-.003907-.007812 3.367188 9.632812c-1.4375 1.988281-2.6875 4.117188-3.722656 6.371094l-10.03125 1.8125c-4.3125.777344-7.453125 4.519531-7.472656 8.898437l-.046876 9.878907v.039062c0 4.363281 3.101563 8.109375 7.390626 8.929688l10.015624 1.898437c1.015626 2.261719 2.25 4.402344 3.667969 6.402344l-3.449219 9.605469v-.003907c-.359374 1.003907-.539062 2.046875-.539062 3.074219 0 3.160156 1.65625 6.179688 4.507812 7.851562l8.535157 4.976563c1.421875.832031 3.015625 1.242187 4.574219 1.238281 2.566406.003906 5.109374-1.09375 6.882812-3.152344l.003906-.003906 6.660156-7.730468c1.214844.125 2.445313.191406 3.6875.195312h.171876c1.183593 0 2.355468-.054688 3.511718-.160156l6.59375 7.789062c1.773438 2.097656 4.34375 3.21875 6.9375 3.214844 1.535156.003906 3.097656-.394531 4.5-1.191406l.007813-.003906 8.574219-4.898438c2.898437-1.660156 4.582031-4.707031 4.582031-7.894531 0-1-.167969-2.011719-.507813-2.992188l-3.363281-9.636719c1.433594-1.984374 2.683594-4.117187 3.71875-6.367187l10.035156-1.8125c4.3125-.78125 7.453125-4.519531 7.472657-8.902344l.042968-9.875v-.023437zm-10.042969 9.203125-14.777343 2.667968-.992188 2.679688c-1.136719 3.082031-2.808594 5.910156-4.898438 8.382812l-1.84375 2.179688 4.957032 14.1875-7.257813 4.148438-9.703125-11.46875-2.8125.480468c-1.539062.261719-3.117187.398438-4.730468.398438h-.128907c-1.660156-.007813-3.28125-.160156-4.859375-.445313l-2.808594-.503906-9.800781 11.382813-7.21875-4.214844 5.082031-14.144532-1.828124-2.199218c-2.070313-2.488282-3.714844-5.332032-4.824219-8.421875l-.964844-2.6875-14.753906-2.800781.039062-8.355469 14.777344-2.667969.992187-2.679688c1.140626-3.082031 2.808594-5.910156 4.898438-8.382812l1.847656-2.179688-4.957031-14.191406 7.257813-4.144531 9.703124 11.464844 2.8125-.480469c1.539063-.261719 3.117188-.398438 4.734376-.398438h.125l.023437-5-.023437 5c1.660156.007813 3.285156.160157 4.859374.441407l2.808594.503906 9.804688-11.378906 7.214844 4.210937-5.082032 14.144532 1.828125 2.199218c2.066407 2.488282 3.710938 5.332032 4.820313 8.421875l.96875 2.6875 14.753906 2.800781zm0 0" fill="#122436"/><path d="m58.785156 199.15625c-6.589844 0-11.953125-5.359375-11.953125-11.949219 0-5.5-4.460937-9.960937-9.960937-9.960937s-9.960938 4.460937-9.960938 9.960937c0 6.589844-5.359375 11.949219-11.949218 11.949219-5.5 0-9.960938 4.460938-9.960938 9.960938s4.460938 9.960937 9.960938 9.960937c6.589843 0 11.949218 5.363281 11.949218 11.953125 0 5.5 4.460938 9.957031 9.960938 9.957031s9.960937-4.457031 9.960937-9.957031c0-6.59375 5.363281-11.953125 11.953125-11.953125 5.5 0 9.957032-4.460937 9.957032-9.960937s-4.457032-9.960938-9.957032-9.960938zm0 0" fill="#ffcc34"/><path d="m69.363281 198.539062c-2.691406-2.699218-6.464843-4.382812-10.578125-4.382812-1.925781 0-3.636718-.769531-4.914062-2.039062-1.269532-1.277344-2.035156-2.984376-2.039063-4.910157.003907-4.117187-1.683593-7.886719-4.382812-10.578125-2.691407-2.699218-6.460938-4.386718-10.578125-4.382812-4.113282-.003906-7.886719 1.683594-10.578125 4.382812-2.699219 2.691406-4.382813 6.460938-4.382813 10.578125 0 1.925781-.769531 3.632813-2.039062 4.910157-1.277344 1.269531-2.984375 2.039062-4.910156 2.039062-4.117188 0-7.886719 1.683594-10.578126 4.382812-2.699218 2.691407-4.38671825 6.464844-4.382812 10.578126-.00390625 4.117187 1.683594 7.886718 4.382812 10.578124 2.691407 2.699219 6.460938 4.382813 10.578126 4.382813 1.925781 0 3.632812.769531 4.910156 2.039063 1.269531 1.277343 2.039062 2.988281 2.039062 4.914062 0 4.113281 1.683594 7.882812 4.382813 10.578125 2.691406 2.699219 6.464843 4.382813 10.578125 4.378906 4.117187.003907 7.886718-1.679687 10.578125-4.378906 2.699219-2.695313 4.386719-6.464844 4.382812-10.578125.003907-1.925781.769531-3.636719 2.039063-4.914062 1.277344-1.269532 2.988281-2.039063 4.914062-2.039063 4.113282 0 7.886719-1.683594 10.578125-4.382813 2.699219-2.691406 4.382813-6.460937 4.378907-10.578124.003906-4.113282-1.679688-7.886719-4.378907-10.578126zm-7.070312 14.085938c-.914063.90625-2.121094 1.449219-3.507813 1.453125-4.664062-.003906-8.929687 1.910156-11.984375 4.96875-3.058593 3.050781-4.96875 7.316406-4.964843 11.984375-.003907 1.382812-.550782 2.59375-1.457032 3.503906-.914062.90625-2.121094 1.449219-3.503906 1.453125-1.386719 0-2.59375-.546875-3.507812-1.453125-.90625-.914062-1.449219-2.121094-1.453126-3.503906 0-4.667969-1.910156-8.933594-4.96875-11.984375-3.050781-3.058594-7.316406-4.972656-11.984374-4.96875-1.382813-.003906-2.59375-.546875-3.503907-1.453125-.90625-.914062-1.449219-2.121094-1.453125-3.507812 0-1.382813.546875-2.59375 1.453125-3.507813.914063-.90625 2.121094-1.449219 3.503907-1.453125 4.667968 0 8.933593-1.910156 11.984374-4.96875 3.058594-3.050781 4.96875-7.316406 4.96875-11.984375 0-1.382813.546876-2.59375 1.453126-3.507813.914062-.90625 2.121093-1.449218 3.507812-1.453124 1.382812 0 2.59375.546874 3.503906 1.453124.90625.914063 1.449219 2.121094 1.457032 3.507813-.003907 4.667969 1.90625 8.933594 4.964843 11.984375 3.054688 3.058594 7.320313 4.972656 11.984375 4.96875 1.386719 0 2.59375.546875 3.507813 1.453125.90625.914063 1.449219 2.121094 1.453125 3.507813-.003906 1.386718-.550782 2.59375-1.453125 3.507812zm0 0" fill="#122436"/><path d="m443.554688 199.15625c-6.589844 0-11.949219-5.359375-11.949219-11.949219 0-5.5-4.460938-9.960937-9.960938-9.960937s-9.960937 4.460937-9.960937 9.960937c0 6.589844-5.363282 11.949219-11.953125 11.949219-5.5 0-9.957031 4.460938-9.957031 9.960938s4.457031 9.960937 9.957031 9.960937c6.589843 0 11.953125 5.363281 11.953125 11.953125 0 5.5 4.460937 9.957031 9.960937 9.957031s9.960938-4.457031 9.960938-9.957031c0-6.59375 5.359375-11.953125 11.949219-11.953125 5.5 0 9.960937-4.460937 9.960937-9.960937s-4.460937-9.960938-9.960937-9.960938zm0 0" fill="#ffcc34"/><path d="m454.132812 198.539062c-2.691406-2.699218-6.460937-4.382812-10.578124-4.382812-1.925782 0-3.632813-.769531-4.910157-2.039062-1.269531-1.277344-2.039062-2.984376-2.039062-4.910157 0-4.117187-1.683594-7.886719-4.382813-10.578125-2.691406-2.699218-6.460937-4.386718-10.578125-4.382812-4.117187-.003906-7.886719 1.683594-10.578125 4.382812-2.699218 2.691406-4.382812 6.460938-4.382812 10.578125 0 1.925781-.769532 3.632813-2.039063 4.910157-1.277343 1.269531-2.988281 2.039062-4.914062 2.039062-4.113281 0-7.882813 1.683594-10.578125 4.382812-2.699219 2.691407-4.382813 6.464844-4.378906 10.578126-.003907 4.117187 1.679687 7.886718 4.378906 10.578124 2.695312 2.699219 6.464844 4.382813 10.578125 4.382813 1.925781 0 3.636719.769531 4.914062 2.039063 1.269531 1.277343 2.039063 2.988281 2.039063 4.914062 0 4.113281 1.683594 7.882812 4.382812 10.578125 2.691406 2.699219 6.460938 4.382813 10.578125 4.378906 4.117188.003907 7.886719-1.679687 10.578125-4.378906 2.699219-2.695313 4.382813-6.464844 4.382813-10.578125 0-1.925781.769531-3.636719 2.039062-4.914062 1.277344-1.269532 2.984375-2.039063 4.910157-2.039063 4.117187 0 7.886718-1.683594 10.578124-4.382813 2.703126-2.691406 4.386719-6.460937 4.382813-10.578124.003906-4.113282-1.679687-7.886719-4.382813-10.578126zm-7.070312 14.085938c-.914062.90625-2.121094 1.449219-3.507812 1.453125-4.664063-.003906-8.929688 1.910156-11.984376 4.96875-3.054687 3.050781-4.96875 7.316406-4.964843 11.984375-.003907 1.382812-.550781 2.59375-1.457031 3.503906-.914063.90625-2.121094 1.449219-3.503907 1.453125-1.382812 0-2.59375-.546875-3.507812-1.453125-.90625-.914062-1.449219-2.121094-1.453125-3.503906 0-4.667969-1.910156-8.933594-4.96875-11.984375-3.054688-3.058594-7.320313-4.972656-11.984375-4.96875-1.382813-.003906-2.59375-.546875-3.507813-1.453125-.90625-.914062-1.449218-2.121094-1.453125-3.507812.003907-1.382813.546875-2.59375 1.453125-3.507813.914063-.90625 2.125-1.449219 3.507813-1.453125 4.664062 0 8.929687-1.910156 11.984375-4.96875 3.058594-3.050781 4.972656-7.316406 4.96875-11.984375 0-1.382813.546875-2.59375 1.453125-3.507813.914062-.90625 2.121093-1.449218 3.507812-1.453124 1.382813 0 2.59375.546874 3.503907 1.453124.90625.914063 1.453124 2.121094 1.457031 3.507813-.003907 4.667969 1.910156 8.933594 4.964843 11.984375 3.054688 3.058594 7.320313 4.972656 11.984376 4.96875 1.386718 0 2.59375.546875 3.507812 1.453125.90625.914063 1.449219 2.121094 1.453125 3.507813 0 1.386718-.546875 2.59375-1.453125 3.507812zm0 0" fill="#122436"/><path d="m251.171875 27.171875c-6.59375 0-11.953125-5.363281-11.953125-11.953125 0-5.5-4.460938-9.960938-9.960938-9.960938s-9.960937 4.460938-9.960937 9.960938c0 6.589844-5.359375 11.953125-11.949219 11.953125-5.5 0-9.960937 4.457031-9.960937 9.957031s4.460937 9.960938 9.960937 9.960938c6.589844 0 11.949219 5.363281 11.949219 11.953125 0 5.5 4.460937 9.960937 9.960937 9.960937s9.960938-4.460937 9.960938-9.960937c0-6.589844 5.359375-11.953125 11.953125-11.953125 5.5 0 9.957031-4.457032 9.957031-9.960938 0-5.5-4.457031-9.957031-9.957031-9.957031zm0 0" fill="#ffcc34"/><path d="m261.746094 26.550781c-2.691406-2.699219-6.460938-4.382812-10.574219-4.378906-1.929687-.003906-3.636719-.773437-4.914063-2.042969-1.269531-1.277344-2.039062-2.984375-2.039062-4.910156 0-4.117188-1.683594-7.886719-4.382812-10.578125-2.691407-2.699219-6.460938-4.382813-10.578126-4.382813-4.117187 0-7.886718 1.683594-10.578124 4.382813-2.699219 2.691406-4.382813 6.460937-4.382813 10.578125 0 1.925781-.769531 3.632812-2.039063 4.910156-1.277343 1.269532-2.984374 2.039063-4.910156 2.042969-4.117187-.003906-7.886718 1.679687-10.578125 4.378906-2.703125 2.691407-4.386719 6.464844-4.382812 10.578125-.003907 4.117188 1.679687 7.890625 4.382812 10.578125 2.691407 2.699219 6.460938 4.386719 10.578125 4.382813 1.925782.003906 3.632813.769531 4.910156 2.039062 1.269532 1.277344 2.039063 2.988282 2.039063 4.914063 0 4.113281 1.683594 7.886719 4.382813 10.578125 2.691406 2.699218 6.460937 4.382812 10.578124 4.382812 4.113282 0 7.886719-1.683594 10.578126-4.382812 2.699218-2.691406 4.382812-6.464844 4.382812-10.578125 0-1.925781.769531-3.636719 2.039062-4.914063 1.277344-1.269531 2.984376-2.035156 4.914063-2.039062 4.113281.003906 7.882813-1.683594 10.574219-4.382813 2.703125-2.691406 4.386718-6.460937 4.382812-10.578125.003906-4.113281-1.679687-7.886718-4.382812-10.578125zm-7.066406 14.085938c-.914063.90625-2.125 1.453125-3.507813 1.453125-4.664063 0-8.933594 1.910156-11.984375 4.96875-3.058594 3.050781-4.972656 7.316406-4.96875 11.984375 0 1.386719-.546875 2.59375-1.453125 3.507812-.914063.90625-2.121094 1.449219-3.503906 1.453125-1.386719 0-2.597657-.546875-3.507813-1.453125-.90625-.914062-1.453125-2.121093-1.457031-3.507812.003906-4.667969-1.910156-8.933594-4.96875-11.984375-3.050781-3.058594-7.316406-4.972656-11.980469-4.96875-1.386718 0-2.59375-.546875-3.507812-1.453125-.90625-.914063-1.453125-2.121094-1.453125-3.507813 0-1.382812.546875-2.59375 1.453125-3.507812.914062-.90625 2.121094-1.449219 3.507812-1.453125 4.664063.003906 8.929688-1.910157 11.980469-4.96875 3.058594-3.050781 4.972656-7.316407 4.96875-11.984375.003906-1.382813.550781-2.59375 1.457031-3.503906.910156-.90625 2.121094-1.449219 3.507813-1.453126 1.382812 0 2.59375.546876 3.503906 1.453126.90625.914062 1.449219 2.121093 1.453125 3.503906 0 4.667968 1.910156 8.933594 4.96875 11.984375 3.050781 3.058593 7.320312 4.972656 11.984375 4.96875 1.382813.003906 2.59375.546875 3.507813 1.453125.90625.914062 1.449218 2.121094 1.453124 3.507812-.003906 1.386719-.550781 2.59375-1.453124 3.507813zm0 0" fill="#122436"/><path d="m155.667969 187.230469 145.3125-82.148438 31.988281 56.582031-145.3125 82.148438zm0 0" fill="#4ea3da"/><path d="m155.667969 187.230469 145.3125-82.148438 8.457031 14.960938-145.3125 82.144531zm0 0" fill="#fff"/><path d="m337.335938 159.210938-34.449219-60.9375-154.023438 87.066406 36.910157 65.289062 154.019531-87.066406zm-174.847657 29.914062 136.613281-77.226562 27.066407 47.878906-136.613281 77.226562zm0 0" fill="#122436"/><path d="m110.683594 226.445312 50.886718-28.769531 20.175782 35.691407-50.886719 28.765624zm0 0" fill="#4ea3da"/><path d="m110.6875 226.4375 50.886719-28.769531 6.0625 10.726562-50.886719 28.765625zm0 0" fill="#fff"/><path d="m80.667969 226.175781 22.632812-12.792969 34.941407 61.804688-22.632813 12.792969zm0 0" fill="#4ea3da"/><path d="m80.667969 226.179688 22.632812-12.796876 9.550781 16.894532-22.632812 12.796875zm0 0" fill="#fff"/><path d="m137.679688 264.03125 50.890624-28.765625-2.460937-4.355469-22.636719-40.042968-50.890625 28.769531-7.382812-13.058594-31.339844 17.714844 39.859375 70.515625 31.339844-17.714844-2.457032-4.355469zm22.007812-59.539062 15.257812 26.984374-42.183593 23.847657-15.257813-26.984375zm-72.199219 23.582031 13.925781-7.871094 30.019532 53.101563-13.925782 7.875zm0 0" fill="#122436"/><path d="m294.585938 93.769531 82.261718-46.503906 44.78125 79.21875-82.261718 46.503906zm0 0" fill="#4ea3da"/><path d="m294.585938 93.769531 82.261718-46.503906 10.046875 17.773437-82.261719 46.5zm0 0" fill="#fff"/><path d="m425.996094 124.023438-47.242188-83.574219-90.96875 51.429687 49.699219 87.921875 90.972656-51.425781zm-11.167969.570312-13.054687 7.378906-39.863282-70.511718 13.058594-7.382813zm-113.417969-28.933594 51.796875-29.277344 39.859375 70.511719-51.796875 29.28125zm0 0" fill="#122436"/><path d="m260.308594 216.285156c0 17.148438-13.902344 31.050782-31.050782 31.050782-17.148437 0-31.050781-13.902344-31.050781-31.050782 0-17.152344 13.902344-31.054687 31.050781-31.054687 17.148438 0 31.050782 13.902343 31.050782 31.054687zm0 0" fill="#fff"/><path d="m242.34375 216.285156c0 7.226563-5.859375 13.082032-13.085938 13.082032-7.226562 0-13.082031-5.855469-13.082031-13.082032 0-7.226562 5.855469-13.085937 13.082031-13.085937 7.226563 0 13.085938 5.859375 13.085938 13.085937zm0 0" fill="#4ea3da"/><path d="m229.257812 180.230469c-19.910156.003906-36.046874 16.140625-36.050781 36.054687.003907 19.910156 16.140625 36.046875 36.050781 36.050782 19.914063-.007813 36.046876-16.140626 36.050782-36.050782-.003906-19.914062-16.136719-36.050781-36.050782-36.054687zm18.421876 54.472656c-4.730469 4.722656-11.210938 7.628906-18.421876 7.632813-7.210937-.003907-13.691406-2.910157-18.417968-7.632813-4.722656-4.730469-7.628906-11.210937-7.632813-18.417969.003907-7.210937 2.910157-13.691406 7.632813-18.421875 4.726562-4.722656 11.207031-7.628906 18.417968-7.632812 7.210938.003906 13.691407 2.910156 18.421876 7.632812 4.71875 4.730469 7.625 11.210938 7.628906 18.421875-.003906 7.207032-2.910156 13.6875-7.628906 18.417969zm0 0" fill="#122436"/><path d="m224.257812 247.335938h10v65.78125h-10zm0 0" fill="#122436"/><path d="m319.257812 438.617188-75.710937-125.5h-28.582031l-75.707032 125.5h28.582032l47.125-87.933594v87.933594h28.582031v-87.933594l47.128906 87.933594zm0 0" fill="#4ea3da"/><path d="m323.539062 436.035156-77.167968-127.917968h-34.226563l-81.742187 135.5h40.433594l39.128906-73.019532v73.019532h38.582031v-73.019532l39.132813 73.019532h40.433593zm-84.992187-105.265625v102.847657h-18.582031v-102.851563l-55.117188 102.851563h-16.734375l69.675781-115.5h22.933594l69.675782 115.5h-16.734376zm0 0" fill="#122436"/></svg>