<svg height="496pt" viewBox="0 0 496 496" width="496pt" xmlns="http://www.w3.org/2000/svg"><path d="m272 49.472656v-25.472656c0-13.230469-10.769531-24-24-24h-208c-13.230469 0-24 10.769531-24 24v25.472656c-9.289062 3.3125-16 12.113282-16 22.527344v424h288v-424c0-10.414062-6.710938-19.214844-16-22.527344zm-232-33.472656h208c4.414062 0 8 3.59375 8 8v24h-224v-24c0-4.40625 3.585938-8 8-8zm136 464h-24v-80h24zm-40 0h-24v-80h24zm136 0h-80v-96h-96v96h-80v-408c0-4.40625 3.585938-8 8-8h240c4.414062 0 8 3.59375 8 8zm0 0"/><path d="m64 176c-17.648438 0-32 14.351562-32 32v48h64v-48c0-17.648438-14.351562-32-32-32zm16 64h-32v-32c0-8.824219 7.175781-16 16-16s16 7.175781 16 16zm0 0"/><path d="m144 176c-17.648438 0-32 14.351562-32 32v48h64v-48c0-17.648438-14.351562-32-32-32zm16 64h-32v-32c0-8.824219 7.175781-16 16-16s16 7.175781 16 16zm0 0"/><path d="m224 176c-17.648438 0-32 14.351562-32 32v48h64v-48c0-17.648438-14.351562-32-32-32zm16 64h-32v-32c0-8.824219 7.175781-16 16-16s16 7.175781 16 16zm0 0"/><path d="m224 272c-17.648438 0-32 14.351562-32 32v48h64v-48c0-17.648438-14.351562-32-32-32zm16 64h-32v-32c0-8.824219 7.175781-16 16-16s16 7.175781 16 16zm0 0"/><path d="m64 80c-17.648438 0-32 14.351562-32 32v48h64v-48c0-17.648438-14.351562-32-32-32zm16 64h-32v-32c0-8.824219 7.175781-16 16-16s16 7.175781 16 16zm0 0"/><path d="m144 80c-17.648438 0-32 14.351562-32 32v48h64v-48c0-17.648438-14.351562-32-32-32zm16 64h-32v-32c0-8.824219 7.175781-16 16-16s16 7.175781 16 16zm0 0"/><path d="m224 80c-17.648438 0-32 14.351562-32 32v48h64v-48c0-17.648438-14.351562-32-32-32zm16 64h-32v-32c0-8.824219 7.175781-16 16-16s16 7.175781 16 16zm0 0"/><path d="m64 272c-17.648438 0-32 14.351562-32 32v48h64v-48c0-17.648438-14.351562-32-32-32zm16 64h-32v-32c0-8.824219 7.175781-16 16-16s16 7.175781 16 16zm0 0"/><path d="m144 272c-17.648438 0-32 14.351562-32 32v48h64v-48c0-17.648438-14.351562-32-32-32zm16 64h-32v-32c0-8.824219 7.175781-16 16-16s16 7.175781 16 16zm0 0"/><path d="m480 128v-30.414062l-80-17.777344-80 17.777344v30.414062h-16v368h192v-368zm-144-17.585938 64-14.222656 64 14.222656v17.585938h-128zm96 369.585938h-64v-32c0-17.648438 14.351562-32 32-32s32 14.351562 32 32zm48 0h-32v-32c0-26.472656-21.527344-48-48-48s-48 21.527344-48 48v32h-32v-336h160zm0 0"/><path d="m464 160h-128v64h128zm-16 48h-96v-32h96zm0 0"/><path d="m464 240h-128v64h128zm-16 48h-96v-32h96zm0 0"/><path d="m464 320h-128v64h128zm-16 48h-96v-32h96zm0 0"/></svg>