<?xml version="1.0" encoding="iso-8859-1"?>
<!-- Generator: Adobe Illustrator 19.0.0, SVG Export Plug-In . SVG Version: 6.00 Build 0)  -->
<svg version="1.1" id="Capa_1" xmlns="http://www.w3.org/2000/svg" xmlns:xlink="http://www.w3.org/1999/xlink" x="0px" y="0px"
	 viewBox="0 0 496 496" style="enable-background:new 0 0 496 496;" xml:space="preserve">
<g>
	<g>
		<g>
			<path d="M293.264,128.8l-14.272,14.264c-2.272-1.08-4.6-2.048-6.984-2.888V120h-48v20.176c-2.384,0.84-4.712,1.808-6.984,2.888
				L202.752,128.8l-33.936,33.944l14.264,14.272c-1.08,2.272-2.048,4.608-2.888,6.984H160v48h20.176
				c0.84,2.376,1.816,4.712,2.888,6.984L168.8,253.256l33.936,33.944l14.272-14.264c2.272,1.08,4.6,2.048,6.984,2.888V296h48
				v-20.176c2.384-0.84,4.712-1.808,6.984-2.888l14.272,14.264l33.936-33.944l-14.264-14.272c1.08-2.272,2.048-4.608,2.888-6.984
				H336v-48h-20.176c-0.84-2.376-1.816-4.712-2.888-6.984l14.264-14.272L293.264,128.8z M320,200v16h-16.288l-1.544,6
				c-1.312,5.072-3.32,9.92-5.968,14.4l-3.152,5.336l11.52,11.52l-11.312,11.32l-11.52-11.52l-5.344,3.16
				c-4.472,2.64-9.312,4.64-14.392,5.952l-6,1.536V280h-16v-16.296l-6-1.544c-5.08-1.312-9.92-3.312-14.392-5.952l-5.344-3.16
				l-11.52,11.52l-11.312-11.32l11.52-11.52l-3.152-5.336c-2.648-4.48-4.656-9.328-5.968-14.4L192.288,216H176v-16h16.288l1.544-6
				c1.312-5.072,3.32-9.92,5.968-14.4l3.152-5.336l-11.52-11.52l11.312-11.32l11.52,11.52l5.344-3.16
				c4.472-2.64,9.312-4.64,14.392-5.952l6-1.536V136h16v16.296l6,1.544c5.08,1.312,9.92,3.312,14.392,5.952l5.344,3.16l11.52-11.52
				l11.312,11.32l-11.52,11.52l3.152,5.336c2.648,4.48,4.656,9.328,5.968,14.4l1.544,5.992H320z"/>
			<path d="M248,176c-17.648,0-32,14.352-32,32s14.352,32,32,32s32-14.352,32-32S265.648,176,248,176z M248,224
				c-8.824,0-16-7.176-16-16c0-8.824,7.176-16,16-16c8.824,0,16,7.176,16,16C264,216.824,256.824,224,248,224z"/>
			<path d="M472,184c-10.416,0-19.216,6.712-22.528,16h-81.88c-1.064-16.024-5.264-31.16-12.032-44.864l36.344-20.976
				c4.368,3.704,9.832,5.84,15.488,5.84c4.072,0,8.192-1.032,11.96-3.208c5.552-3.2,9.52-8.376,11.176-14.568
				s0.808-12.664-2.4-18.208c-3.2-5.552-8.376-9.528-14.568-11.184c-6.192-1.664-12.664-0.808-18.208,2.392
				c-5.552,3.208-9.52,8.376-11.184,14.576c-0.936,3.504-0.984,7.088-0.344,10.552l-36.176,20.888
				c-8.736-13-19.944-24.192-32.952-32.92l34.152-60.624C349.896,47.824,350.92,48,352,48c13.232,0,24-10.768,24-24S365.232,0,352,0
				s-24,10.768-24,24c0,6.36,2.528,12.12,6.584,16.416L300.792,100.4c-13.68-6.744-28.8-10.936-44.792-11.992v-41.88
				c9.288-3.312,16-12.112,16-22.528c0-13.232-10.768-24-24-24s-24,10.768-24,24c0,10.416,6.712,19.216,16,22.528v41.88
				c-15.992,1.064-31.112,5.256-44.792,11.992l-33.792-59.984C165.472,36.12,168,30.36,168,24c0-13.232-10.768-24-24-24
				s-24,10.768-24,24s10.768,24,24,24c1.08,0,2.104-0.176,3.144-0.32l34.152,60.624c-13,8.728-24.208,19.92-32.952,32.92
				l-36.176-20.888c0.64-3.472,0.6-7.048-0.344-10.552c-1.664-6.192-5.632-11.368-11.184-14.568
				c-5.544-3.208-12.008-4.064-18.208-2.4C76.24,94.48,71.072,98.448,67.864,104c-3.2,5.552-4.056,12.016-2.4,18.216
				c1.656,6.192,5.624,11.368,11.176,14.568c3.776,2.176,7.888,3.208,11.96,3.208c5.648,0,11.112-2.136,15.488-5.84l36.344,20.976
				c-6.76,13.704-10.968,28.84-12.032,44.864H46.528C43.216,190.712,34.416,184,24,184c-13.232,0-24,10.768-24,24s10.768,24,24,24
				c10.416,0,19.216-6.712,22.528-16h81.752c1.064,15.76,5.296,30.976,12.152,44.864l-36.28,20.944
				c-7.52-6.384-18.496-7.792-27.504-2.592c-5.552,3.2-9.52,8.376-11.176,14.568c-1.656,6.192-0.808,12.664,2.4,18.208
				c3.2,5.552,8.376,9.528,14.568,11.184c2.072,0.552,4.168,0.832,6.248,0.832c4.16,0,8.264-1.088,11.96-3.224
				c5.552-3.208,9.52-8.376,11.184-14.576c0.936-3.504,0.984-7.088,0.344-10.552l36.288-20.952
				c9.208,13.72,21.216,25.632,35.536,34.696V328h-16v16h16v16h-16v16h16v32h128v-32h16v-16h-16v-16h16v-16h-16v-18.6
				c14.32-9.064,26.328-20.976,35.536-34.696l36.288,20.952c-0.64,3.472-0.6,7.048,0.344,10.552
				c1.664,6.192,5.632,11.368,11.184,14.568c3.696,2.136,7.8,3.224,11.96,3.224c2.088,0,4.176-0.272,6.248-0.832
				c6.192-1.656,11.368-5.632,14.568-11.176c3.2-5.552,4.056-12.016,2.4-18.216c-1.656-6.192-5.624-11.368-11.176-14.568
				c-9.024-5.2-19.984-3.792-27.504,2.592l-36.28-20.944c6.856-13.888,11.088-29.104,12.152-44.864h81.752
				c3.312,9.288,12.112,16,22.528,16c13.232,0,24-10.768,24-24S485.232,184,472,184z M399.616,113.928
				c0.552-2.064,1.88-3.792,3.736-4.856c1.232-0.712,2.6-1.072,3.984-1.072c0.696,0,1.4,0.096,2.088,0.28
				c2.064,0.552,3.784,1.872,4.848,3.728c1.072,1.848,1.36,4,0.808,6.064c-0.552,2.064-1.872,3.792-3.728,4.856
				c-3.84,2.208-8.736,0.88-10.928-2.928C399.352,118.152,399.072,115.992,399.616,113.928z M352,16c4.416,0,8,3.592,8,8
				s-3.584,8-8,8c-4.416,0-8-3.592-8-8S347.584,16,352,16z M144,32c-4.416,0-8-3.592-8-8s3.584-8,8-8s8,3.592,8,8S148.416,32,144,32
				z M95.576,120c-2.2,3.824-7.088,5.136-10.928,2.936c-1.848-1.072-3.168-2.8-3.728-4.856c-0.56-2.056-0.264-4.232,0.808-6.08
				c1.072-1.848,2.792-3.168,4.848-3.72c2.064-0.544,4.216-0.272,6.072,0.8c1.848,1.064,3.176,2.792,3.736,4.856
				C96.928,115.992,96.648,118.152,95.576,120z M24,216c-4.416,0-8-3.592-8-8s3.584-8,8-8s8,3.592,8,8S28.416,216,24,216z
				 M96.384,302.072c-0.552,2.064-1.88,3.792-3.736,4.856c-1.856,1.064-4.016,1.336-6.072,0.8c-2.064-0.552-3.784-1.872-4.848-3.728
				c-1.072-1.848-1.36-4-0.808-6.064c0.552-2.064,1.872-3.792,3.728-4.856c1.256-0.728,2.632-1.072,3.984-1.072
				c2.776,0,5.472,1.432,6.944,4C96.648,297.848,96.928,300.008,96.384,302.072z M248,16c4.416,0,8,3.592,8,8s-3.584,8-8,8
				c-4.416,0-8-3.592-8-8S243.584,16,248,16z M296,360h-16v16h16v16h-96v-16h64v-16h-64v-16h96V360z M299.992,297.976L296,300.288
				V328h-96v-27.712l-3.992-2.312C163.928,279.384,144,244.912,144,208c0-57.344,46.656-104,104-104s104,46.656,104,104
				C352,244.912,332.072,279.384,299.992,297.976z M400.424,296c1.48-2.568,4.168-4,6.944-4c1.352,0,2.728,0.344,3.984,1.064
				c1.848,1.072,3.168,2.8,3.728,4.856c0.56,2.056,0.264,4.216-0.808,6.072c-1.072,1.848-2.792,3.168-4.848,3.72
				c-2.056,0.552-4.208,0.28-6.072-0.8c-1.848-1.064-3.176-2.792-3.736-4.856C399.072,300.008,399.352,297.848,400.424,296z
				 M472,216c-4.416,0-8-3.592-8-8s3.584-8,8-8c4.416,0,8,3.592,8,8S476.416,216,472,216z"/>
			<rect x="240" y="424" width="16" height="40"/>
			<rect x="184" y="424" width="16" height="24"/>
			<rect x="184" y="464" width="16" height="16"/>
			<rect x="296" y="424" width="16" height="24"/>
			<rect x="296" y="464" width="16" height="16"/>
			<rect x="240" y="480" width="16" height="16"/>
		</g>
	</g>
</g>
<g>
</g>
<g>
</g>
<g>
</g>
<g>
</g>
<g>
</g>
<g>
</g>
<g>
</g>
<g>
</g>
<g>
</g>
<g>
</g>
<g>
</g>
<g>
</g>
<g>
</g>
<g>
</g>
<g>
</g>
</svg>
