<?xml version="1.0" encoding="iso-8859-1"?>
<!-- Generator: Adobe Illustrator 19.0.0, SVG Export Plug-In . SVG Version: 6.00 Build 0)  -->
<svg version="1.1" id="Capa_1" xmlns="http://www.w3.org/2000/svg" xmlns:xlink="http://www.w3.org/1999/xlink" x="0px" y="0px"
	 viewBox="0 0 496 496" style="enable-background:new 0 0 496 496;" xml:space="preserve">
<g>
	<g>
		<g>
			<path d="M496,144V80h-21.544c-1.128-3.2-2.416-6.328-3.848-9.344l15.216-15.224l-45.248-45.248L425.352,25.4
				c-3.024-1.44-6.152-2.728-9.352-3.856V0h-64v21.544c-3.2,1.128-6.328,2.416-9.344,3.848l-15.224-15.216l-38.128,38.128
				l-139.488,40C147.904,88.104,145.96,88,144,88c-10.496,0-20.288,2.952-28.696,8H72c-26.472,0-48,21.528-48,48v272H0v40
				c0,22.056,17.944,40,40,40h416c22.056,0,40-17.944,40-40v-40h-24V182.392l13.824-13.824l-15.216-15.224
				c1.44-3.024,2.728-6.152,3.848-9.344H496z M291.168,64.416l6.232,6.232c-1.44,3.024-2.728,6.152-3.848,9.344H272v26.848
				l-72.216,32.824c-1.344-17.472-10.688-32.736-24.424-42.048L291.168,64.416z M327.432,213.824l15.224-15.216
				c3.024,1.44,6.152,2.728,9.344,3.848V224h64v-21.544c2.736-0.96,5.384-2.104,8-3.296V416H72V152c0-4.408,3.592-8,8-8h8
				c0,22.56,13.432,41.992,32.696,50.856l15.008,110.736C130.792,314.64,128,325,128,336c0,35.288,28.712,64,64,64
				c35.288,0,64-28.712,64-64c0-24.328-13.656-45.528-33.696-56.352l-38.352-96.48c6.768-6.904,11.72-15.552,14.208-25.184
				l73.84-33.56V144h21.544c1.128,3.2,2.416,6.328,3.848,9.344l-15.216,15.224L327.432,213.824z M296,432v8c0,4.408-3.592,8-8,8h-80
				c-4.408,0-8-3.592-8-8v-8H296z M192,272c-16.32,0-31.184,6.192-42.504,16.28l-12.024-88.696c2.152,0.256,4.32,0.416,6.528,0.416
				c9.672,0,18.776-2.464,26.72-6.8l31.688,79.72C199.016,272.368,195.552,272,192,272z M240,336c0,26.472-21.528,48-48,48
				s-48-21.528-48-48s21.528-48,48-48S240,309.528,240,336z M144,104c22.056,0,40,17.944,40,40c0,22.056-17.944,40-40,40
				c-22.056,0-40-17.944-40-40C104,121.944,121.944,104,144,104z M40,144c0-17.648,14.352-32,32-32h26.112
				c-3.384,4.832-6.024,10.216-7.752,16H80c-13.232,0-24,10.768-24,24v264H40V144z M480,432v24c0,13.232-10.768,24-24,24H40
				c-13.232,0-24-10.768-24-24v-24h168v8c0,13.232,10.768,24,24,24h80c13.232,0,24-10.768,24-24v-8H480z M440,416V213.248
				l0.568,0.568L456,198.392V416H440z M463.192,168.568l-22.624,22.624l-12.32-12.312l-5.28,2.952
				c-5.32,2.976-11.096,5.352-17.16,7.072L400,190.552V208h-32v-17.448l-5.816-1.648c-6.064-1.72-11.832-4.096-17.16-7.072
				l-5.28-2.952l-12.32,12.312L304.8,168.568l12.312-12.32l-2.952-5.28c-2.976-5.32-5.352-11.096-7.072-17.16l-1.64-5.808H288V96
				h17.448l1.648-5.816c1.72-6.064,4.096-11.832,7.072-17.16l2.952-5.28l-12.312-12.32L327.432,32.8l12.32,12.312l5.28-2.952
				c5.32-2.976,11.096-5.352,17.16-7.072l5.808-1.64V16h32v17.448l5.816,1.648c6.064,1.72,11.832,4.096,17.16,7.072l5.28,2.952
				l12.32-12.312L463.2,55.432l-12.312,12.32l2.952,5.28c2.976,5.32,5.352,11.096,7.072,17.16l1.64,5.808H480v32h-17.448
				l-1.648,5.816c-1.72,6.064-4.096,11.832-7.072,17.16l-2.952,5.28L463.192,168.568z"/>
			<path d="M384,64c-26.472,0-48,21.528-48,48s21.528,48,48,48c12.184,0,23.8-4.576,32.712-12.88l-10.904-11.704
				C399.864,140.952,392.12,144,384,144c-17.648,0-32-14.352-32-32s14.352-32,32-32s32,14.352,32,32
				c0,5.16-1.184,10.08-3.528,14.624l14.224,7.32C430.168,127.208,432,119.616,432,112C432,85.528,410.472,64,384,64z"/>
			<path d="M160,336c0,17.648,14.352,32,32,32s32-14.352,32-32s-14.352-32-32-32S160,318.352,160,336z M208,336
				c0,8.824-7.176,16-16,16c-8.824,0-16-7.176-16-16c0-8.824,7.176-16,16-16C200.824,320,208,327.176,208,336z"/>
			<path d="M144,168c13.232,0,24-10.768,24-24s-10.768-24-24-24s-24,10.768-24,24S130.768,168,144,168z M144,136
				c4.408,0,8,3.592,8,8s-3.592,8-8,8s-8-3.592-8-8S139.592,136,144,136z"/>
			<path d="M280,400h128V256H280V400z M296,272h96v112h-96V272z"/>
			<rect x="312" y="288" width="64" height="16"/>
			<rect x="312" y="320" width="64" height="16"/>
			<rect x="312" y="352" width="64" height="16"/>
			<rect x="72" y="448" width="16" height="16"/>
			<rect x="104" y="448" width="16" height="16"/>
			<rect x="136" y="448" width="16" height="16"/>
		</g>
	</g>
</g>
<g>
</g>
<g>
</g>
<g>
</g>
<g>
</g>
<g>
</g>
<g>
</g>
<g>
</g>
<g>
</g>
<g>
</g>
<g>
</g>
<g>
</g>
<g>
</g>
<g>
</g>
<g>
</g>
<g>
</g>
</svg>
