<?xml version="1.0" encoding="iso-8859-1"?>
<!-- Generator: Adobe Illustrator 22.1.0, SVG Export Plug-In . SVG Version: 6.00 Build 0)  -->
<svg xmlns="http://www.w3.org/2000/svg" xmlns:xlink="http://www.w3.org/1999/xlink" version="1.1" id="Layer_1_1_" x="0px" y="0px" viewBox="0 0 64 64" style="enable-background:new 0 0 64 64;" xml:space="preserve" width="512" height="512">
<g>
	<path d="M58,45h-3.184C54.928,44.686,55,44.352,55,44V30c0-1.654-1.346-3-3-3H34c-1.654,0-3,1.346-3,3v14   c0,0.352,0.072,0.686,0.184,1h-2.369C28.928,44.686,29,44.352,29,44V30c0-1.654-1.346-3-3-3H8c-1.654,0-3,1.346-3,3v14   c0,0.382,0.079,0.744,0.209,1.08C2.829,45.462,1,47.514,1,50v2c0,2.757,2.243,5,5,5v6h52v-6c2.757,0,5-2.243,5-5v-2   C63,47.243,60.757,45,58,45z M22,54c-1.654,0-3-1.346-3-3s1.346-3,3-3s3,1.346,3,3S23.654,54,22,54z M19,45h-4v-3.612l2,0.666   l2-0.666V45z M12,48c1.654,0,3,1.346,3,3s-1.346,3-3,3s-3-1.346-3-3S10.346,48,12,48z M17,51c0-1.641-0.806-3.088-2.031-4h4.062   C17.806,47.912,17,49.359,17,51s0.806,3.088,2.031,4h-4.062C16.194,54.088,17,52.641,17,51z M27,51c0-1.641-0.806-3.088-2.031-4H26   h3.031C27.806,47.912,27,49.359,27,51s0.806,3.088,2.031,4h-4.062C26.194,54.088,27,52.641,27,51z M32,54c-1.654,0-3-1.346-3-3   s1.346-3,3-3s3,1.346,3,3S33.654,54,32,54z M37,51c0-1.641-0.806-3.088-2.031-4h14.062C47.806,47.912,47,49.359,47,51   s0.806,3.088,2.031,4H34.969C36.194,54.088,37,52.641,37,51z M45,45h-4v-3.612l2,0.666l2-0.666V45z M52,54c-1.654,0-3-1.346-3-3   s1.346-3,3-3s3,1.346,3,3S53.654,54,52,54z M41,29h4v3.612l-2-0.666l-2,0.666V29z M33,44V30c0-0.552,0.448-1,1-1h5v6.388l4-1.334   l4,1.334V29h5c0.552,0,1,0.448,1,1v14c0,0.552-0.448,1-1,1h-5v-6.388l-4,1.334l-4-1.334V45h-5C33.448,45,33,44.552,33,44z M15,29h4   v3.612l-2-0.666l-2,0.666V29z M7,30c0-0.552,0.448-1,1-1h5v6.388l4-1.334l4,1.334V29h5c0.552,0,1,0.448,1,1v14c0,0.552-0.448,1-1,1   h-5v-6.388l-4,1.334l-4-1.334V45H8c-0.552,0-1-0.448-1-1V30z M3,52v-2c0-1.654,1.346-3,3-3h2h1.031C7.806,47.912,7,49.359,7,51   s0.806,3.088,2.031,4H6C4.346,55,3,53.654,3,52z M56,61H8v-4h48V61z M61,52c0,1.654-1.346,3-3,3h-3.031   C56.194,54.088,57,52.641,57,51s-0.806-3.088-2.031-4H58c1.654,0,3,1.346,3,3V52z"/>
	<circle cx="12" cy="51" r="1"/>
	<circle cx="22" cy="51" r="1"/>
	<circle cx="32" cy="51" r="1"/>
	<circle cx="52" cy="51" r="1"/>
	<path d="M8.689,16H20c1.302,0,2.402-0.839,2.816-2H37v2h4v1c0,0.768,0.299,1.463,0.775,1.994l-3.117,1.559l2.447,4.895l1.789-0.895   l-1.553-3.105L44.236,20h1.527l2.895,1.447l-1.553,3.105l1.789,0.895l2.447-4.895l-3.117-1.559C48.701,18.463,49,17.768,49,17v-1h2   V7c0-1.654-1.346-3-3-3h-8c-1.302,0-2.402,0.839-2.816,2H22.816C22.402,4.839,21.302,4,20,4H8.689C7.041,2.164,4.657,1,2,1H1v18h1   C4.657,19,7.041,17.836,8.689,16z M23,12V8h14v4H23z M47,17c0,0.552-0.448,1-1,1h-2c-0.552,0-1-0.448-1-1v-1h4V17z M39,7   c0-0.552,0.448-1,1-1h8c0.552,0,1,0.448,1,1v7H39V7z M20,6c0.552,0,1,0.448,1,1v6c0,0.552-0.448,1-1,1h-9.95   c0.602-1.207,0.95-2.562,0.95-4s-0.347-2.793-0.95-4H20z M9,10c0,3.521-2.612,6.442-6,6.929v-2.03C5.279,14.434,7,12.414,7,10   S5.279,5.566,3,5.101v-2.03C6.388,3.558,9,6.479,9,10z M3,12.816V7.184C4.161,7.598,5,8.698,5,10S4.161,12.402,3,12.816z"/>
</g>
</svg>
