<?xml version="1.0" encoding="iso-8859-1"?>
<!-- Generator: Adobe Illustrator 22.0.0, SVG Export Plug-In . SVG Version: 6.00 Build 0)  -->
<svg xmlns="http://www.w3.org/2000/svg" xmlns:xlink="http://www.w3.org/1999/xlink" version="1.1" x="0px" y="0px" viewBox="0 0 60 60" style="enable-background:new 0 0 60 60;" xml:space="preserve" width="512" height="512">
<g id="_x32_1-Crypto_Web">
	<path d="M11,22C4.935,22,0,17.065,0,11S4.935,0,11,0s11,4.935,11,11S17.065,22,11,22z M11,2c-4.963,0-9,4.038-9,9s4.037,9,9,9   s9-4.038,9-9S15.963,2,11,2z"/>
	<path d="M11,12c-2.206,0-4-1.794-4-4s1.794-4,4-4s4,1.794,4,4S13.206,12,11,12z M11,6C9.897,6,9,6.897,9,8s0.897,2,2,2s2-0.897,2-2   S12.103,6,11,6z"/>
	<path d="M11,22c-1.923,0-3.825-0.513-5.501-1.483C5.19,20.338,5,20.008,5,19.651v-2.636C5,15.353,6.39,14,8.099,14h5.802   C15.61,14,17,15.353,17,17.015v2.636c0,0.357-0.19,0.687-0.499,0.865C14.825,21.487,12.923,22,11,22z M7,19.054   c2.489,1.24,5.511,1.24,8,0v-2.039C15,16.456,14.507,16,13.901,16H8.099C7.493,16,7,16.456,7,17.015V19.054z"/>
	<path d="M30,42c-6.617,0-12-5.383-12-12s5.383-12,12-12s12,5.383,12,12S36.617,42,30,42z M30,20c-5.514,0-10,4.486-10,10   s4.486,10,10,10s10-4.486,10-10S35.514,20,30,20z"/>
	<path d="M35,33c-0.125,0-0.25-0.023-0.371-0.071L30,31.077l-4.629,1.852c-0.393,0.155-0.842,0.049-1.122-0.268   c-0.28-0.318-0.329-0.777-0.124-1.147l5-9c0.353-0.635,1.396-0.635,1.749,0l5,9c0.205,0.37,0.156,0.829-0.124,1.147   C35.557,32.881,35.281,33,35,33z M30,29c0.126,0,0.252,0.024,0.371,0.071l2.388,0.956L30,25.059l-2.76,4.968l2.388-0.956   C29.748,29.024,29.874,29,30,29z"/>
	<path d="M30,38c-0.256,0-0.512-0.098-0.707-0.293l-5-5c-0.238-0.238-0.34-0.579-0.272-0.908c0.067-0.329,0.296-0.603,0.608-0.728   l5-2c0.238-0.095,0.504-0.095,0.743,0l5,2c0.312,0.125,0.541,0.398,0.608,0.728c0.068,0.33-0.035,0.67-0.272,0.908l-5,5   C30.512,37.902,30.256,38,30,38z M26.78,32.365L30,35.586l3.22-3.221L30,31.077L26.78,32.365z"/>
	<path d="M22.234,23.234c-0.256,0-0.512-0.098-0.707-0.293l-4.163-4.163c-0.391-0.391-0.391-1.023,0-1.414   c0.39-0.391,1.024-0.391,1.414,0l4.163,4.163c0.391,0.391,0.391,1.023,0,1.414C22.746,23.136,22.49,23.234,22.234,23.234z"/>
	<path d="M22.234,23.234c-0.256,0-0.512-0.098-0.707-0.293l-4.163-4.163c-0.391-0.391-0.391-1.023,0-1.414   c0.39-0.391,1.024-0.391,1.414,0l4.163,4.163c0.391,0.391,0.391,1.023,0,1.414C22.746,23.136,22.49,23.234,22.234,23.234z"/>
	<path d="M49,22c-6.065,0-11-4.935-11-11S42.935,0,49,0s11,4.935,11,11S55.065,22,49,22z M49,2c-4.963,0-9,4.038-9,9s4.037,9,9,9   s9-4.038,9-9S53.963,2,49,2z"/>
	<path d="M49,12c-2.206,0-4-1.794-4-4s1.794-4,4-4s4,1.794,4,4S51.206,12,49,12z M49,6c-1.103,0-2,0.897-2,2s0.897,2,2,2   s2-0.897,2-2S50.103,6,49,6z"/>
	<path d="M49,22c-1.923,0-3.825-0.513-5.501-1.483C43.19,20.338,43,20.008,43,19.651v-2.636C43,15.353,44.39,14,46.099,14h5.802   C53.61,14,55,15.353,55,17.015v2.636c0,0.357-0.19,0.687-0.499,0.865C52.825,21.487,50.923,22,49,22z M45,19.054   c2.489,1.24,5.511,1.24,8,0v-2.039C53,16.456,52.507,16,51.901,16h-5.802C45.493,16,45,16.456,45,17.015V19.054z"/>
	<path d="M37.766,23.234c-0.256,0-0.512-0.098-0.707-0.293c-0.391-0.391-0.391-1.023,0-1.414l4.163-4.163   c0.39-0.391,1.024-0.391,1.414,0c0.391,0.391,0.391,1.023,0,1.414l-4.163,4.163C38.278,23.136,38.022,23.234,37.766,23.234z"/>
	<path d="M37.766,23.234c-0.256,0-0.512-0.098-0.707-0.293c-0.391-0.391-0.391-1.023,0-1.414l4.163-4.163   c0.39-0.391,1.024-0.391,1.414,0c0.391,0.391,0.391,1.023,0,1.414l-4.163,4.163C38.278,23.136,38.022,23.234,37.766,23.234z"/>
	<path d="M41.929,42.929c-0.256,0-0.512-0.098-0.707-0.293l-4.163-4.163c-0.391-0.391-0.391-1.023,0-1.414   c0.39-0.391,1.024-0.391,1.414,0l4.163,4.163c0.391,0.391,0.391,1.023,0,1.414C42.441,42.832,42.185,42.929,41.929,42.929z"/>
	<path d="M41.929,42.929c-0.256,0-0.512-0.098-0.707-0.293l-4.163-4.163c-0.391-0.391-0.391-1.023,0-1.414   c0.39-0.391,1.024-0.391,1.414,0l4.163,4.163c0.391,0.391,0.391,1.023,0,1.414C42.441,42.832,42.185,42.929,41.929,42.929z"/>
	<path d="M18.071,42.929c-0.256,0-0.512-0.098-0.707-0.293c-0.391-0.391-0.391-1.023,0-1.414l4.163-4.163   c0.39-0.391,1.024-0.391,1.414,0c0.391,0.391,0.391,1.023,0,1.414l-4.163,4.163C18.583,42.832,18.327,42.929,18.071,42.929z"/>
	<path d="M18.071,42.929c-0.256,0-0.512-0.098-0.707-0.293c-0.391-0.391-0.391-1.023,0-1.414l4.163-4.163   c0.39-0.391,1.024-0.391,1.414,0c0.391,0.391,0.391,1.023,0,1.414l-4.163,4.163C18.583,42.832,18.327,42.929,18.071,42.929z"/>
	<path d="M11,60C4.935,60,0,55.065,0,49s4.935-11,11-11s11,4.935,11,11S17.065,60,11,60z M11,40c-4.963,0-9,4.038-9,9s4.037,9,9,9   s9-4.038,9-9S15.963,40,11,40z"/>
	<path d="M11,50c-2.206,0-4-1.794-4-4s1.794-4,4-4s4,1.794,4,4S13.206,50,11,50z M11,44c-1.103,0-2,0.897-2,2s0.897,2,2,2   s2-0.897,2-2S12.103,44,11,44z"/>
	<path d="M11,60c-1.923,0-3.825-0.513-5.501-1.483C5.19,58.338,5,58.008,5,57.651v-2.636C5,53.353,6.39,52,8.099,52h5.802   C15.61,52,17,53.353,17,55.015v2.636c0,0.357-0.19,0.687-0.499,0.865C14.825,59.487,12.923,60,11,60z M7,57.054   c2.489,1.24,5.511,1.24,8,0v-2.039C15,54.456,14.507,54,13.901,54H8.099C7.493,54,7,54.456,7,55.015V57.054z"/>
	<path d="M49,60c-6.065,0-11-4.935-11-11s4.935-11,11-11s11,4.935,11,11S55.065,60,49,60z M49,40c-4.963,0-9,4.038-9,9s4.037,9,9,9   s9-4.038,9-9S53.963,40,49,40z"/>
	<path d="M49,50c-2.206,0-4-1.794-4-4s1.794-4,4-4s4,1.794,4,4S51.206,50,49,50z M49,44c-1.103,0-2,0.897-2,2s0.897,2,2,2   s2-0.897,2-2S50.103,44,49,44z"/>
	<path d="M49,60c-1.923,0-3.825-0.513-5.501-1.483C43.19,58.338,43,58.008,43,57.651v-2.636C43,53.353,44.39,52,46.099,52h5.802   C53.61,52,55,53.353,55,55.015v2.636c0,0.357-0.19,0.687-0.499,0.865C52.825,59.487,50.923,60,49,60z M45,57.054   c2.489,1.24,5.511,1.24,8,0v-2.039C53,54.456,52.507,54,51.901,54h-5.802C45.493,54,45,54.456,45,55.015V57.054z"/>
</g>

</svg>
