<?xml version="1.0" encoding="iso-8859-1"?>
<!-- Generator: Adobe Illustrator 22.1.0, SVG Export Plug-In . SVG Version: 6.00 Build 0)  -->
<svg xmlns="http://www.w3.org/2000/svg" xmlns:xlink="http://www.w3.org/1999/xlink" version="1.1" id="Layer_1_1_" x="0px" y="0px" viewBox="0 0 64 64" style="enable-background:new 0 0 64 64;" xml:space="preserve" width="512" height="512">
<g>
	<rect x="13" y="44" width="2" height="2"/>
	<rect x="9" y="44" width="2" height="2"/>
	<rect x="5" y="44" width="2" height="2"/>
	<path d="M58,8H6c-2.757,0-5,2.243-5,5v32c0,2.757,2.243,5,5,5h13v4h-4v2h34v-2h-4v-4h13c2.757,0,5-2.243,5-5V13   C63,10.243,60.757,8,58,8z M6,10h52c1.654,0,3,1.346,3,3v29H18.303l-3-2H3V13C3,11.346,4.346,10,6,10z M58,48H23v2h20v4H21v-6H6   c-1.654,0-3-1.346-3-3v-3h11.697l3,2H61v1C61,46.654,59.654,48,58,48z"/>
	<path d="M8,36h18c0.201,0,0.396-0.021,0.586-0.059L29.485,40H49v-2h-2v-4h-2v4h-2v-6h-2v6h-2v-4h-2v4h-2v-8h-2v8h-2.485   l-2.214-3.099C28.731,34.382,29,33.725,29,33v-6h6.32l5.863-4.188C42.024,26.909,45.658,30,50,30c4.963,0,9-4.038,9-9s-4.037-9-9-9   c-4.783,0-8.694,3.752-8.973,8.466L34.68,25H29v-8c0-1.654-1.346-3-3-3H8c-1.654,0-3,1.346-3,3v16C5,34.654,6.346,36,8,36z M50,18   c1.654,0,3,1.346,3,3s-1.346,3-3,3s-3-1.346-3-3S48.346,18,50,18z M57,21c0,0.917-0.182,1.792-0.505,2.595l-1.773-1.024   C54.889,22.075,55,21.552,55,21s-0.111-1.075-0.278-1.572l1.773-1.024C56.818,19.208,57,20.083,57,21z M45.278,22.572l-1.773,1.024   C43.182,22.792,43,21.917,43,21s0.182-1.792,0.505-2.595l1.773,1.024C45.111,19.925,45,20.448,45,21S45.111,22.075,45.278,22.572z    M44.508,25.326l1.769-1.021c0.705,0.794,1.644,1.374,2.723,1.594v2.021C47.185,27.659,45.595,26.703,44.508,25.326z M51,27.92   v-2.021c1.079-0.22,2.018-0.801,2.723-1.594l1.769,1.021C54.405,26.703,52.815,27.659,51,27.92z M55.492,16.674l-1.769,1.021   c-0.705-0.794-1.644-1.374-2.723-1.594V14.08C52.815,14.341,54.405,15.297,55.492,16.674z M49,14.08v2.021   c-1.079,0.22-2.018,0.801-2.723,1.594l-1.769-1.021C45.595,15.297,47.185,14.341,49,14.08z M19,34h-4v-3.613l2,0.667l2-0.667V34z    M15,16h4v3.613l-2-0.667l-2,0.667V16z M7,17c0-0.551,0.448-1,1-1h5v6.387l4-1.333l4,1.333V16h5c0.552,0,1,0.449,1,1v8h-2v2h2v6   c0,0.022-0.011,0.041-0.013,0.062l-1.174-1.643l-1.627,1.162L25.2,34H21v-6.387l-4,1.333l-4-1.333V34H8c-0.552,0-1-0.449-1-1V17z"/>
</g>
</svg>
