<?xml version="1.0" encoding="iso-8859-1"?>
<!-- Generator: Adobe Illustrator 19.0.0, SVG Export Plug-In . SVG Version: 6.00 Build 0)  -->
<svg version="1.1" id="Capa_1" xmlns="http://www.w3.org/2000/svg" xmlns:xlink="http://www.w3.org/1999/xlink" x="0px" y="0px"
	 viewBox="0 0 496 496" style="enable-background:new 0 0 496 496;" xml:space="preserve">
<g>
	<g>
		<g>
			<path d="M458.608,200c-5.4-23.848-14.712-46.336-27.736-66.992l26.432-26.432l-67.88-67.88l-26.432,26.432
				C342.328,52.096,319.84,42.792,296,37.392V0h-96v37.392c-23.84,5.4-46.328,14.704-66.992,27.736l-26.432-26.432l-67.88,67.88
				l26.44,26.432C52.096,153.68,42.792,176.16,37.392,200H0v96h37.392c5.4,23.84,14.704,46.32,27.744,66.992l-26.44,26.432
				L96,446.72V496h304v-49.28l57.304-57.304l-26.432-26.432c13.024-20.664,22.336-43.144,27.736-66.992H496V200H458.608z M384,480
				H112v-32h95.392c5.472,2.32,11.152,4.104,16.976,5.384C230.224,459.856,238.6,464,248,464c9.384,0,17.752-4.128,23.608-10.584
				c5.592-1.264,10.984-3.08,16.152-5.416H384V480z M178.728,176.904l15.96,14.44l-19.072,15.888l-16.624-13.56L178.728,176.904z
				 M133.776,194.112c-1.352,1.144-3.072,1.776-4.832,1.776h-1.48c-4.12,0-7.472-3.352-7.472-7.472c0-2.192,0.96-4.272,2.632-5.688
				l43.472-36.936c1.36-1.16,3.072-1.792,4.84-1.792h1.48c4.12,0,7.472,3.352,7.472,7.472c-0.008,2.192-0.968,4.272-2.64,5.696
				L133.776,194.112z M235.096,290.656l-55.984-51.32c-1.976-1.816-3.112-4.4-3.112-7.088c0-2.856,1.256-5.552,3.464-7.384
				l36.768-30.64c1.712-1.432,3.904-2.224,6.144-2.224h2.776c2.416,0,4.728,0.896,6.496,2.528l55.336,50.728L235.096,290.656z
				 M298.856,256.136l18.024,16.528c1.984,1.816,3.12,4.4,3.12,7.088c0,2.864-1.256,5.552-3.464,7.384l-36.768,30.64
				c-1.712,1.432-3.904,2.224-6.144,2.224h-2.776c-2.416,0-4.728-0.896-6.496-2.528l-17.384-15.936L298.856,256.136z
				 M183.512,265.072l11.784,10.8C178.08,290.976,168,312.848,168,336c0,35.288,22.128,69.672,51.192,82.312
				C217.208,422.48,216,427.08,216,432c0,0.768,0.176,1.496,0.232,2.256C179.768,420.008,152,379,152,336
				C152,308.696,163.472,283.272,183.512,265.072z M232,432c0-8.824,7.176-16,16-16c8.824,0,16,7.176,16,16c0,8.824-7.176,16-16,16
				C239.176,448,232,440.824,232,432z M305.2,392.064l0.056-0.064h21.048c-10.096,15.416-24.752,31.104-42.288,40H280
				c0-5.12-1.32-9.896-3.472-14.2C287.768,411.664,297.24,401.048,305.2,392.064z M288,376v-16h64v16H288z M480,280h-34.48
				l-1.256,6.472c-5.128,26.32-15.312,50.92-30.272,73.12l-3.688,5.472l24.376,24.368L392.096,432H312.56
				c13.632-11.616,24.688-26.088,32.496-40H368v-4.664c13.176-11.352,24.728-24.384,34.232-38.96l-13.408-8.744
				c-6.064,9.296-13.096,17.864-20.832,25.768V344H272v48h11.48c-5.6,5.656-11.76,10.824-17.928,13.296
				C260.504,401.968,254.488,400,248,400c-6.56,0-12.664,2-17.744,5.4C204.848,397.4,184,366.64,184,336
				c0-19.112,8.632-37.08,23.216-49.192l46.32,42.464c4.744,4.336,10.896,6.728,17.312,6.728h2.776c5.976,0,11.808-2.112,16.4-5.936
				l36.768-30.64c5.848-4.88,9.208-12.048,9.208-19.672c0-7.168-3.032-14.048-8.304-18.88l-85.232-78.136
				c-4.744-4.344-10.896-6.736-17.312-6.736h-2.776c-5.48,0-10.784,1.848-15.176,5.088l-16.536-14.96
				c3.32-4.136,5.216-9.264,5.216-14.656c0-12.944-10.528-23.472-23.472-23.472h-1.48c-5.56,0-10.96,1.984-15.192,5.592
				l-43.472,36.936c-5.248,4.464-8.264,10.984-8.264,17.88c0,12.944,10.528,23.472,23.472,23.472h1.48
				c5.56,0,10.96-1.984,15.192-5.584l2.456-2.088l17.552,14.32c-2.608,4.072-4.152,8.76-4.152,13.72
				c0,7.168,3.032,14.048,8.304,18.88l3.368,3.088C148.96,275.376,136,304.632,136,336c0,15.336,3.024,30.288,8.336,44.184
				C104.056,348.704,80,300.456,80,248c0-92.64,75.368-168,168-168s168,75.36,168,168c0,26.888-6.168,52.584-18.312,76.36
				l14.248,7.28C425.248,305.584,432,277.448,432,248c0-101.456-82.536-184-184-184S64,146.544,64,248
				c0,67.92,36.824,129.392,96.312,161.688c6.08,8.368,13.112,15.888,20.936,22.312h-77.336l-42.584-42.576l24.376-24.368
				l-3.688-5.464c-14.96-22.216-25.152-46.824-30.272-73.12L50.48,280H16v-64h34.48l1.256-6.472
				c5.128-26.304,15.312-50.904,30.272-73.12l3.688-5.464L61.32,106.576l45.256-45.256l24.36,24.368l5.472-3.68
				c22.208-14.96,46.816-25.152,73.128-30.272L216,50.48V16h64v34.48l6.472,1.256c26.312,5.128,50.912,15.312,73.128,30.272
				l5.472,3.68l24.36-24.368l45.256,45.256l-24.376,24.368l3.688,5.472c14.96,22.2,25.152,46.8,30.272,73.12L445.52,216H480V280z"/>
			<rect x="248" y="112" width="80" height="16"/>
			<rect x="312" y="144" width="16" height="16"/>
			<rect x="248" y="144" width="48" height="16"/>
		</g>
	</g>
</g>
<g>
</g>
<g>
</g>
<g>
</g>
<g>
</g>
<g>
</g>
<g>
</g>
<g>
</g>
<g>
</g>
<g>
</g>
<g>
</g>
<g>
</g>
<g>
</g>
<g>
</g>
<g>
</g>
<g>
</g>
</svg>
