<?xml version="1.0" encoding="UTF-8"?>
<svg width="47px" height="48px" viewBox="0 0 47 48" version="1.1" xmlns="http://www.w3.org/2000/svg" xmlns:xlink="http://www.w3.org/1999/xlink">
    <title>ocyan-data-icons</title>
    <g id="ocyan-data-icons" stroke="none" stroke-width="1" fill="none" fill-rule="evenodd">
        <g id="Group" transform="translate(0.000000, -0.000000)" fill="#000000" fill-rule="nonzero">
            <path d="M16.6666667,16.6666667 L3.33333333,16.6666667 L3.33333333,14.4444444 L16.6666667,14.4444444 L16.6666667,16.6666667 Z M16.6666667,12.2222222 L3.33333333,12.2222222 L3.33333333,10 L16.6666667,10 L16.6666667,12.2222222 Z M16.6666667,7.77777778 L3.33333333,7.77777778 L3.33333333,5.55555556 L16.6666667,5.55555556 L16.6666667,7.77777778 Z M0,22.2222222 L1.66666667,20.5555556 L3.33333333,22.2222222 L5,20.5555556 L6.66666667,22.2222222 L8.33333333,20.5555556 L10,22.2222222 L11.6666667,20.5555556 L13.3333333,22.2222222 L15,20.5555556 L16.6666667,22.2222222 L18.3333333,20.5555556 L20,22.2222222 L20,0 L18.3333333,1.66666667 L16.6666667,0 L15,1.66666667 L13.3333333,0 L11.6666667,1.66666667 L10,0 L8.33333333,1.66666667 L6.66666667,0 L5,1.66666667 L3.33333333,0 L1.66666667,1.66666667 L0,0 L0,22.2222222 Z" id="Shape"></path>
        </g>
        <g id="Group" transform="translate(27.000000, -0.000000)" fill="#000000" fill-rule="nonzero">
            <path d="M16.4555556,2.74444444 C16.3666667,2.74444444 16.2777778,2.72222222 16.2,2.67777778 C14.0666667,1.57777778 12.2222222,1.11111111 10.0111111,1.11111111 C7.81111111,1.11111111 5.72222222,1.63333333 3.82222222,2.67777778 C3.55555556,2.82222222 3.22222222,2.72222222 3.06666667,2.45555556 C2.92222222,2.18888889 3.02222222,1.84444444 3.28888889,1.7 C5.35555556,0.577777778 7.62222222,0 10.0111111,0 C12.3777778,0 14.4444444,0.522222222 16.7111111,1.68888889 C16.9888889,1.83333333 17.0888889,2.16666667 16.9444444,2.43333333 C16.8444444,2.63333333 16.6555556,2.74444444 16.4555556,2.74444444 L16.4555556,2.74444444 Z M0.555555556,8.57777778 C0.444444444,8.57777778 0.333333333,8.54444444 0.233333333,8.47777778 C-0.0222222222,8.3 -0.0777777778,7.95555556 0.1,7.7 C1.2,6.14444444 2.6,4.92222222 4.26666667,4.06666667 C7.75555556,2.26666667 12.2222222,2.25555556 15.7222222,4.05555556 C17.3888889,4.91111111 18.7888889,6.12222222 19.8888889,7.66666667 C20.0666667,7.91111111 20.0111111,8.26666667 19.7555556,8.44444444 C19.5,8.62222222 19.1555556,8.56666667 18.9777778,8.31111111 C17.9777778,6.91111111 16.7111111,5.81111111 15.2111111,5.04444444 C12.0222222,3.41111111 7.94444444,3.41111111 4.76666667,5.05555556 C3.25555556,5.83333333 1.98888889,6.94444444 0.988888889,8.34444444 C0.9,8.5 0.733333333,8.57777778 0.555555556,8.57777778 L0.555555556,8.57777778 Z M7.5,21.9888889 C7.35555556,21.9888889 7.21111111,21.9333333 7.11111111,21.8222222 C6.14444444,20.8555556 5.62222222,20.2333333 4.87777778,18.8888889 C4.11111111,17.5222222 3.71111111,15.8555556 3.71111111,14.0666667 C3.71111111,10.7666667 6.53333333,8.07777778 10,8.07777778 C13.4666667,8.07777778 16.2888889,10.7666667 16.2888889,14.0666667 C16.2888889,14.3777778 16.0444444,14.6222222 15.7333333,14.6222222 C15.4222222,14.6222222 15.1777778,14.3777778 15.1777778,14.0666667 C15.1777778,11.3777778 12.8555556,9.18888889 10,9.18888889 C7.14444444,9.18888889 4.82222222,11.3777778 4.82222222,14.0666667 C4.82222222,15.6666667 5.17777778,17.1444444 5.85555556,18.3444444 C6.56666667,19.6222222 7.05555556,20.1666667 7.91111111,21.0333333 C8.12222222,21.2555556 8.12222222,21.6 7.91111111,21.8222222 C7.78888889,21.9333333 7.64444444,21.9888889 7.5,21.9888889 Z M15.4666667,19.9333333 C14.1444444,19.9333333 12.9777778,19.6 12.0222222,18.9444444 C10.3666667,17.8222222 9.37777778,16 9.37777778,14.0666667 C9.37777778,13.7555556 9.62222222,13.5111111 9.93333333,13.5111111 C10.2444444,13.5111111 10.4888889,13.7555556 10.4888889,14.0666667 C10.4888889,15.6333333 11.2888889,17.1111111 12.6444444,18.0222222 C13.4333333,18.5555556 14.3555556,18.8111111 15.4666667,18.8111111 C15.7333333,18.8111111 16.1777778,18.7777778 16.6222222,18.7 C16.9222222,18.6444444 17.2111111,18.8444444 17.2666667,19.1555556 C17.3222222,19.4555556 17.1222222,19.7444444 16.8111111,19.8 C16.1777778,19.9222222 15.6222222,19.9333333 15.4666667,19.9333333 L15.4666667,19.9333333 Z M13.2333333,22.2222222 C13.1888889,22.2222222 13.1333333,22.2111111 13.0888889,22.2 C11.3222222,21.7111111 10.1666667,21.0555556 8.95555556,19.8666667 C7.4,18.3222222 6.54444444,16.2666667 6.54444444,14.0666667 C6.54444444,12.2666667 8.07777778,10.8 9.96666667,10.8 C11.8555556,10.8 13.3888889,12.2666667 13.3888889,14.0666667 C13.3888889,15.2555556 14.4222222,16.2222222 15.7,16.2222222 C16.9777778,16.2222222 18.0111111,15.2555556 18.0111111,14.0666667 C18.0111111,9.87777778 14.4,6.47777778 9.95555556,6.47777778 C6.8,6.47777778 3.91111111,8.23333333 2.61111111,10.9555556 C2.17777778,11.8555556 1.95555556,12.9111111 1.95555556,14.0666667 C1.95555556,14.9333333 2.03333333,16.3 2.7,18.0777778 C2.81111111,18.3666667 2.66666667,18.6888889 2.37777778,18.7888889 C2.08888889,18.9 1.76666667,18.7444444 1.66666667,18.4666667 C1.12222222,17.0111111 0.855555556,15.5666667 0.855555556,14.0666667 C0.855555556,12.7333333 1.11111111,11.5222222 1.61111111,10.4666667 C3.08888889,7.36666667 6.36666667,5.35555556 9.95555556,5.35555556 C15.0111111,5.35555556 19.1222222,9.25555556 19.1222222,14.0555556 C19.1222222,15.8555556 17.5888889,17.3222222 15.7,17.3222222 C13.8111111,17.3222222 12.2777778,15.8555556 12.2777778,14.0555556 C12.2777778,12.8666667 11.2444444,11.9 9.96666667,11.9 C8.68888889,11.9 7.65555556,12.8666667 7.65555556,14.0555556 C7.65555556,15.9555556 8.38888889,17.7333333 9.73333333,19.0666667 C10.7888889,20.1111111 11.8,20.6888889 13.3666667,21.1222222 C13.6666667,21.2 13.8333333,21.5111111 13.7555556,21.8 C13.7,22.0555556 13.4666667,22.2222222 13.2333333,22.2222222 L13.2333333,22.2222222 Z" id="Shape"></path>
        </g>
        <g id="Group" transform="translate(0.000000, 27.000000)" fill="#000000" fill-rule="nonzero">
            <path d="M2,9 L5,9 L5,16 L2,16 L2,9 Z M8.5,9 L11.5,9 L11.5,16 L8.5,16 L8.5,9 Z M0,18 L20,18 L20,21 L0,21 L0,18 Z M15,9 L18,9 L18,16 L15,16 L15,9 Z M10,0 L0,5 L0,7 L20,7 L20,5 L10,0 Z" id="Shape"></path>
        </g>
        <g id="Group" transform="translate(27.000000, 29.000000)" fill="#000000" fill-rule="nonzero">
            <path d="M18.9473684,15.7894737 L18.9473684,16.8421053 C18.9473684,18 18,18.9473684 16.8421053,18.9473684 L2.10526316,18.9473684 C0.936842105,18.9473684 0,18 0,16.8421053 L0,2.10526316 C0,0.947368421 0.936842105,0 2.10526316,0 L16.8421053,0 C18,0 18.9473684,0.947368421 18.9473684,2.10526316 L18.9473684,3.15789474 L9.47368421,3.15789474 C8.30526316,3.15789474 7.36842105,4.10526316 7.36842105,5.26315789 L7.36842105,13.6842105 C7.36842105,14.8421053 8.30526316,15.7894737 9.47368421,15.7894737 L18.9473684,15.7894737 Z M9.47368421,13.6842105 L20,13.6842105 L20,5.26315789 L9.47368421,5.26315789 L9.47368421,13.6842105 Z M13.6842105,11.0526316 C12.8105263,11.0526316 12.1052632,10.3473684 12.1052632,9.47368421 C12.1052632,8.6 12.8105263,7.89473684 13.6842105,7.89473684 C14.5578947,7.89473684 15.2631579,8.6 15.2631579,9.47368421 C15.2631579,10.3473684 14.5578947,11.0526316 13.6842105,11.0526316 Z" id="Shape"></path>
        </g>
    </g>
</svg>