<?xml version="1.0" encoding="iso-8859-1"?>
<!-- Generator: Adobe Illustrator 19.0.0, SVG Export Plug-In . SVG Version: 6.00 Build 0)  -->
<svg version="1.1" id="Capa_1" xmlns="http://www.w3.org/2000/svg" xmlns:xlink="http://www.w3.org/1999/xlink" x="0px" y="0px"
	 viewBox="0 0 496 496" style="enable-background:new 0 0 496 496;" xml:space="preserve">
<g>
	<g>
		<g>
			<path d="M256,0v240h240V0H256z M480,224H272V16h208V224z"/>
			<path d="M256,496h240V256H256V496z M272,272h208v208H272V272z"/>
			<path d="M0,240h240V0H0V240z M16,16h208v208H16V16z"/>
			<path d="M0,496h240V256H0V496z M16,272h208v208H16V272z"/>
			<path d="M174.872,120c17.608-15.848,28.104-32.28,21.336-44c-5.272-9.128-17.904-11.416-37.544-6.768
				c-3.576,0.848-7.368,1.984-11.232,3.248C142.512,49.304,133.528,32,120,32S97.488,49.304,92.568,72.48
				c-3.864-1.264-7.656-2.4-11.232-3.248C61.712,64.6,49.064,66.864,43.792,76c-6.76,11.72,3.736,28.152,21.352,44
				c-17.608,15.848-28.112,32.28-21.352,44c3.504,6.064,10.248,9.104,20.136,9.104c5,0,10.816-0.776,17.416-2.336
				c3.576-0.848,7.368-1.984,11.232-3.248C97.488,190.696,106.472,208,120,208s22.512-17.304,27.432-40.48
				c3.864,1.264,7.656,2.4,11.232,3.248c6.6,1.56,12.408,2.336,17.416,2.336c9.888,0,16.632-3.04,20.136-9.104
				C202.984,152.28,192.48,135.848,174.872,120z M57.664,155.992c-0.552-3,5.336-12.928,19.944-25.712
				c3.536,2.68,7.24,5.288,11.024,7.832c0.312,4.544,0.72,9.064,1.264,13.464C71.536,157.832,59.992,157.96,57.664,155.992z
				 M88.632,101.888c-3.784,2.544-7.488,5.152-11.024,7.832C63,96.944,57.12,87.008,57.664,84.008
				c2.32-1.976,13.864-1.848,32.232,4.416C89.344,92.824,88.936,97.336,88.632,101.888z M120,48.024
				c2.872,1.024,8.528,11.072,12.288,30.096c-4.032,1.704-8.152,3.64-12.288,5.672c-4.136-2.032-8.256-3.968-12.288-5.672
				C111.472,59.104,117.128,49.048,120,48.024z M120.12,192.008c-2.832-0.776-8.592-10.848-12.408-30.136
				c4.032-1.704,8.144-3.632,12.288-5.664c4.144,2.032,8.264,3.968,12.296,5.672C128.504,181.168,122.8,191.232,120.12,192.008z
				 M135.84,129.144c-2.504,1.56-5.104,3.136-7.84,4.712c-2.736,1.576-5.392,3.04-8,4.432c-2.608-1.392-5.264-2.848-8-4.432
				c-2.736-1.576-5.328-3.152-7.84-4.712c-0.096-2.952-0.16-5.984-0.16-9.144c0-3.16,0.064-6.192,0.16-9.144
				c2.504-1.56,5.104-3.136,7.84-4.712c2.736-1.576,5.392-3.04,8-4.432c2.608,1.392,5.264,2.848,8,4.432
				c2.736,1.576,5.336,3.152,7.84,4.712c0.096,2.952,0.16,5.984,0.16,9.144C136,123.16,135.936,126.192,135.84,129.144z
				 M182.312,83.888c0.744,2.84-5.104,12.872-19.92,25.824c-3.544-2.672-7.248-5.28-11.024-7.824
				c-0.312-4.552-0.72-9.064-1.264-13.472C168.72,82.048,180.296,81.96,182.312,83.888z M182.424,155.904
				c-2.096,2.064-13.704,2.016-32.328-4.336c0.552-4.4,0.952-8.912,1.264-13.456c3.784-2.544,7.496-5.152,11.032-7.832
				C177.216,143.208,183.088,153.192,182.424,155.904z"/>
			<path d="M176.2,331.112l11.68-11.68l-11.312-11.312l-11.68,11.68c-10.36-8.288-23.024-13.784-36.888-15.328V288h-16v16.472
				c-13.864,1.544-26.528,7.04-36.888,15.328l-11.68-11.68L52.12,319.432l11.68,11.68c-8.288,10.36-13.784,23.024-15.328,36.888H32
				v16h16.472c1.544,13.864,7.04,26.528,15.328,36.888l-11.68,11.68l11.312,11.312l11.68-11.68
				c10.36,8.288,23.024,13.784,36.888,15.328V464h16v-16.472c13.864-1.544,26.528-7.04,36.888-15.328l11.68,11.68l11.312-11.312
				l-11.68-11.68c8.288-10.36,13.784-23.024,15.328-36.888H208v-16h-16.472C189.984,354.136,184.488,341.472,176.2,331.112z
				 M120,432c-30.88,0-56-25.12-56-56s25.12-56,56-56s56,25.12,56,56S150.88,432,120,432z"/>
			<path d="M120,336c-22.056,0-40,17.944-40,40c0,22.056,17.944,40,40,40c22.056,0,40-17.944,40-40C160,353.944,142.056,336,120,336
				z M120,400c-13.232,0-24-10.768-24-24s10.768-24,24-24s24,10.768,24,24S133.232,400,120,400z"/>
			<path d="M336,192h-16v16h112v-16h-16v-16h48V32H288v144h48V192z M400,192h-48v-16h48V192z M304,160V48h144v112H304z"/>
			<path d="M408,336c0-14.864-10.24-27.288-24-30.864V288h-16v17.136c-13.76,3.576-24,16-24,30.864
				c0,7.152,2.44,13.696,6.424,19.032l-37.96,106.28l15.072,5.384L342.784,424H368v8h16v-8h25.216l15.248,42.688l15.072-5.384
				l-37.96-106.28C405.56,349.696,408,343.152,408,336z M368,322.224V344h16v-21.776c4.76,2.776,8,7.88,8,13.776
				c0,8.824-7.176,16-16,16c-8.824,0-16-7.176-16-16C360,330.104,363.24,325,368,322.224z M403.504,408H384v-8h-16v8h-19.504
				l15.176-42.48c3.792,1.592,7.96,2.48,12.328,2.48c4.368,0,8.536-0.888,12.328-2.48L403.504,408z"/>
		</g>
	</g>
</g>
<g>
</g>
<g>
</g>
<g>
</g>
<g>
</g>
<g>
</g>
<g>
</g>
<g>
</g>
<g>
</g>
<g>
</g>
<g>
</g>
<g>
</g>
<g>
</g>
<g>
</g>
<g>
</g>
<g>
</g>
</svg>
