<?xml version="1.0" encoding="iso-8859-1"?>
<!-- Generator: Adobe Illustrator 19.0.0, SVG Export Plug-In . SVG Version: 6.00 Build 0)  -->
<svg version="1.1" id="Capa_1" xmlns="http://www.w3.org/2000/svg" xmlns:xlink="http://www.w3.org/1999/xlink" x="0px" y="0px"
	 viewBox="0 0 496 496" style="enable-background:new 0 0 496 496;" xml:space="preserve">
<g>
	<g>
		<path d="M72,416c-13.232,0-24,10.768-24,24s10.768,24,24,24s24-10.768,24-24S85.232,416,72,416z M72,448c-4.408,0-8-3.592-8-8
			c0-4.408,3.592-8,8-8s8,3.592,8,8C80,444.408,76.408,448,72,448z"/>
	</g>
</g>
<g>
	<g>
		<path d="M472,48h-92.392c-24.848,0-46.384,15.976-53.592,39.76L280,239.616v-131.84c0-15.248-8.472-28.96-22.112-35.776
			L232,59.056V48h24V0H144v48h24v11.056L142.112,72C128.472,78.816,120,92.528,120,107.776V168H16v145.472
			C6.712,316.784,0,325.584,0,336c0,13.232,10.768,24,24,24h292c6.616,0,12,5.384,12,12c0,6.616-5.384,12-12,12H72
			c-30.88,0-56,25.12-56,56s25.12,56,56,56s56-25.12,56-56c0-15.664-6.48-29.824-16.88-40h153.76
			c-10.4,10.176-16.88,24.336-16.88,40c0,30.88,25.12,56,56,56s56-25.12,56-56c0-19.704-10.248-37.024-25.672-47.008
			C340.208,387.856,344,380.4,344,372c0-15.44-12.56-28-28-28H24c-4.408,0-8-3.592-8-8c0-4.408,3.592-8,8-8h245.936l71.392-235.6
			c5.152-16.984,20.528-28.4,38.28-28.4H416v16h-36c-10.6,0-20.072,7.104-23.04,17.28l-52.64,180.48l15.36,4.48l52.64-180.48
			c0.992-3.392,4.152-5.76,7.68-5.76h92c13.232,0,24-10.768,24-24S485.232,48,472,48z M112,440c0,22.056-17.944,40-40,40
			c-22.056,0-40-17.944-40-40c0-22.056,17.944-40,40-40C94.056,400,112,417.944,112,440z M344,440c0,22.056-17.944,40-40,40
			c-22.056,0-40-17.944-40-40c0-22.056,17.944-40,40-40C326.056,400,344,417.944,344,440z M160,32V16h80v16H160z M128,184h16v16h-16
			V184z M96,184h16v16H96V184z M64,184h16v16H64V184z M32,184h16v16H32V184z M176,312H32v-96h144V312z M176,200h-16v-16h16V200z
			 M264,292.416L258.064,312H192V168h-56v-60.224c0-9.152,5.08-17.376,13.264-21.464L184,68.944V48h32v20.944l34.736,17.368
			C258.92,90.4,264,98.624,264,107.776V292.416z M472,80h-40V64h40c4.408,0,8,3.592,8,8S476.408,80,472,80z"/>
	</g>
</g>
<g>
	<g>
		<rect x="408" y="296" width="56" height="16"/>
	</g>
</g>
<g>
	<g>
		<rect x="368" y="344" width="48" height="16"/>
	</g>
</g>
<g>
	<g>
		<rect x="392" y="400" width="56" height="16"/>
	</g>
</g>
<g>
	<g>
		<path d="M304,416c-13.232,0-24,10.768-24,24s10.768,24,24,24s24-10.768,24-24S317.232,416,304,416z M304,448c-4.408,0-8-3.592-8-8
			c0-4.408,3.592-8,8-8c4.408,0,8,3.592,8,8C312,444.408,308.408,448,304,448z"/>
	</g>
</g>
<g>
	<g>
		<rect x="64" y="240" width="80" height="16"/>
	</g>
</g>
<g>
	<g>
		<rect x="64" y="272" width="80" height="16"/>
	</g>
</g>
<g>
	<g>
		<path d="M239.152,98.408l-11.576-5.784l-7.152,14.312L232,112.72V160h16v-47.28C248,106.616,244.608,101.136,239.152,98.408z"/>
	</g>
</g>
<g>
	<g>
		<rect x="480" y="296" width="16" height="16"/>
	</g>
</g>
<g>
	<g>
		<rect x="432" y="344" width="16" height="16"/>
	</g>
</g>
<g>
	<g>
		<rect x="464" y="400" width="16" height="16"/>
	</g>
</g>
<g>
	<g>
		<rect x="232" y="176" width="16" height="16"/>
	</g>
</g>
<g>
</g>
<g>
</g>
<g>
</g>
<g>
</g>
<g>
</g>
<g>
</g>
<g>
</g>
<g>
</g>
<g>
</g>
<g>
</g>
<g>
</g>
<g>
</g>
<g>
</g>
<g>
</g>
<g>
</g>
</svg>
