<svg height="496pt" viewBox="0 0 496 496" width="496pt" xmlns="http://www.w3.org/2000/svg"><path d="m297.710938 341.480469-81.710938-27.25v-16.574219c17.679688-11.558594 30.910156-29.304688 36.710938-50.136719 19.816406-2.359375 35.289062-19.078125 35.289062-39.519531v-35.550781c5.273438-14.203125 8-29.136719 8-44.449219 0-70.574219-57.425781-128-128-128s-128 57.425781-128 128c0 15.3125 2.734375 30.246094 8 44.457031v35.542969c0 20.441406 15.472656 37.160156 35.289062 39.519531 5.789063 20.839844 19.03125 38.578125 36.710938 50.136719v16.574219l-81.703125 27.25c-22.914063 7.625-38.296875 28.976562-38.296875 53.113281v101.40625h336v-101.40625c0-24.136719-15.382812-45.488281-38.289062-53.113281zm-65.390626-4.945313-40.320312 49.808594-13.710938-16.9375 32.4375-40.070312zm23.34375-105.902344c.167969-2.199218.335938-4.394531.335938-6.632812v-38.527344c9.289062 3.3125 16 12.113282 16 22.527344 0 10.535156-6.871094 19.414062-16.335938 22.632812zm-87.664062-214.632812c57.390625 0 104.777344 43.40625 111.199219 99.105469-9.902344-24.449219-27.703125-45.457031-51.183594-59.042969l-8.015625 13.839844c32.070312 18.570312 52 53.082031 52 90.097656v16.207031c-4.671875-3.535156-10.054688-6.183593-16-7.390625v-24.816406h-16v16c-11.375 0-22.664062-2.785156-32.777344-7.9375 7.351563-3.972656 14.546875-8.292969 21.425782-13.222656l-9.304688-13.015625c-31.253906 22.359375-68.097656 34.175781-106.535156 34.175781h-16.808594v-16h-16v24.808594c-5.945312 1.214844-11.328125 3.855468-16 7.390625v-16.199219c0-37.007812 19.921875-71.519531 52-90.089844l-8.015625-13.839844c-23.472656 13.585938-41.28125 34.59375-51.175781 59.042969 6.414062-55.707031 53.800781-99.113281 111.191406-99.113281zm-104 192c0-10.414062 6.710938-19.214844 16-22.527344v38.527344c0 2.238281.167969 4.433594.335938 6.632812-9.464844-3.21875-16.335938-12.097656-16.335938-22.632812zm32 16v-48h16.808594c26.863281 0 52.984375-5.375 77.261718-15.625 14.609376 10.058594 32.175782 15.625 49.929688 15.625v48c0 39.703125-32.304688 72-72 72s-72-32.296875-72-72zm72 88c11.296875 0 22.0625-2.214844 32-6.113281v11.28125l-32 39.527343-32-39.527343v-11.28125c9.9375 3.898437 20.703125 6.113281 32 6.113281zm-42.726562 17.34375 121.957031 150.65625h-27.414063l-116.136718-143.464844zm-109.273438 65.25c0-17.242188 10.992188-32.496094 27.351562-37.945312l44.121094-14.703126 111.757813 138.054688h-123.703125c-7.421875-8.496094-11.527344-19.230469-11.527344-30.625v-.832031c0-9.230469 2.703125-18.175781 7.832031-25.863281 5.34375-8.023438 8.167969-17.351563 8.167969-26.984376v-11.695312h-16v11.695312c0 6.472657-1.894531 12.730469-5.480469 18.105469-6.878906 10.320313-10.519531 22.335938-10.519531 34.734375v.832032c0 10.921874 2.816406 21.386718 8.023438 30.632812h-40.023438zm304 85.40625h-40.023438c5.207032-9.246094 8.023438-19.710938 8.023438-30.625v-.832031c0-12.40625-3.640625-24.421875-10.519531-34.742188-3.585938-5.375-5.480469-11.632812-5.480469-18.105469v-11.695312h-16v11.695312c0 9.632813 2.824219 18.960938 8.167969 26.976563 5.128906 7.6875 7.832031 16.632813 7.832031 25.863281v.832032c0 9.410156-2.777344 18.386718-7.921875 26.007812l-61.78125-76.320312 46.230469-57.117188 44.121094 14.703125c16.359374 5.464844 27.351562 20.710937 27.351562 37.953125zm0 0"/><path d="m216 200c0 4.417969-3.582031 8-8 8s-8-3.582031-8-8 3.582031-8 8-8 8 3.582031 8 8zm0 0"/><path d="m136 200c0 4.417969-3.582031 8-8 8s-8-3.582031-8-8 3.582031-8 8-8 8 3.582031 8 8zm0 0"/><path d="m200 240h-16c0 8.824219-7.175781 16-16 16s-16-7.175781-16-16h-16c0 17.648438 14.351562 32 32 32s32-14.351562 32-32zm0 0"/><path d="m197.710938 60.304688 4.570312-15.328126c-22.144531-6.609374-46.441406-6.609374-68.578125 0l4.570313 15.328126c19.183593-5.71875 40.269531-5.71875 59.4375 0zm0 0"/><path d="m496 144h-160l.015625 40.566406 15.839844 221.785156c-4.792969 4.390626-7.855469 10.648438-7.855469 17.648438 0 7.0625 3.128906 13.359375 8 17.761719v38.238281c0 8.824219 7.175781 16 16 16h96c8.824219 0 16-7.175781 16-16v-38.238281c4.871094-4.394531 8-10.699219 8-17.761719 0-7-3.0625-13.257812-7.863281-17.640625l15.863281-222.359375zm-26.878906 192h-106.25l-5.71875-80h117.6875zm6.855468-96h-119.96875l-3.433593-48h126.832031zm-51.976562-64v-16h24v16zm-16 0h-24v-16h24zm56 0v-16h16l.007812 16zm-96-16v16h-16v-16zm104 264c0 4.414062-3.59375 8-8 8h-96c-4.40625 0-8-3.585938-8-8s3.59375-8 8-8h96c4.40625 0 8 3.585938 8 8zm-42.222656 24c-2.777344 4.761719-7.882813 8-13.777344 8s-11-3.238281-13.777344-8zm34.222656 32h-96v-32h17.136719c3.574219 13.769531 16 24 30.863281 24s27.289062-10.230469 30.863281-24h17.136719zm0-80h-96c-.183594 0-.359375.046875-.542969.054688l-3.441406-48.054688h103.960937l-3.433593 48.054688c-.183594-.007813-.359375-.054688-.542969-.054688zm0 0"/><path d="m376 272h80v16h-80zm0 0"/><path d="m376 304h32v16h-32zm0 0"/><path d="m424 304h32v16h-32zm0 0"/></svg>