<?xml version="1.0" encoding="iso-8859-1"?>
<!-- Generator: Adobe Illustrator 19.0.0, SVG Export Plug-In . SVG Version: 6.00 Build 0)  -->
<svg version="1.1" id="Capa_1" xmlns="http://www.w3.org/2000/svg" xmlns:xlink="http://www.w3.org/1999/xlink" x="0px" y="0px"
	 viewBox="0 0 496 496" style="enable-background:new 0 0 496 496;" xml:space="preserve">
<g>
	<g>
		<g>
			<path d="M208,416c-13.232,0-24,10.768-24,24s10.768,24,24,24s24-10.768,24-24S221.232,416,208,416z M208,448
				c-4.408,0-8-3.584-8-8c0-4.416,3.592-8,8-8s8,3.584,8,8C216,444.416,212.408,448,208,448z"/>
			<path d="M296,448c13.232,0,24-10.768,24-24s-10.768-24-24-24s-24,10.768-24,24S282.768,448,296,448z M296,416
				c4.408,0,8,3.584,8,8c0,4.416-3.592,8-8,8c-4.408,0-8-3.584-8-8C288,419.584,291.592,416,296,416z"/>
			<path d="M496,144V0H336v64h-56v136h-64v-96h-56V40H0v144h160v-64h40v80h-32v48h16v48H80c-13.232,0-24-10.768-24-24v-17.472
				c9.288-3.312,16-12.112,16-22.528c0-13.232-10.768-24-24-24s-24,10.768-24,24c0,10.416,6.712,19.216,16,22.528V272
				c0,22.056,17.944,40,40,40h104v4.672c0,6.168-1.464,12.36-4.224,17.88l-4.72,9.448H46.528c-3.312-9.288-12.112-16-22.528-16
				c-13.232,0-24,10.768-24,24s10.768,24,24,24c10.416,0,19.216-6.712,22.528-16h120.528l-16,32H80c-22.056,0-40,17.944-40,40
				v17.472c-9.288,3.312-16,12.112-16,22.528c0,13.232,10.768,24,24,24s24-10.768,24-24c0-10.416-6.712-19.216-16-22.528V432
				c0-13.232,10.768-24,24-24h63.056l-19.48,38.952c-2.336,4.68-3.576,9.92-3.576,15.16C120,480.8,135.2,496,153.888,496h188.224
				C360.8,496,376,480.8,376,462.112c0-5.232-1.24-10.48-3.576-15.16L352.944,408H416c13.232,0,24,10.768,24,24v17.472
				c-9.288,3.312-16,12.112-16,22.528c0,13.232,10.768,24,24,24s24-10.768,24-24c0-10.416-6.712-19.216-16-22.528V432
				c0-22.056-17.944-40-40-40h-71.056l-16-32h120.528c3.312,9.288,12.112,16,22.528,16c13.232,0,24-10.768,24-24s-10.768-24-24-24
				c-10.416,0-19.216,6.712-22.528,16H320.944l-4.72-9.448c-2.76-5.52-4.224-11.712-4.224-17.88V312h104c22.056,0,40-17.944,40-40
				v-17.472c9.288-3.312,16-12.112,16-22.528c0-13.232-10.768-24-24-24s-24,10.768-24,24c0,10.416,6.712,19.216,16,22.528V272
				c0,13.232-10.768,24-24,24H312v-48h16v-48h-32V80h40v64H496z M352,16h128v112H352V16z M144,168H16V56h128V168z M48,240
				c-4.408,0-8-3.584-8-8s3.592-8,8-8s8,3.584,8,8S52.408,240,48,240z M24,360c-4.408,0-8-3.584-8-8c0-4.416,3.592-8,8-8
				s8,3.584,8,8C32,356.416,28.408,360,24,360z M48,480c-4.408,0-8-3.584-8-8c0-4.416,3.592-8,8-8s8,3.584,8,8
				C56,476.416,52.408,480,48,480z M448,464c4.408,0,8,3.584,8,8c0,4.416-3.592,8-8,8c-4.408,0-8-3.584-8-8
				C440,467.584,443.592,464,448,464z M472,344c4.408,0,8,3.584,8,8c0,4.416-3.592,8-8,8c-4.408,0-8-3.584-8-8
				C464,347.584,467.592,344,472,344z M448,224c4.408,0,8,3.584,8,8s-3.592,8-8,8c-4.408,0-8-3.584-8-8S443.592,224,448,224z
				 M318.928,375.736l39.184,78.368c1.232,2.472,1.888,5.248,1.888,8.008c0,9.864-8.024,17.888-17.888,17.888H153.888
				c-9.864,0-17.888-8.024-17.888-17.888c0-2.76,0.656-5.528,1.888-8l54.92-109.84c24.12,1.272,39.4,7.648,55.408,14.392
				C266.752,366.48,286.04,374.456,318.928,375.736z M312,216v16h-32v16h16v68.672c0,8.648,2.04,17.304,5.912,25.04l8.752,17.504
				c-24.608-2.104-40.128-8.512-56.232-15.296c-15.584-6.568-31.712-13.264-55.784-15.264c0.864-3.936,1.352-7.96,1.352-11.984V248
				h64v-16h-80v-16H312z"/>
			<rect x="368" y="32" width="96" height="16"/>
			<rect x="368" y="64" width="96" height="16"/>
			<rect x="368" y="96" width="64" height="16"/>
			<rect x="32" y="72" width="96" height="16"/>
			<rect x="32" y="104" width="96" height="16"/>
			<rect x="32" y="136" width="64" height="16"/>
			<rect x="112" y="136" width="16" height="16"/>
			<rect x="448" y="96" width="16" height="16"/>
		</g>
	</g>
</g>
<g>
</g>
<g>
</g>
<g>
</g>
<g>
</g>
<g>
</g>
<g>
</g>
<g>
</g>
<g>
</g>
<g>
</g>
<g>
</g>
<g>
</g>
<g>
</g>
<g>
</g>
<g>
</g>
<g>
</g>
</svg>
