<svg height="496pt" viewBox="0 0 496 496" width="496pt" xmlns="http://www.w3.org/2000/svg"><path d="m456 112h-8v-112h-400v112h-8c-22.054688 0-40 17.945312-40 40v256c0 22.054688 17.945312 40 40 40h104v32h-32v16h272v-16h-32v-32h104c22.054688 0 40-17.945312 40-40v-256c0-22.054688-17.945312-40-40-40zm-200 223.59375c-2.65625.191406-5.296875.40625-8 .40625-61.761719 0-112-50.238281-112-112h13.894531c13.3125 0 25.832031 7.089844 32.753907 18.632812 7.832031 13.039063 20.871093 22.230469 35.785156 25.214844 10.503906 2.105469 19.6875 8.578125 25.199218 17.761719l6.933594 11.558594c3.554688 5.921875 5.433594 12.695312 5.433594 19.601562zm8.289062-46.65625-6.9375-11.5625c-7.832031-13.039062-20.871093-22.230469-35.785156-25.214844-10.503906-2.105468-19.6875-8.574218-25.277344-17.886718-9.722656-16.210938-27.496093-26.273438-46.394531-26.273438h-12.613281c3.816406-26.472656 16.871094-49.9375 35.847656-67.054688l3.351563 11.183594c5.726562 19.0625 22.945312 31.871094 42.847656 31.871094h15.496094c11.441406 0 21.359375-7.753906 24.136719-18.839844 1.933593-7.753906 8.863281-13.160156 16.847656-13.160156 5.304687 0 10.246094 2.375 13.558594 6.511719l14.777343 18.480469c7.632813 9.535156 19.023438 15.007812 31.230469 15.007812h19.90625c1.542969 5.183594 2.65625 10.535156 3.4375 16h-74.535156c-13.6875 0-25.351563 9.28125-27.726563 22.0625-2.351562 12.699219 4.613281 25.386719 16.558594 30.160156l5.976563 2.394532c10.335937 4.125 17.007812 13.992187 17.007812 25.109374 0 6.648438 1.566406 13.304688 4.542969 19.25l6.128906 12.246094c-10.542969 6.519532-22.191406 11.386719-34.664063 14.121094v-16.574219c-.007812-9.808593-2.671874-19.433593-7.71875-27.832031zm-77.617187-158.546875c17.632813-11.589844 38.6875-18.390625 61.328125-18.390625 44.566406 0 83.015625 26.222656 101.039062 64h-13.664062c-7.335938 0-14.160156-3.28125-18.742188-9l-14.777343-18.472656c-6.359375-7.96875-15.855469-12.527344-26.046875-12.527344-15.335938 0-28.65625 10.390625-32.375 25.273438-.984375 3.957031-4.53125 6.726562-8.609375 6.726562h-15.496094c-12.785156 0-23.839844-8.222656-27.511719-20.472656zm133.175781 179.417969-4.992187-9.984375c-1.863281-3.734375-2.855469-7.921875-2.855469-12.097657 0-17.703124-10.625-33.390624-27.054688-39.964843l-5.976562-2.394531c-4.890625-1.953126-7.738281-7.167969-6.769531-12.382813.945312-5.121094 6.105469-8.984375 11.984375-8.984375h75.816406c0 34.425781-15.640625 65.238281-40.152344 85.808594zm56.152344-85.808594c0-2.390625-.160156-4.742188-.320312-7.097656l-.160157-2.445313c-.105469-1.394531-.128906-2.800781-.28125-4.175781l-.148437-2.28125h-.203125c-7.910157-63.039062-61.734375-112-126.886719-112s-118.976562 48.960938-126.886719 112h-.203125l-.148437 2.28125c-.144531 1.375-.175781 2.78125-.28125 4.175781l-.160157 2.445313c-.160156 2.355468-.320312 4.707031-.320312 7.097656 0 23.328125 6.375 45.144531 17.320312 64h-73.320312v-208h368v208h-73.320312c10.945312-18.855469 17.320312-40.671875 17.320312-64zm56-208v48h-368v-48zm-392 112h8v176h100.238281c23.480469 29.222656 59.449219 48 99.761719 48s76.28125-18.777344 99.761719-48h100.238281v-176h8c13.230469 0 24 10.769531 24 24v216h-464v-216c0-13.230469 10.769531-24 24-24zm296 352h-176v-32h176zm120-48h-416c-13.230469 0-24-10.769531-24-24v-24h464v24c0 13.230469-10.769531 24-24 24zm0 0"/><path d="m384 400h16v16h-16zm0 0"/><path d="m416 400h16v16h-16zm0 0"/><path d="m448 400h16v16h-16zm0 0"/><path d="m80 32h16v16h-16zm0 0"/><path d="m112 32h16v16h-16zm0 0"/><path d="m144 32h16v16h-16zm0 0"/></svg>