<?xml version="1.0" encoding="UTF-8"?>
<svg width="281px" height="77px" viewBox="0 0 281 77" version="1.1" xmlns="http://www.w3.org/2000/svg" xmlns:xlink="http://www.w3.org/1999/xlink">
    <!-- Generator: Sketch 53 (72520) - https://sketchapp.com -->
    <title>aws</title>
    <desc>Created with Sketch.</desc>
    <g id="Page-1" stroke="none" stroke-width="1" fill="none" fill-rule="evenodd">
        <g id="aws" fill-rule="nonzero">
            <path d="M97.1,37.73 C98.6254984,38.5655117 100.282766,39.1337177 102,39.41 C104.153891,39.9265679 106.365638,40.1618602 108.58,40.11 C110.610875,40.1335297 112.633666,39.850339 114.58,39.27 C116.282722,38.7338208 117.889423,37.93047 119.34,36.89 C120.657159,35.8975278 121.714021,34.6004703 122.42,33.11 C123.161364,31.5476534 123.544032,29.8393155 123.54,28.11 C123.518385,25.949861 122.818791,23.8510804 121.54,22.11 C120.34,20.37 118.1,19 115,18 L109,16 C107.259338,15.561716 105.635024,14.7495594 104.24,13.62 C103.319351,12.6627839 102.866271,11.3491086 103.001092,10.0278665 C103.135912,8.70662441 103.844988,7.51153643 104.94,6.76 C106.702073,5.82289802 108.687436,5.38708666 110.68,5.5 C113.522001,5.46065106 116.339162,6.03363307 118.94,7.18 C119.468034,7.45156074 120.034637,7.64042832 120.62,7.74 C121.32,7.74 121.62,7.32 121.62,6.34 L121.62,4.69 C121.653064,4.18799341 121.503937,3.69090631 121.2,3.29 C120.883704,2.81417572 120.449626,2.42832793 119.94,2.17 C119.379964,1.82993295 118.763577,1.59286083 118.12,1.47 C117.42,1.19 116.58,1.05 115.74,0.77 C114.820148,0.551461388 113.883489,0.410962567 112.94,0.35 C111.97813,0.118358488 110.988304,0.0240893528 110,0.07 C108.204213,0.0776036382 106.416632,0.31281166 104.68,0.77 C103.064841,1.25390131 101.543319,2.00790006 100.18,3 C98.9400977,3.9601825 97.8947471,5.14808093 97.1,6.5 C96.2936675,7.95553599 95.9125171,9.60834306 96,11.27 C95.9889221,13.500809 96.7285877,15.6704945 98.1,17.43 C99.5,19.43 101.74,20.79 104.96,21.77 L111.12,23.77 C112.706379,24.1868376 114.181373,24.948235 115.44,26 C116.209587,26.7792635 116.616043,27.8462106 116.56,28.94 C116.608498,30.600295 115.750378,32.1556364 114.32,33 C112.78,34 110.82,34.4 108.02,34.4 C106.336718,34.4182285 104.657543,34.2301609 103.02,33.84 C101.372189,33.539517 99.7715471,33.0216623 98.26,32.3 C97.8783407,32.1832951 97.504289,32.0430257 97.14,31.88 C96.8754519,31.7660554 96.5872032,31.718014 96.3,31.74 C95.6,31.74 95.3,32.16 95.3,33.14 L95.3,35.24 C95.3260548,35.6721727 95.4205647,36.0974674 95.58,36.5 C95.996633,37.0259741 96.5219397,37.4557704 97.12,37.76 L97.1,37.73 Z" id="Path" fill="#252F3E"></path>
            <path d="M24.72,17 C23.2381772,16.7716541 21.7387233,16.6779383 20.24,16.72 C15.9,16.72 12.4,17.84 9.74,20.08 C7.13318709,22.2506947 5.68440388,25.5104569 5.82,28.9 C5.65024627,31.9623152 6.76670312,34.9564495 8.9,37.16 C11,39.26 13.8,40.24 17.44,40.24 C22.3035567,40.3047819 26.9298862,38.1426358 30,34.37 C30.3632778,35.237184 30.7842195,36.0790674 31.26,36.89 C31.691602,37.6157875 32.208621,38.2872408 32.8,38.89 C33.1227928,39.2452296 33.58002,39.4484417 34.06,39.45 C34.4646153,39.4146078 34.8518813,39.269383 35.18,39.03 L37.84,37.21 C38.3030331,36.9459681 38.6143679,36.4789659 38.68,35.95 C38.6360468,35.6047725 38.54171,35.2678556 38.4,34.95 C37.843239,33.9597665 37.3747627,32.9224263 37,31.85 C36.6898083,30.6147723 36.5485215,29.3431911 36.58,28.07 L36.58,14.07 C36.58,9.45 35.46,5.95 33.08,3.57 C30.7,1.19 27.08,0.07 21.88,0.07 C19.6129577,0.0558251695 17.353798,0.338220139 15.16,0.91 C13.3196271,1.3825351 11.5358809,2.05311637 9.84,2.91 C9.39586902,3.0804946 9.00803149,3.37137274 8.72,3.75 C8.44,4.03 8.44,4.59 8.44,5.29 L8.44,7.39 C8.44,8.23 8.72,8.79 9.28,8.79 C9.52113865,8.79956403 9.76108895,8.75157397 9.98,8.65 C10.26,8.51 10.82,8.37 11.52,8.09 C13.0184144,7.49574413 14.5637672,7.02745541 16.14,6.69 C17.6479542,6.29718258 19.2018654,6.10882971 20.76,6.13 C24.12,6.13 26.36,6.83 27.76,8.13 C29.16,9.43 29.76,11.77 29.76,14.99 L29.76,18 C27.94,17.58 26.4,17.3 24.76,17 L24.72,17 Z M29.62,24.56 C29.6437414,25.7866719 29.5024764,27.0109686 29.2,28.2 C28.9629238,29.1897171 28.4815957,30.1042405 27.8,30.86 C26.7305219,32.1185308 25.3209072,33.0420715 23.74,33.52 C22.3062379,34.0560997 20.7905842,34.3402848 19.26,34.36 C17.6165103,34.555482 15.9741401,33.9864886 14.8038257,32.8161743 C13.6335114,31.6458599 13.064518,30.0034897 13.26,28.36 C13.1561094,26.4882963 13.9329797,24.6755991 15.36,23.46 C16.76,22.34 18.86,21.78 21.66,21.78 C22.92,21.78 24.32,21.92 25.72,22.06 C27.0397243,22.2131389 28.3488385,22.4469093 29.64,22.76 L29.64,24.58 L29.62,24.56 Z" id="Shape" fill="#252F3E"></path>
            <g id="Group" transform="translate(0.000000, 1.000000)">
                <path d="M51.18,36 C51.3403824,36.6122241 51.6264502,37.1843596 52.02,37.68 C52.5094214,38.0215581 53.1074243,38.1710589 53.7,38.1 L57.34,38.1 C57.9325757,38.1710589 58.5305786,38.0215581 59.02,37.68 C59.4135498,37.1843596 59.6996176,36.6122241 59.86,36 L66.44,8.42 L73.16,36 C73.1989936,36.6511695 73.5024606,37.2581034 74,37.68 C74.4983965,38.0013521 75.0890138,38.1490064 75.68,38.1 L79.32,38.1 C79.9091103,38.1281832 80.4934595,37.9820959 81,37.68 C81.4464568,37.2199586 81.7398409,36.6331903 81.84,36 L92.2,3 C92.3235137,2.67586335 92.4172345,2.34114614 92.48,2 C92.48,1.72 92.62,1.58 92.62,1.3 C92.62,0.6 92.34,0.3 91.62,0.3 L87.7,0.3 C87.1074243,0.228941146 86.5094214,0.378441859 86.02,0.72 C85.6264502,1.2156404 85.3403824,1.7877759 85.18,2.4 L77.76,31.1 L70.9,2.26 C70.8610064,1.60883055 70.5575394,1.00189657 70.06,0.58 C69.5616035,0.258647888 68.9709862,0.110993566 68.38,0.16 L64.88,0.16 C64.2874243,0.088941146 63.6894214,0.238441859 63.2,0.58 C62.8064502,1.0756404 62.5203824,1.6477759 62.36,2.26 L55.64,30.54 L48.52,2.29 C48.3596176,1.6777759 48.0735498,1.1056404 47.68,0.61 C47.1905786,0.268441859 46.5925757,0.118941146 46,0.19 L41.8,0.19 C41.1,0.19 40.8,0.47 40.8,1.19 C40.8685781,1.76547369 41.009699,2.32995704 41.22,2.87 L51.18,36 Z" id="Path" fill="#252F3E"></path>
                <path d="M114.6,56.75 C99.2721817,63.2425566 82.8060387,66.6214472 66.16,66.69 C43.8512068,66.7393353 21.9251213,60.8955989 2.6,49.75 C1.06,48.75 -0.2,50.45 1.2,51.75 C18.6343819,67.4517158 41.2975256,76.0876714 64.76,75.97 C82.26,75.97 102.7,70.51 116.84,59.97 C118.94,58.29 116.98,55.77 114.6,56.75 L114.6,56.75 Z" id="Path" fill="#FF9900"></path>
            </g>
            <path d="M105.78,51.87 C104.52,52.71 104.78,53.97 106.06,53.87 C110.54,53.31 120.76,52.05 122.44,54.43 C124.12,56.81 120.44,66.19 118.8,70.53 C118.24,71.79 119.36,72.35 120.62,71.37 C128.18,65.07 130.14,51.77 128.62,49.95 C127.08,47.85 113.78,46.31 105.8,51.95 L105.78,51.87 Z" id="Path" fill="#FF9900"></path>
            <path d="M162.34,30.31 C162.187158,30.3258889 162.0353,30.272016 161.926642,30.1633581 C161.817984,30.0547002 161.764111,29.9028418 161.78,29.75 L161.78,6.65 C161.764111,6.49715824 161.817984,6.34529976 161.926642,6.23664191 C162.0353,6.12798405 162.187158,6.07411111 162.34,6.09 L163.04,6.09 C163.46,6.09 163.6,6.23 163.6,6.65 L163.74,8.05 C164.668557,7.29083249 165.707076,6.67716216 166.82,6.23 C167.7961,5.82962666 168.845439,5.63883758 169.9,5.67 C171.90672,5.59533751 173.829498,6.47877578 175.08,8.05 C176.465503,9.9037725 177.171627,12.1774915 177.08,14.49 C177.164168,16.8881879 176.461809,19.2481147 175.08,21.21 C173.771677,22.87983 171.739514,23.8177514 169.62,23.73 C167.478728,23.6712346 165.434604,22.8236713 163.88,21.35 L163.88,29.75 C163.895889,29.9028418 163.842016,30.0547002 163.733358,30.1633581 C163.6247,30.272016 163.472842,30.3258889 163.32,30.31 L162.34,30.31 Z M169.34,21.91 C170.951801,22.0174101 172.516196,21.3395057 173.54,20.09 C174.595453,18.473942 175.087609,16.5545355 174.94,14.63 C174.94,9.87 173.12,7.49 169.48,7.49 C167.406133,7.54591104 165.420325,8.34023402 163.88,9.73 L163.88,19.67 C164.687095,20.3854827 165.580735,20.9969205 166.54,21.49 C167.459852,21.7085386 168.396511,21.8490374 169.34,21.91 L169.34,21.91 Z" id="Shape" fill="#252F3E"></path>
            <path d="M185.3,23.59 C183.900664,23.6657994 182.532365,23.1590221 181.52,22.19 C180.530637,21.2483061 180.016659,19.9119645 180.12,18.55 C180.049172,17.0548311 180.668444,15.6098614 181.8,14.63 C183.115205,13.6106236 184.76018,13.1121464 186.42,13.23 C188.086573,13.2589035 189.738957,13.5421694 191.32,14.07 L191.32,11.27 C191.454191,10.1886017 191.085723,9.10530495 190.32,8.33 C189.376464,7.68526272 188.238249,7.38833719 187.1,7.49 C185.432374,7.50746882 183.778227,7.79103676 182.2,8.33 C182.06,8.33 181.78,8.47 181.64,8.47 C181.5,8.47 181.36,8.33 181.36,8.05 L181.36,7.35 C181.3403,7.19598794 181.391833,7.04138979 181.5,6.93 L181.78,6.65 C183.605139,5.91652556 185.553004,5.53645443 187.52,5.53 C189.114703,5.4134552 190.699842,5.85927557 192,6.79 C193.014424,7.77336042 193.529141,9.16309676 193.4,10.57 L193.4,22.57 C193.415889,22.7228418 193.362016,22.8747002 193.253358,22.9833581 C193.1447,23.092016 192.992842,23.1458889 192.84,23.13 L192.14,23.13 C191.987158,23.1458889 191.8353,23.092016 191.726642,22.9833581 C191.617984,22.8747002 191.564111,22.7228418 191.58,22.57 L191.44,21.17 C189.748445,22.6926122 187.555874,23.5397421 185.28,23.55 L185.3,23.59 Z M185.58,21.91 C186.541573,21.9143237 187.494057,21.7238267 188.38,21.35 C189.447094,20.9218497 190.477223,20.4067852 191.46,19.81 L191.46,15.61 C189.999675,15.2174358 188.492023,15.0289794 186.98,15.05 C183.76,15.05 182.22,16.31 182.22,18.69 C182.172467,19.5634568 182.474735,20.4198834 183.06,21.07 C183.752509,21.6781016 184.661132,21.9809759 185.58,21.91 L185.58,21.91 Z" id="Shape" fill="#252F3E"></path>
            <path d="M199.16,23.31 C199.007158,23.3258889 198.8553,23.272016 198.746642,23.1633581 C198.637984,23.0547002 198.584111,22.9028418 198.6,22.75 L198.6,6.65 C198.584111,6.49715824 198.637984,6.34529976 198.746642,6.23664191 C198.8553,6.12798405 199.007158,6.07411111 199.16,6.09 L199.86,6.09 C200.28,6.09 200.42,6.23 200.42,6.65 L200.56,8.65 C201.209042,7.7728786 202.078407,7.08290715 203.08,6.65 C203.95784,6.25046222 204.916018,6.05882647 205.88,6.09 L206.72,6.09 C206.872842,6.07411111 207.0247,6.12798405 207.133358,6.23664191 C207.242016,6.34529976 207.295889,6.49715824 207.28,6.65 L207.28,7.49 C207.28,7.63 207.28,7.63 207.14,7.77 C207,7.91 207,7.91 206.86,7.91 L205.6,7.91 C204.636018,7.87882647 203.67784,8.07046222 202.8,8.47 C201.910549,8.93942607 201.106071,9.55461543 200.42,10.29 L200.42,22.75 C200.435889,22.9028418 200.382016,23.0547002 200.273358,23.1633581 C200.1647,23.272016 200.012842,23.3258889 199.86,23.31 L199.16,23.31 Z" id="Path" fill="#252F3E"></path>
            <path d="M216.24,23.45 C215.09777,23.5523678 213.968964,23.1428679 213.158048,22.331952 C212.347132,21.5210361 211.937632,20.3922303 212.04,19.25 L212.04,7.91 L209.38,7.91 C209.227158,7.92588889 209.0753,7.87201595 208.966642,7.76335809 C208.857984,7.65470024 208.804111,7.50284176 208.82,7.35 L208.82,7.07 C208.8003,6.91598794 208.851833,6.76138979 208.96,6.65 C208.96,6.51 209.1,6.51 209.38,6.51 L212.18,6.23 L212.46,1.75 C212.46,1.61 212.6,1.47 212.6,1.33 C212.6,1.19 212.74,1.19 213.02,1.19 L213.58,1.19 C213.732842,1.17411111 213.8847,1.22798405 213.993358,1.33664191 C214.102016,1.44529976 214.155889,1.59715824 214.14,1.75 L214.14,6.23 L219,6.23 C219.152842,6.21411111 219.3047,6.26798405 219.413358,6.37664191 C219.522016,6.48529976 219.575889,6.63715824 219.56,6.79 L219.56,7.49 C219.575889,7.64284176 219.522016,7.79470024 219.413358,7.90335809 C219.3047,8.01201595 219.152842,8.06588889 219,8.05 L214.1,8.05 L214.1,19.39 C213.991812,20.1060896 214.195686,20.8342112 214.66,21.39 C215.227347,21.8318907 215.945677,22.033023 216.66,21.95 C217.223834,21.9858339 217.789874,21.9386639 218.34,21.81 C218.62,21.81 218.76,21.67 218.9,21.67 L219.18,21.67 C219.295789,21.6529327 219.412825,21.6916558 219.495585,21.7744154 C219.578344,21.8571749 219.617067,21.9742114 219.6,22.09 L219.6,22.65 C219.64225,22.9531125 219.467335,23.2446383 219.18,23.35 C218.34,23.35 217.36,23.49 216.24,23.49 L216.24,23.45 Z" id="Path" fill="#252F3E"></path>
            <path d="M223.8,23.31 C223.647158,23.3258889 223.4953,23.272016 223.386642,23.1633581 C223.277984,23.0547002 223.224111,22.9028418 223.24,22.75 L223.24,6.65 C223.224111,6.49715824 223.277984,6.34529976 223.386642,6.23664191 C223.4953,6.12798405 223.647158,6.07411111 223.8,6.09 L224.5,6.09 C224.92,6.09 225.06,6.23 225.06,6.65 L225.2,8.05 C226.257683,7.25346601 227.44049,6.63840637 228.7,6.23 C229.821267,5.80938971 231.003211,5.5730009 232.2,5.53 C233.585038,5.41801531 234.956257,5.87268263 236,6.79 C236.934201,7.8717377 237.388957,9.28653299 237.26,10.71 L237.26,22.61 C237.275889,22.7628418 237.222016,22.9147002 237.113358,23.0233581 C237.0047,23.132016 236.852842,23.1858889 236.7,23.17 L235.7,23.17 C235.547158,23.1858889 235.3953,23.132016 235.286642,23.0233581 C235.177984,22.9147002 235.124111,22.7628418 235.14,22.61 L235.14,11.69 C235.241663,10.5517507 234.944737,9.41353621 234.3,8.47 C233.610434,7.75117703 232.63233,7.38346876 231.64,7.47 C229.26221,7.48584963 226.953575,8.27176815 225.06,9.71 L225.06,22.89 C225.075889,23.0428418 225.022016,23.1947002 224.913358,23.3033581 C224.8047,23.412016 224.652842,23.4658889 224.5,23.45 L223.8,23.45 L223.8,23.31 Z" id="Path" fill="#252F3E"></path>
            <path d="M249.84,23.73 C247.18,23.73 245.08,23.03 243.84,21.49 C242.6,19.95 241.74,17.71 241.74,14.63 C241.591606,12.2511166 242.34097,9.9031097 243.84,8.05 C245.318474,6.46298077 247.412314,5.59480301 249.58,5.67 C251.359738,5.52920835 253.108195,6.19773575 254.34,7.49 C255.544965,8.86559848 256.149866,10.6658982 256.02,12.49 C256.053206,13.1930449 256.006237,13.8975846 255.88,14.59 C255.860531,14.8908465 255.620846,15.1305309 255.32,15.15 L243.82,15.15 C243.68354,17.0501287 244.22962,18.9365882 245.36,20.47 C246.633845,21.6842279 248.366199,22.295647 250.12,22.15 C251.699591,22.1685387 253.268029,21.8833682 254.74,21.31 C254.914915,21.2249399 255.105635,21.1772599 255.3,21.17 C255.44,21.17 255.44,21.17 255.58,21.31 C255.72,21.45 255.72,21.45 255.72,21.59 L255.72,22.15 C255.76225,22.4531125 255.587335,22.7446383 255.3,22.85 C253.519571,23.3446948 251.686792,23.6266609 249.84,23.69 L249.84,23.73 Z M254,13.51 L254,12.39 C254.082968,11.0806932 253.684659,9.78619065 252.88,8.75 C251.938816,7.86236902 250.670989,7.40595137 249.38,7.49 C245.74,7.49 243.92,9.49 243.64,13.49 L254,13.51 Z" id="Shape" fill="#252F3E"></path>
            <path d="M260.62,23.31 C260.467158,23.3258889 260.3153,23.272016 260.206642,23.1633581 C260.097984,23.0547002 260.044111,22.9028418 260.06,22.75 L260.06,6.65 C260.044111,6.49715824 260.097984,6.34529976 260.206642,6.23664191 C260.3153,6.12798405 260.467158,6.07411111 260.62,6.09 L261.32,6.09 C261.74,6.09 261.88,6.23 261.88,6.65 L262.02,8.65 C262.669042,7.7728786 263.538407,7.08290715 264.54,6.65 C265.41784,6.25046222 266.376018,6.05882647 267.34,6.09 L268.18,6.09 C268.332842,6.07411111 268.4847,6.12798405 268.593358,6.23664191 C268.702016,6.34529976 268.755889,6.49715824 268.74,6.65 L268.74,7.49 C268.74,7.63 268.74,7.63 268.6,7.77 C268.46,7.91 268.46,7.91 268.32,7.91 L267.06,7.91 C266.096018,7.87882647 265.13784,8.07046222 264.26,8.47 C263.370549,8.93942607 262.566071,9.55461543 261.88,10.29 L261.88,22.75 C261.895889,22.9028418 261.842016,23.0547002 261.733358,23.1633581 C261.6247,23.272016 261.472842,23.3258889 261.32,23.31 L260.62,23.31 Z" id="Path" fill="#252F3E"></path>
            <path d="M162.34,61 C162.187158,61.0158889 162.0353,60.962016 161.926642,60.8533581 C161.817984,60.7447002 161.764111,60.5928418 161.78,60.44 L161.78,44.44 C161.764111,44.2871582 161.817984,44.1352998 161.926642,44.0266419 C162.0353,43.917984 162.187158,43.8641111 162.34,43.88 L163.04,43.88 C163.46,43.88 163.6,44.02 163.6,44.44 L163.74,45.84 C164.797683,45.043466 165.98049,44.4284064 167.24,44.02 C168.361267,43.5993897 169.543211,43.3630009 170.74,43.32 C172.118302,43.2135361 173.481237,43.6678476 174.52,44.58 C175.454201,45.6617377 175.908957,47.076533 175.78,48.5 L175.78,60.4 C175.795889,60.5528418 175.742016,60.7047002 175.633358,60.8133581 C175.5247,60.922016 175.372842,60.9758889 175.22,60.96 L174.22,60.96 C174.067158,60.9758889 173.9153,60.922016 173.806642,60.8133581 C173.697984,60.7047002 173.644111,60.5528418 173.66,60.4 L173.66,49.35 C173.761663,48.2117507 173.464737,47.0735362 172.82,46.13 C172.130434,45.411177 171.15233,45.0434688 170.16,45.13 C167.78221,45.1458496 165.473575,45.9317681 163.58,47.37 L163.58,60.53 C163.595889,60.6828418 163.542016,60.8347002 163.433358,60.9433581 C163.3247,61.052016 163.172842,61.1058889 163.02,61.09 L162.32,61.09 L162.34,61 Z" id="Path" fill="#252F3E"></path>
            <path d="M188.38,61.53 C185.72,61.53 183.62,60.83 182.38,59.29 C181.14,57.75 180.28,55.51 180.28,52.43 C180.131606,50.0511166 180.88097,47.7031097 182.38,45.85 C183.858474,44.2629808 185.952314,43.394803 188.12,43.47 C189.899738,43.3292084 191.648195,43.9977357 192.88,45.29 C194.084965,46.6655985 194.689866,48.4658982 194.56,50.29 C194.593206,50.9930449 194.546237,51.6975846 194.42,52.39 C194.400531,52.6908465 194.160846,52.9305309 193.86,52.95 L182.36,52.95 C182.22354,54.8501287 182.76962,56.7365882 183.9,58.27 C185.173845,59.4842279 186.906199,60.095647 188.66,59.95 C190.239591,59.9685387 191.808029,59.6833682 193.28,59.11 C193.454915,59.0249399 193.645635,58.9772599 193.84,58.97 C193.98,58.97 193.98,58.97 194.12,59.11 C194.26,59.25 194.26,59.25 194.26,59.39 L194.26,60 C194.30225,60.3031125 194.127335,60.5946383 193.84,60.7 C192.061872,61.2053189 190.22779,61.4874854 188.38,61.54 L188.38,61.53 Z M192.58,51.17 L192.58,50.05 C192.662968,48.7406932 192.264659,47.4461907 191.46,46.41 C190.518816,45.522369 189.250989,45.0659514 187.96,45.15 C184.32,45.15 182.5,47.15 182.22,51.15 L192.58,51.17 Z" id="Shape" fill="#252F3E"></path>
            <path d="M204.06,61.25 C202.91777,61.3523678 201.788964,60.9428679 200.978048,60.131952 C200.167132,59.3210361 199.757632,58.1922303 199.86,57.05 L199.86,45.57 L197.2,45.57 C197.047158,45.5858889 196.8953,45.532016 196.786642,45.4233581 C196.677984,45.3147002 196.624111,45.1628418 196.64,45.01 L196.64,44.73 C196.6203,44.5759879 196.671833,44.4213898 196.78,44.31 C196.78,44.17 196.92,44.17 197.2,44.17 L200,43.89 L200.28,39.41 C200.28,39.27 200.42,39.13 200.42,38.99 C200.42,38.85 200.56,38.85 200.84,38.85 L201.4,38.85 C201.552842,38.8341111 201.7047,38.887984 201.813358,38.9966419 C201.922016,39.1052998 201.975889,39.2571582 201.96,39.41 L201.96,43.89 L206.86,43.89 C207.012842,43.8741111 207.1647,43.927984 207.273358,44.0366419 C207.382016,44.1452998 207.435889,44.2971582 207.42,44.45 L207.42,45.15 C207.435889,45.3028418 207.382016,45.4547002 207.273358,45.5633581 C207.1647,45.672016 207.012842,45.7258889 206.86,45.71 L202,45.71 L202,57.05 C201.891812,57.7660896 202.095686,58.4942112 202.56,59.05 C203.127347,59.4918907 203.845677,59.693023 204.56,59.61 C205.123834,59.6458339 205.689874,59.5986639 206.24,59.47 C206.52,59.47 206.66,59.33 206.8,59.33 L207,59.33 C207.115789,59.3129327 207.232825,59.3516558 207.315585,59.4344154 C207.398344,59.5171749 207.437067,59.6342114 207.42,59.75 L207.42,60.31 C207.46225,60.6131125 207.287335,60.9046383 207,61.01 C206.02966,61.186149 205.046146,61.2798169 204.06,61.29 L204.06,61.25 Z" id="Path" fill="#252F3E"></path>
            <path d="M215.12,61 C214.825548,61.0053841 214.553815,60.8423445 214.42,60.58 L209.1,44.76 C209.002428,44.5898786 208.953964,44.3960235 208.96,44.2 C208.96,44.06 209.1,43.92 209.38,43.92 L210.5,43.92 C210.78,43.92 210.92,44.06 211.06,44.34 L215.68,58.76 L219.74,44.34 C219.845362,44.0526654 220.136888,43.8777499 220.44,43.92 L221.7,43.92 C221.994452,43.9146159 222.266185,44.0776555 222.4,44.34 L226.46,58.76 L231.22,44.2 C231.36,43.92 231.5,43.78 231.78,43.78 L232.78,43.78 C233.06,43.78 233.2,43.92 233.2,44.06 C233.206036,44.2560235 233.157572,44.4498786 233.06,44.62 L227.46,60.44 C227.354638,60.7273346 227.063112,60.9022501 226.76,60.86 L225.64,60.86 C225.345548,60.8653841 225.073815,60.7023445 224.94,60.44 L220.86,46 L216.8,60.42 C216.694638,60.7073346 216.403112,60.8822501 216.1,60.84 L215.1,60.84 L215.12,61 Z" id="Path" fill="#252F3E"></path>
            <path d="M243.26,61.53 C241.046555,61.6330104 238.898623,60.7636091 237.38,59.15 C235.98,57.61 235.28,55.37 235.28,52.43 C235.156705,50.0113052 235.901451,47.6281186 237.38,45.71 C240.657031,42.5348213 245.862969,42.5348213 249.14,45.71 C250.54,47.25 251.24,49.49 251.24,52.43 C251.363295,54.8486948 250.618549,57.2318814 249.14,59.15 C247.621377,60.7636091 245.473445,61.6330104 243.26,61.53 L243.26,61.53 Z M243.26,59.71 C247.18,59.71 249.14,57.33 249.14,52.43 C249.14,47.53 247.14,45.15 243.26,45.15 C239.38,45.15 237.38,47.53 237.38,52.43 C237.38,57.33 239.38,59.71 243.26,59.71 Z" id="Shape" fill="#252F3E"></path>
            <path d="M256.14,61 C255.987158,61.0158889 255.8353,60.962016 255.726642,60.8533581 C255.617984,60.7447002 255.564111,60.5928418 255.58,60.44 L255.58,44.44 C255.564111,44.2871582 255.617984,44.1352998 255.726642,44.0266419 C255.8353,43.917984 255.987158,43.8641111 256.14,43.88 L256.84,43.88 C257.26,43.88 257.4,44.02 257.4,44.44 L257.54,46.44 C258.189042,45.5628786 259.058407,44.8729071 260.06,44.44 C260.93784,44.0404622 261.896018,43.8488265 262.86,43.88 L263.7,43.88 C263.852842,43.8641111 264.0047,43.917984 264.113358,44.0266419 C264.222016,44.1352998 264.275889,44.2871582 264.26,44.44 L264.26,45.28 C264.26,45.42 264.26,45.42 264.12,45.56 C263.98,45.7 263.98,45.7 263.84,45.7 L262.58,45.7 C261.616018,45.6688265 260.65784,45.8604622 259.78,46.26 C258.890549,46.7294261 258.086071,47.3446154 257.4,48.08 L257.4,60.54 C257.415889,60.6928418 257.362016,60.8447002 257.253358,60.9533581 C257.1447,61.062016 256.992842,61.1158889 256.84,61.1 L256.14,61.1 L256.14,61 Z" id="Path" fill="#252F3E"></path>
            <path d="M267.76,61 C267.607158,61.0158889 267.4553,60.962016 267.346642,60.8533581 C267.237984,60.7447002 267.184111,60.5928418 267.2,60.44 L267.2,36.33 C267.184111,36.1771582 267.237984,36.0252998 267.346642,35.9166419 C267.4553,35.807984 267.607158,35.7541111 267.76,35.77 L268.76,35.77 C268.912842,35.7541111 269.0647,35.807984 269.173358,35.9166419 C269.282016,36.0252998 269.335889,36.1771582 269.32,36.33 L269.32,51.45 L277.44,44.17 C277.661172,43.9510366 277.971684,43.8475328 278.28,43.89 L279.54,43.89 C279.82,43.89 279.96,44.03 279.96,44.17 C279.96,44.31 279.82,44.45 279.54,44.73 L271.26,52 L280.26,60.26 C280.4,60.4 280.54,60.54 280.54,60.68 C280.54,60.82 280.4,60.96 280.12,60.96 L278.72,60.96 C278.460424,60.9546836 278.211635,60.8551682 278.02,60.68 L269.34,52.56 L269.34,60.4 C269.355889,60.5528418 269.302016,60.7047002 269.193358,60.8133581 C269.0847,60.922016 268.932842,60.9758889 268.78,60.96 L267.76,61 Z" id="Path" fill="#252F3E"></path>
        </g>
    </g>
</svg>