<?xml version="1.0" encoding="UTF-8"?>
<svg width="458px" height="220px" viewBox="0 0 458 220" version="1.1" xmlns="http://www.w3.org/2000/svg" xmlns:xlink="http://www.w3.org/1999/xlink">
    <!-- Generator: Sketch 53 (72520) - https://sketchapp.com -->
    <title>hyperledger-seeklogo.com</title>
    <desc>Created with Sketch.</desc>
    <defs>
        <polygon id="path-1" points="0.06 0.671 94.2252433 0.671 94.2252433 86.853 0.06 86.853"></polygon>
        <polygon id="path-3" points="0.06 0.67254967 75.577 0.67254967 75.577 82.538 0.06 82.538"></polygon>
    </defs>
    <g id="hyperledger-seeklogo.com" stroke="none" stroke-width="1" fill="none" fill-rule="evenodd">
        <g id="Group-3" transform="translate(181.000000, 21.000000)">
            <mask id="mask-2" fill="white">
                <use xlink:href="#path-1"></use>
            </mask>
            <g id="Clip-2"></g>
            <path d="M0.974,48.031 L27.731,85.925 L73.872,81.657 L93.25,39.496 L66.494,1.604 L20.354,5.868 L0.974,48.031 Z M27.515,86.853 C27.367,86.853 27.229,86.783 27.144,86.664 L0.083,48.342 C-0.009,48.208 -0.027,48.037 0.041,47.888 L19.641,5.254 C19.708,5.106 19.85,5.005 20.011,4.991 L66.669,0.675 C66.831,0.649 66.988,0.733 67.081,0.865 L94.141,39.185 C94.234,39.32 94.252,39.491 94.185,39.637 L74.583,82.276 C74.517,82.424 74.376,82.524 74.216,82.537 L27.554,86.853 L27.515,86.853 L27.515,86.853 Z" id="Fill-1" fill="#0A0B09" mask="url(#mask-2)"></path>
        </g>
        <path d="M201.453023,26.6088288 L201.483888,68.7847928 L208.817876,107.283672 L246.761258,85.165905 L274.250272,60.5013048 L237.116357,37.1909972 L201.453023,26.6088288 Z M208.494288,108 L201.035844,68.8239748 L201,26 L237.328431,36.7911393 L275,60.4370061 L247.023115,85.5305995 L208.494288,108 L208.494288,108 Z" id="Fill-4" fill="#0A0B09"></path>
        <path d="M210,107.5 C210,108.3277 209.328918,109 208.5,109 C207.673289,109 207,108.3277 207,107.5 C207,106.6723 207.673289,106 208.5,106 C209.328918,106 210,106.6723 210,107.5" id="Fill-9" fill="#0A0B09"></path>
        <path d="M208.999464,106.914377 L208.90948,107 C208.90948,107.047092 208.950187,107.085623 208.999464,107.085623 L208.999464,106.914377 Z M208.999464,110 C207.345474,110 206,108.656796 206,107 C206,105.346415 207.345474,104 208.999464,104 C210.653455,104 212,105.346415 212,107 C212,108.656796 210.653455,110 208.999464,110 L208.999464,110 Z" id="Fill-10" fill="#0A0B09"></path>
        <g id="Group-19" transform="translate(181.000000, 21.000000)">
            <mask id="mask-4" fill="white">
                <use xlink:href="#path-3"></use>
            </mask>
            <g id="Clip-17"></g>
            <path d="M20.052,5.36 L19.968,5.442 C19.968,5.488 20.006,5.524 20.052,5.524 L20.052,5.36 Z M20.052,8.246 C18.508,8.246 17.253,6.988 17.253,5.442 C17.253,3.898 18.508,2.637 20.052,2.637 C21.596,2.637 22.853,3.898 22.853,5.442 C22.853,6.988 21.596,8.246 20.052,8.246 L20.052,8.246 Z" id="Fill-16" fill="#0A0B09" mask="url(#mask-4)"></path>
            <path d="M1.22,47.991 L38.819,69.135 L73.734,81.45 L74.68,38.143 L66.404,1.814 L29.423,22.132 L1.22,47.991 Z M74.174,82.538 C74.123,82.538 74.071,82.529 74.023,82.514 L38.446,69.956 L0.23,48.474 C0.104,48.402 0.021,48.276 0.003,48.133 C-0.013,47.987 0.039,47.844 0.146,47.742 L28.899,21.396 L66.494,0.728 C66.619,0.66 66.767,0.654 66.898,0.713 C67.027,0.772 67.121,0.887 67.153,1.024 L75.577,38.055 L74.624,82.098 C74.623,82.241 74.549,82.376 74.431,82.458 C74.354,82.512 74.264,82.538 74.174,82.538 L74.174,82.538 Z" id="Fill-18" fill="#0A0B09" mask="url(#mask-4)"></path>
        </g>
        <polyline id="Fill-23" fill="#0A0B09" points="208.795137 107 208 106.521196 219.201737 90 220 90.476846 208.795137 107"></polyline>
        <polyline id="Fill-25" fill="#0A0B09" points="59 139.027959 66.6033504 139.019971 66.6155093 151.685345 81.3804377 151.670367 81.3682788 139.005991 88.9696028 139 89 172.974038 81.398676 172.978032 81.3844907 158.295624 66.6195623 158.309604 66.6317212 172.992012 59.0324237 173 59 139.027959"></polyline>
        <polyline id="Fill-26" fill="#0A0B09" points="103.778923 158.503628 91 139.027968 100.306184 139.017979 107.510971 151.733394 115.12766 139.003995 124 139 111.262965 158.499633 111.274934 172.992009 103.790891 173 103.778923 158.503628"></polyline>
        <path d="M133.635646,153.406028 L138.715581,153.402032 C139.404282,153.402032 140.059462,153.336096 140.695343,153.206223 C141.330208,153.081344 141.897015,152.860558 142.404907,152.556853 C142.908736,152.25115 143.314033,151.836553 143.621816,151.307067 C143.933662,150.780578 144.087045,150.11922 144.087045,149.317 C144.087045,148.452839 143.880841,147.754517 143.474527,147.229027 C143.067198,146.701539 142.545085,146.290938 141.907173,146.002219 C141.276371,145.718494 140.565323,145.535672 139.784185,145.452752 C139.003047,145.375827 138.252383,145.335866 137.53524,145.339862 L133.62752,145.34186 L133.635646,153.406028 Z M126,139.010009 L138.849664,139.000019 C140.640491,138.998021 142.337865,139.155867 143.93163,139.476556 C145.52641,139.792249 146.918034,140.343714 148.110564,141.125954 C149.298015,141.912191 150.24371,142.965168 150.943585,144.292879 C151.646507,145.618591 151.997968,147.292965 152,149.309007 C152,151.29308 151.679012,152.955466 151.028911,154.303157 C150.376778,155.646852 149.482888,156.716813 148.34521,157.522031 C147.203469,158.323253 145.855524,158.890702 144.289186,159.229373 C142.728942,159.568044 141.033599,159.734882 139.209251,159.73688 L133.639709,159.742875 L133.651899,172.992008 L126.032505,173 L126,139.010009 L126,139.010009 Z" id="Fill-27" fill="#0A0B09"></path>
        <polyline id="Fill-28" fill="#0A0B09" points="156 139.019975 179.106006 139 179.110001 145.910464 163.499563 145.924446 163.506555 152.260619 178.253964 152.246637 178.25796 159.158099 163.510551 159.170084 163.514546 166.084543 179.994007 166.066565 180 172.980025 156.031964 173 156 139.019975"></polyline>
        <path d="M193.422161,153.069114 L197.793308,153.067116 C198.458804,153.065118 199.160834,153.041143 199.905321,152.989198 C200.648821,152.941249 201.321229,152.7984 201.923533,152.557656 C202.5209,152.316911 203.018541,151.938312 203.415469,151.428851 C203.80746,150.915395 204.005924,150.195158 204.005924,149.269139 C204.001975,148.404056 203.829183,147.714786 203.483598,147.203328 C203.137027,146.691869 202.692704,146.302282 202.153593,146.027573 C201.616456,145.75686 200.99638,145.574054 200.302249,145.476157 C199.605156,145.382257 198.923862,145.334308 198.26034,145.338303 L193.41525,145.340301 L193.422161,153.069114 Z M186,139.011006 L199.012726,139.000018 C200.724849,138.99802 202.344158,139.164843 203.880527,139.499489 C205.41492,139.835133 206.758749,140.39454 207.91695,141.174714 C209.072189,141.959882 209.993417,143.013766 210.675699,144.339362 C211.355019,145.666955 211.694679,147.325198 211.698629,149.308098 C211.702578,151.707556 211.082501,153.749393 209.851234,155.431611 C208.617992,157.11283 206.816018,158.177702 204.439386,158.630223 L213,172.974028 L204.120461,172.984017 L197.085354,159.402405 L193.426111,159.4064 L193.437959,172.990011 L186.031596,173 L186,139.011006 L186,139.011006 Z" id="Fill-29" fill="#0A0B09"></path>
        <polyline id="Fill-30" fill="#0A0B09" points="217 139.003997 224.352401 139 224.371996 166.081291 237.992162 166.0693 238 172.984012 217.032333 173 217 139.003997"></polyline>
        <polyline id="Fill-31" fill="#0A0B09" points="242 139.019975 265.10608 139 265.112073 145.910464 249.500936 145.924446 249.508927 152.260619 264.253111 152.248634 264.258105 159.160096 249.512922 159.170084 249.518915 166.084543 265.996005 166.066565 266 172.980025 242.033959 173 242 139.019975"></polyline>
        <path d="M278.426384,166.082523 L282.270305,166.078527 C283.979153,166.07453 285.565658,165.898696 287.037714,165.54503 C288.508783,165.188366 289.780553,164.605915 290.855983,163.787687 C291.930426,162.973454 292.77597,161.900466 293.391629,160.568722 C294.005314,159.240974 294.313143,157.616506 294.312157,155.696316 C294.310184,154.031886 294.003341,152.58525 293.381762,151.352412 C292.76413,150.118576 291.934372,149.103533 290.889528,148.307284 C289.844684,147.507038 288.616326,146.905606 287.213335,146.509979 C285.80245,146.109356 284.323488,145.912542 282.776448,145.912542 L278.405665,145.918536 L278.426384,166.082523 Z M271,139.009052 L282.103564,139.00006 C284.791151,138.995065 287.34653,139.301776 289.768713,139.903208 C292.185963,140.510636 294.300317,141.495707 296.104868,142.853427 C297.910406,144.210147 299.340037,145.974484 300.40264,148.151431 C301.465244,150.329377 301.996052,152.968888 301.999999,156.07396 C302.000985,158.829362 301.488923,161.254076 300.462825,163.348101 C299.436727,165.445124 298.054455,167.207462 296.318968,168.63112 C294.576574,170.059772 292.569763,171.137756 290.293602,171.879057 C288.015467,172.615363 285.628803,172.988011 283.130649,172.990009 L271.028612,173 L271,139.009052 L271,139.009052 Z" id="Fill-32" fill="#0A0B09"></path>
        <path d="M338,170.694419 C335.76552,171.857363 333.434065,172.70012 331.005634,173.218663 C328.579223,173.737205 326.102304,173.993959 323.571847,174 C320.885824,174 318.409916,173.583152 316.142101,172.747444 C313.873275,171.908714 311.91255,170.709522 310.262954,169.14282 C308.606287,167.587194 307.31631,165.691242 306.393021,163.468055 C305.464681,161.236813 305.004047,158.755866 305.000007,156.011116 C304.997986,153.272408 305.4566,150.787433 306.376858,148.562232 C307.300147,146.336025 308.584064,144.442087 310.23669,142.873371 C311.883255,141.307676 313.844991,140.104456 316.109775,139.263713 C318.377591,138.42297 320.851479,138.000081 323.542552,138.000081 C326.294235,137.99404 328.828733,138.325303 331.144026,138.98078 C333.460329,139.641292 335.497827,140.779065 337.246419,142.392083 L331.908719,148.20177 C330.870272,147.138507 329.703534,146.331997 328.406485,145.782242 C327.110447,145.236514 325.491156,144.961636 323.548613,144.967677 C321.927302,144.967677 320.464587,145.244569 319.152385,145.792311 C317.842204,146.343073 316.716883,147.106287 315.779452,148.091013 C314.840001,149.077754 314.122786,150.247746 313.619725,151.603004 C313.118684,152.959269 312.871194,154.428304 312.871194,156.007089 C312.873214,157.620107 313.122724,159.094177 313.628816,160.434332 C314.133897,161.772473 314.853133,162.930382 315.791574,163.915109 C316.732036,164.900843 317.858367,165.662043 319.170568,166.213812 C320.480749,166.757526 321.948516,167.032404 323.567806,167.03039 C325.222453,167.026362 326.647792,166.84009 327.845845,166.468552 C329.040867,166.100035 329.997492,165.720442 330.705616,165.326752 L330.703595,159.763751 L324.534532,159.772813 L324.526451,152.799175 L337.982827,152.79112 L338,170.694419" id="Fill-33" fill="#0A0B09"></path>
        <polyline id="Fill-34" fill="#0A0B09" points="344 139.021972 367.105044 139 367.108041 145.910058 351.499251 145.924039 351.506243 152.25984 366.249043 152.247856 366.257033 159.158912 351.512236 159.170896 351.514233 166.082951 367.992009 166.064975 368 172.978028 344.031963 173 344 139.021972"></polyline>
        <path d="M381.417496,153.069941 L385.788802,153.065945 C386.453335,153.065945 387.157365,153.037973 387.900892,152.994017 C388.645407,152.943068 389.315865,152.799212 389.91819,152.556454 C390.518542,152.317693 391.015214,151.940071 391.413144,151.429582 C391.804162,150.916096 392.004608,150.195816 392.002633,149.270742 C392.002633,148.404609 391.826872,147.716297 391.482263,147.204809 C391.131729,146.695319 390.686403,146.302712 390.150234,146.027986 C389.611103,145.757257 388.991991,145.572442 388.296848,145.477537 C387.600717,145.381633 386.919397,145.335679 386.254864,145.335679 L381.409596,145.341673 L381.417496,153.069941 Z M374,139.010008 L387.01024,139.000018 C388.719463,138.99802 390.340806,139.160857 391.878218,139.499518 C393.411681,139.835183 394.755559,140.394623 395.915777,141.175841 C397.071058,141.956061 397.990345,143.013003 398.672652,144.339676 C399.355946,145.665349 399.693644,147.325688 399.697594,149.307705 C399.699568,151.708303 399.079469,153.751259 397.850132,155.432577 C396.618819,157.110898 394.814804,158.17783 392.44006,158.631376 L401,172.976024 L392.120136,172.982018 L385.080822,159.403604 L381.425395,159.4076 L381.436257,172.992008 L374.029623,173 L374,139.010008 L374,139.010008 Z" id="Fill-35" fill="#0A0B09"></path>
        <text id="BLOCKCHAIN-TECHNOLOGIES-FOR-BUSINESS" font-family="Roboto-Regular, Roboto" font-size="16.7677" font-weight="normal" letter-spacing="-0.0001" fill="#0A0B09">
            <tspan x="57" y="199">B</tspan>
            <tspan x="67.4387757" y="199" letter-spacing="-0.52157547">L</tspan>
            <tspan x="75.4074859" y="199">OC</tspan>
            <tspan x="97.8488218" y="199" letter-spacing="-0.25496904">K</tspan>
            <tspan x="107.852607" y="199" letter-spacing="0.00660708">C</tspan>
            <tspan x="118.772956" y="199" letter-spacing="0.12901129">H</tspan>
            <tspan x="131.002876" y="199" letter-spacing="0.00660708">A</tspan>
            <tspan x="141.947787" y="199">IN TECHNO</tspan>
            <tspan x="228.167907" y="199" letter-spacing="-0.52157547">L</tspan>
            <tspan x="236.136617" y="199" letter-spacing="-0.00513031">O</tspan>
            <tspan x="247.659281" y="199">GIES FOR BUSINESS</tspan>
        </text>
        <path d="M239.271,37.307 C239.271,38.059 238.661,38.669 237.912,38.669 C237.163,38.669 236.553,38.059 236.553,37.307 C236.553,36.556 237.163,35.947 237.912,35.947 C238.661,35.947 239.271,36.556 239.271,37.307" id="Fill-5" fill="#0A0B09"></path>
        <path d="M237.913,37.226 L237.829,37.308 C237.829,37.354 237.865,37.389 237.913,37.389 L237.913,37.226 Z M237.913,40.111 C236.368,40.111 235.111,38.854 235.111,37.308 C235.111,35.764 236.368,34.503 237.913,34.503 C239.456,34.503 240.712,35.764 240.712,37.308 C240.712,38.854 239.456,40.111 237.913,40.111 L237.913,40.111 Z" id="Fill-6" fill="#0A0B09"></path>
        <path d="M248.342,85.144 C248.342,85.896 247.734,86.505 246.983,86.505 C246.234,86.505 245.624,85.896 245.624,85.144 C245.624,84.393 246.234,83.783 246.983,83.783 C247.734,83.783 248.342,84.393 248.342,85.144" id="Fill-7" fill="#0A0B09"></path>
        <path d="M246.983,85.063 L246.899,85.144 C246.899,85.19 246.935,85.226 246.983,85.226 L246.983,85.063 Z M246.983,87.947 C245.439,87.947 244.182,86.691 244.182,85.144 C244.182,83.6 245.439,82.339 246.983,82.339 C248.527,82.339 249.782,83.6 249.782,85.144 C249.782,86.691 248.527,87.947 246.983,87.947 L246.983,87.947 Z" id="Fill-8" fill="#0A0B09"></path>
        <path d="M202.411,69.176 C202.411,69.927 201.803,70.537 201.052,70.537 C200.303,70.537 199.693,69.927 199.693,69.176 C199.693,68.425 200.303,67.816 201.052,67.816 C201.803,67.816 202.411,68.425 202.411,69.176" id="Fill-11" fill="#0A0B09"></path>
        <path d="M201.052,69.094 L200.968,69.176 C200.968,69.222 201.006,69.257 201.052,69.257 L201.052,69.094 Z M201.052,71.979 C199.508,71.979 198.253,70.722 198.253,69.176 C198.253,67.632 199.508,66.373 201.052,66.373 C202.596,66.373 203.853,67.632 203.853,69.176 C203.853,70.722 202.596,71.979 201.052,71.979 L201.052,71.979 Z" id="Fill-12" fill="#0A0B09"></path>
        <path d="M276.13,60.516 C276.13,61.267 275.522,61.876 274.771,61.876 C274.022,61.876 273.413,61.267 273.413,60.516 C273.413,59.765 274.022,59.155 274.771,59.155 C275.522,59.155 276.13,59.765 276.13,60.516" id="Fill-13" fill="#0A0B09"></path>
        <path d="M274.771,60.434 L274.688,60.516 C274.688,60.562 274.726,60.598 274.771,60.598 L274.771,60.434 Z M274.771,63.319 C273.227,63.319 271.97,62.062 271.97,60.516 C271.97,58.972 273.227,57.711 274.771,57.711 C276.315,57.711 277.573,58.972 277.573,60.516 C277.573,62.062 276.315,63.319 274.771,63.319 L274.771,63.319 Z" id="Fill-14" fill="#0A0B09"></path>
        <path d="M202.411,26.442 C202.411,27.193 201.803,27.803 201.052,27.803 C200.303,27.803 199.693,27.193 199.693,26.442 C199.693,25.691 200.303,25.082 201.052,25.082 C201.803,25.082 202.411,25.691 202.411,26.442" id="Fill-15" fill="#0A0B09"></path>
        <path d="M201.275,69.134 L246.835,84.974 L237.835,37.523 L201.275,69.134 Z M247.132,85.316 L246.945,85.25 L200.831,69.219 L200.978,69.088 L237.987,37.094 L247.132,85.316 L247.132,85.316 Z" id="Fill-20" fill="#0A0B09"></path>
        <path d="M210.804,43.428 L219.891,89.676 L255.248,59.318 L210.804,43.428 Z M219.303,91.378 L209.608,42.038 L257.021,58.991 L219.303,91.378 L219.303,91.378 Z" id="Fill-21" fill="#0A0B09"></path>
        <polyline id="Fill-22" fill="#0A0B09" points="209.809 42.954 200.656 26.665 201.449 26.218 210.6 42.51 209.809 42.954"></polyline>
        <polyline id="Fill-24" fill="#0A0B09" points="274.739 60.968 256.102 59.607 256.165 58.704 274.802 60.063 274.739 60.968"></polyline>
    </g>
</svg>