<?xml version="1.0" encoding="UTF-8"?>
<svg width="543px" height="328px" viewBox="0 0 543 328" version="1.1" xmlns="http://www.w3.org/2000/svg" xmlns:xlink="http://www.w3.org/1999/xlink">
    <!-- Generator: Sketch 53 (72520) - https://sketchapp.com -->
    <title>stellar-seeklogo.com</title>
    <desc>Created with Sketch.</desc>
    <g id="Page-1" stroke="none" stroke-width="1" fill="none" fill-rule="evenodd">
        <g id="stellar-seeklogo.com" fill-rule="nonzero">
            <g id="#5b6a72fe" transform="translate(171.000000, 0.000000)" fill="#5B6A72">
                <path d="M35.9,24.85 C53.79,9.37 77.32,0.6 100.98,0.71 C123.71,0.55 146.34,8.57 163.98,22.88 C180.39,36.08 192.51,54.53 197.96,74.88 C203.89,96.71 202.23,120.55 193.17,141.3 C183.33,164.12 164.7,183.01 141.98,193.09 C119.36,203.33 92.9,204.56 69.38,196.67 C39.14,186.74 14.5,161.53 5.27,131.06 C1.11,118.18 0.29,104.52 1.01,91.08 C1.65,92.27 2.77,93.43 2.29,94.92 C0.83,116.68 6.95,138.8 19.12,156.86 C32.12,176.38 52.41,190.78 75,196.95 C95.44,202.66 117.69,201.4 137.39,193.54 C157.41,185.71 174.74,171.16 185.77,152.69 C197.38,133.48 202.39,110.26 199.24,88 C196.39,66.82 186.54,46.64 171.52,31.43 C156.2,15.9 135.61,5.68 113.97,2.86 C91.32,-0.3 67.7,5.11 48.39,17.28 C27.27,30.37 11.72,51.85 5.42,75.84 C4.23,80.74 2.9,85.69 2.99,90.78 C2.48,90.06 1.98,89.33 1.48,88.61 C4.65,64.08 17.03,40.87 35.9,24.85 Z" id="Path"></path>
                <path d="M139.55,25.73 C144.4,24.85 149.44,23.75 154.35,24.64 C156.98,26.39 157.2,30.01 158.1,32.79 C161.29,47.38 161.32,63.98 152.79,76.84 C147.32,84.1 141.35,90.97 135.52,97.94 C143.26,111.52 138.45,128.4 129.69,140.26 C128.64,136.56 128.5,132.65 127.06,129.06 C125.37,124.52 122.67,120.4 119.33,116.9 C117.76,118.31 116.26,120.21 113.99,120.37 C111.58,120.65 109.45,119.27 107.53,118.01 C99.55,112.31 91.53,106.67 83.54,100.99 C81.79,99.67 79.96,98.13 79.42,95.9 C78.8,93.75 79.96,91.7 80.67,89.75 C72.66,86.3 63.74,86.25 55.38,88.34 C63.32,75.92 77.64,65.85 92.99,68.04 C97.53,60.26 101.9,52.38 106.76,44.79 C114.3,34.04 127.07,28.41 139.55,25.73 L139.55,25.73 Z M133.91,31.02 C124.24,34.01 114.63,39.23 109.08,47.99 C100.4,62.2 92.33,76.77 84.21,91.31 C83.56,92.63 82.54,94.19 83.35,95.68 C84.45,97.2 86.07,98.23 87.56,99.33 C95.02,104.54 102.4,109.88 109.86,115.1 C111.45,116.26 113.94,117.65 115.41,115.54 C126.56,102.92 137.47,90.07 148.07,76.98 C152.08,72.13 154.43,66.1 155.49,59.94 C157.26,49.32 156.15,38.29 152.8,28.08 C146.39,27.95 140.03,29.17 133.91,31.02 Z" id="Shape"></path>
                <path d="M123.4,45.62 C131.68,42.45 141.65,48.37 143.05,57.07 C145,65.65 137.84,74.87 129,74.92 C121.14,75.59 113.68,68.95 113.28,61.1 C112.6,54.42 117.04,47.71 123.4,45.62 L123.4,45.62 Z M124.23,49.28 C120.2,50.77 117.31,54.72 116.97,58.98 C116.32,65.23 121.68,71.25 127.98,71.27 C134.8,71.64 140.77,64.82 139.45,58.1 C138.56,51.26 130.63,46.55 124.23,49.28 Z" id="Shape"></path>
                <path d="M62.29,142.91 C62.66,143.18 63.4,143.73 63.77,144.01 C57.58,153.06 51.06,161.89 44.82,170.91 C43.93,171.69 43.52,173.83 41.94,173.11 C40.87,171.69 42.88,170.59 43.38,169.39 C49.76,160.62 55.85,151.63 62.29,142.91 Z" id="Path"></path>
                <path d="M52.51,169.06 C56.38,163.07 60.56,157.27 64.83,151.57 L66.63,151.92 C62.76,157.91 58.65,163.79 54.26,169.41 L52.51,169.06 Z" id="Path"></path>
            </g>
            <g id="#dcf2f9ff" transform="translate(254.000000, 28.000000)" fill="#DCF2F9">
                <path d="M50.91,3.02 C57.03,1.17 63.39,-0.05 69.8,0.08 C73.15,10.29 74.26,21.32 72.49,31.94 C71.43,38.1 69.08,44.13 65.07,48.98 C54.47,62.07 43.56,74.92 32.41,87.54 C30.94,89.65 28.45,88.26 26.86,87.1 C19.4,81.88 12.02,76.54 4.56,71.33 C3.07,70.23 1.45,69.2 0.35,67.68 C-0.46,66.19 0.56,64.63 1.21,63.31 C9.33,48.77 17.4,34.2 26.08,19.99 C31.63,11.23 41.24,6.01 50.91,3.02 L50.91,3.02 Z M40.4,17.62 C34.04,19.71 29.6,26.42 30.28,33.1 C30.68,40.95 38.14,47.59 46,46.92 C54.84,46.87 62,37.65 60.05,29.07 C58.65,20.37 48.68,14.45 40.4,17.62 Z" id="Shape"></path>
            </g>
            <g id="#fefefeff" transform="translate(287.000000, 48.000000)" fill="#FEFEFE">
                <path d="M8.23,1.28 C14.63,-1.45 22.56,3.26 23.45,10.1 C24.77,16.82 18.8,23.64 11.98,23.27 C5.68,23.25 0.32,17.23 0.97,10.98 C1.31,6.72 4.2,2.77 8.23,1.28 Z" id="Path"></path>
            </g>
            <g id="#0eb8e8ff" transform="translate(0.000000, 231.000000)" fill="#0EB8E8">
                <path d="M23.86,2.01 C34.06,0.02 45.03,0.23 54.73,4.26 C60.88,6.78 65.9,11.46 69.48,17.01 C64.74,20.73 59.98,24.43 55.24,28.17 C52.15,23.42 47.69,19.23 41.98,18.04 C36.31,16.89 29.93,16.87 24.8,19.87 C20.3,22.42 19.62,29.85 23.91,32.92 C28.43,35.97 33.93,36.97 39.12,38.35 C48.21,40.91 58.4,42.62 65.17,49.82 C71.94,56.8 72.54,67.58 70.33,76.57 C68.07,85.71 59.89,92.27 50.96,94.35 C40.32,96.91 28.86,96.84 18.4,93.49 C10.8,91.11 4.4,85.76 0.2,79.06 C4.98,75.43 9.76,71.8 14.48,68.09 C17.88,72.79 22.24,77.18 28.08,78.55 C34.59,80.07 41.98,80.29 48.01,77.02 C53.6,74 53.95,64.89 48.46,61.59 C43.25,58.28 36.97,57.42 31.16,55.61 C22.82,53.22 13.71,51.06 7.6,44.44 C1.29,37.74 0.85,27.49 3.33,19.06 C6.07,9.91 14.78,3.79 23.86,2.01 Z" id="Path"></path>
                <path d="M76.58,2.72 C101.52,2.73 126.46,2.73 151.4,2.72 C151.39,8.42 151.44,14.12 151.36,19.82 C142.02,19.66 132.68,19.83 123.35,19.73 C123.25,44.55 123.33,69.38 123.3,94.2 C117.1,94.2 110.89,94.2 104.68,94.21 C104.68,69.39 104.68,44.57 104.68,19.76 C95.32,19.79 85.96,19.7 76.6,19.81 C76.55,14.11 76.59,8.41 76.58,2.72 Z" id="Path"></path>
                <path d="M163.6,2.72 C183.35,2.73 203.1,2.72 222.86,2.72 C222.86,8.22 222.86,13.72 222.86,19.21 C209.32,19.19 195.78,19.24 182.24,19.19 C182.21,25.69 182.22,32.19 182.23,38.69 C193.66,38.64 205.08,38.7 216.51,38.65 C216.51,44.18 216.53,49.71 216.5,55.24 C205.08,55.18 193.66,55.26 182.24,55.19 C182.21,62.51 182.24,69.84 182.22,77.16 C195.76,77.17 209.3,77.19 222.85,77.15 C222.87,82.84 222.85,88.52 222.86,94.2 C203.1,94.2 183.35,94.2 163.6,94.21 C163.6,63.71 163.6,33.21 163.6,2.72 Z" id="Path"></path>
                <path d="M239.43,94.23 C239.35,63.72 239.4,33.22 239.41,2.71 C245.58,2.74 251.74,2.72 257.92,2.72 C258.22,27.53 258.01,52.36 258.08,77.17 C270.85,77.14 283.62,77.22 296.38,77.13 C296.41,82.82 296.39,88.52 296.4,94.21 C277.41,94.21 258.42,94.17 239.43,94.23 Z" id="Path"></path>
                <path d="M307.84,2.73 C314.05,2.71 320.26,2.73 326.48,2.72 C326.5,27.54 326.44,52.37 326.51,77.19 C339.28,77.13 352.05,77.21 364.83,77.15 C364.85,82.83 364.83,88.52 364.84,94.2 C345.84,94.2 326.84,94.21 307.84,94.2 C307.84,63.71 307.84,33.22 307.84,2.73 Z" id="Path"></path>
                <path d="M373.6,94.21 C383.74,63.73 393.75,33.21 403.85,2.72 C411.92,2.73 420,2.72 428.07,2.73 C438.15,33.23 448.24,63.73 458.38,94.21 C452.05,94.22 445.73,94.15 439.4,94.25 C437.16,88.1 435.29,81.81 433.2,75.61 C421.47,75.64 409.74,75.59 398.01,75.64 C396.09,81.84 394.06,88.01 392.1,94.2 C385.93,94.21 379.76,94.19 373.6,94.21 L373.6,94.21 Z M415.71,21.61 C411.44,34.13 407.48,46.76 403.3,59.3 C411.49,59.3 419.68,59.28 427.88,59.32 C423.94,46.71 419.7,34.2 415.71,21.61 Z" id="Shape"></path>
                <path d="M469.9,2.73 C482.25,2.76 494.61,2.63 506.96,2.8 C515,3.25 523.72,4.48 529.99,10 C536.28,15.74 537.45,24.95 536.95,33.02 C536.58,40.19 534.21,47.72 528.55,52.46 C525.62,55.09 521.86,56.42 518.17,57.55 C526.51,69.65 534.41,82.05 542.65,94.21 C535.51,94.18 528.38,94.22 521.25,94.19 C513.53,82.62 505.73,71.12 497.99,59.56 C494.84,59.56 491.7,59.56 488.56,59.54 C488.52,71.1 488.6,82.67 488.51,94.23 C482.31,94.17 476.1,94.22 469.9,94.19 C469.89,63.71 469.9,33.22 469.9,2.73 L469.9,2.73 Z M488.57,18.87 C488.53,27.02 488.55,35.17 488.55,43.31 C494.71,43.18 500.89,43.53 507.04,43.09 C510.99,42.77 515.64,41.37 517.22,37.33 C518.52,33.28 518.59,28.77 517.25,24.73 C516.09,21.29 512.38,19.79 509.07,19.36 C502.27,18.45 495.39,19.05 488.57,18.87 Z" id="Shape"></path>
            </g>
            <g id="#ed9e17ff" transform="translate(245.000000, 100.000000)" fill="#ED9E17">
                <path d="M9.54,0.99 C17.53,6.67 25.55,12.31 33.53,18.01 C29.33,24.98 23.4,31.24 15.87,34.56 C11.74,36.34 6.07,36.84 2.84,33.12 C-0.58,29.35 -0.17,23.79 0.55,19.12 C2,12.47 5.14,6.17 9.54,0.99 Z" id="Path"></path>
            </g>
        </g>
    </g>
</svg>